<svg xmlns="http://www.w3.org/2000/svg" width="173.829" height="50" viewBox="0 0 173.829 50">
  <g id="deskapp-logo" transform="translate(-229.494 -466)">
    <g id="edit-tools" transform="translate(229.495 466)">
      <path id="Path_72" data-name="Path 72" d="M177.881,4.971,173.339.429A1.463,1.463,0,1,0,171.27,2.5l2.093,2.093h-17.4a1.463,1.463,0,1,0,0,2.926h17.3l-1.989,1.989a1.463,1.463,0,1,0,2.069,2.069l4.536-4.536a1.463,1.463,0,0,0,0-2.069Zm0,0" transform="translate(-139.43 0)" fill="#ff5e93"/>
      <path id="Path_73" data-name="Path 73" d="M19.021,188.019H1.463A1.463,1.463,0,0,1,0,186.556V154.463A1.463,1.463,0,0,1,1.463,153H19.021a1.463,1.463,0,0,1,1.463,1.463v32.092A1.463,1.463,0,0,1,19.021,188.019Zm0,0" transform="translate(0 -138.076)" fill="#00eccf"/>
      <path id="Path_74" data-name="Path 74" d="M117.637,188.019H97.153a1.463,1.463,0,0,1-1.289-2.154l17.2-32.092a1.464,1.464,0,0,1,1.29-.772h20.484a1.463,1.463,0,0,1,1.29,2.154l-17.2,32.092A1.463,1.463,0,0,1,117.637,188.019Zm0,0" transform="translate(-86.356 -138.076)" fill="#0051bd"/>
      <path id="Path_75" data-name="Path 75" d="M227.967,4.971,223.425.429A1.463,1.463,0,0,0,221.356,2.5l2.093,2.093H210V7.517h13.351l-1.989,1.989a1.463,1.463,0,1,0,2.069,2.069l4.536-4.536a1.463,1.463,0,0,0,0-2.069Zm0,0" transform="translate(-189.516 0)" fill="#d11372"/>
      <path id="Path_76" data-name="Path 76" d="M239.251,153.712A1.463,1.463,0,0,0,238,153H217.511a1.464,1.464,0,0,0-1.29.772L210,165.382v22.637h10.8a1.464,1.464,0,0,0,1.29-.772l17.2-32.092a1.463,1.463,0,0,0-.034-1.443Zm0,0" transform="translate(-189.515 -138.076)" fill="#00347b"/>
    </g>
    <path id="Path_77" data-name="Path 77" d="M22.677-147.2v21.371H18.35v-2.178a4.633,4.633,0,0,1-1.887,1.771,5.855,5.855,0,0,1-2.759.639,6,6,0,0,1-3.368-.973A6.479,6.479,0,0,1,8.028-129.3,9.332,9.332,0,0,1,7.2-133.32a9.14,9.14,0,0,1,.828-3.993,6.348,6.348,0,0,1,2.294-2.671,6.113,6.113,0,0,1,3.383-.944,5.839,5.839,0,0,1,2.7.624,4.6,4.6,0,0,1,1.887,1.728V-147.2Zm-7.695,18.264a2.978,2.978,0,0,0,2.5-1.118,5.127,5.127,0,0,0,.871-3.209,5.014,5.014,0,0,0-.886-3.18,2.987,2.987,0,0,0-2.483-1.118,3.077,3.077,0,0,0-2.526,1.1,4.842,4.842,0,0,0-.9,3.136,5.134,5.134,0,0,0,.9,3.238A3.028,3.028,0,0,0,14.982-128.936Zm24.449-3.891h-9.7a4.443,4.443,0,0,0,1.074,3.005,3.9,3.9,0,0,0,2.846.944,7.125,7.125,0,0,0,2.265-.378,7.223,7.223,0,0,0,2.091-1.1L39.17-127.4a7.724,7.724,0,0,1-2.6,1.321,10.54,10.54,0,0,1-3.122.479,8.05,8.05,0,0,1-5.836-2.047,7.408,7.408,0,0,1-2.12-5.59,8.517,8.517,0,0,1,.915-3.993,6.661,6.661,0,0,1,2.57-2.73,7.253,7.253,0,0,1,3.746-.973,6.242,6.242,0,0,1,4.907,2.018,7.879,7.879,0,0,1,1.8,5.444ZM32.84-137.85a2.821,2.821,0,0,0-2.018.726,3.639,3.639,0,0,0-1,2.12h5.836Q35.308-137.85,32.84-137.85ZM47.823-125.6a10.788,10.788,0,0,1-6.591-1.8l1.161-3.049a8.987,8.987,0,0,0,2.584,1.292,9.573,9.573,0,0,0,2.9.45,3.555,3.555,0,0,0,1.742-.348,1.108,1.108,0,0,0,.61-1.016,1.023,1.023,0,0,0-.436-.871,4.243,4.243,0,0,0-1.539-.552l-2.41-.552a6.154,6.154,0,0,1-3.121-1.481,3.68,3.68,0,0,1-1-2.7,3.984,3.984,0,0,1,.8-2.439,5.181,5.181,0,0,1,2.221-1.67,8.445,8.445,0,0,1,3.281-.6,10.119,10.119,0,0,1,3.078.479,9.3,9.3,0,0,1,2.7,1.35l-1.22,2.933a9.528,9.528,0,0,0-2.308-1.191A6.96,6.96,0,0,0,48-137.763a3.193,3.193,0,0,0-1.684.378,1.172,1.172,0,0,0-.61,1.045.993.993,0,0,0,.363.8,3.135,3.135,0,0,0,1.292.508l2.468.552a6.577,6.577,0,0,1,3.281,1.568,3.828,3.828,0,0,1,1.016,2.788,3.875,3.875,0,0,1-1.684,3.31A7.735,7.735,0,0,1,47.823-125.6Zm19.136-.232L61.18-132.42v6.591H56.8V-147.2H61.18v12.98l5.517-6.3h5.256l-6.243,7.056,6.62,7.637ZM88.04-140.55v14.722H83.713v-2.178a4.634,4.634,0,0,1-1.887,1.771,5.855,5.855,0,0,1-2.759.639,6.184,6.184,0,0,1-3.383-.929,6.249,6.249,0,0,1-2.294-2.657,9.14,9.14,0,0,1-.828-3.993,9.429,9.429,0,0,1,.828-4.036,6.463,6.463,0,0,1,2.308-2.744,6,6,0,0,1,3.368-.973,5.648,5.648,0,0,1,2.759.668,4.833,4.833,0,0,1,1.887,1.8v-2.091Zm-7.695,11.615a3,3,0,0,0,2.5-1.1,5.063,5.063,0,0,0,.871-3.194,5.127,5.127,0,0,0-.871-3.209,2.978,2.978,0,0,0-2.5-1.118,3.013,3.013,0,0,0-2.526,1.161,5.146,5.146,0,0,0-.9,3.223,4.887,4.887,0,0,0,.886,3.151A3.086,3.086,0,0,0,80.345-128.936Zm20.239-11.992a6,6,0,0,1,3.368.973,6.463,6.463,0,0,1,2.308,2.744,9.429,9.429,0,0,1,.828,4.036,9.279,9.279,0,0,1-.813,3.993,6.122,6.122,0,0,1-2.294,2.657,6.257,6.257,0,0,1-3.4.929,5.854,5.854,0,0,1-2.759-.639,4.441,4.441,0,0,1-1.858-1.771v8.45H91.582V-136.34a34.23,34.23,0,0,0-.232-4.21h4.123l.29,2.439a4.433,4.433,0,0,1,1.873-2.062A5.733,5.733,0,0,1,100.584-140.928Zm-1.249,11.992a3.012,3.012,0,0,0,2.5-1.089,4.946,4.946,0,0,0,.871-3.151,5.207,5.207,0,0,0-.886-3.223,2.943,2.943,0,0,0-2.483-1.161,3.019,3.019,0,0,0-2.512,1.118,5.066,5.066,0,0,0-.886,3.209,5,5,0,0,0,.886,3.194A3.036,3.036,0,0,0,99.335-128.936Zm19.571-11.992a6,6,0,0,1,3.368.973,6.463,6.463,0,0,1,2.308,2.744,9.429,9.429,0,0,1,.828,4.036,9.279,9.279,0,0,1-.813,3.993,6.122,6.122,0,0,1-2.294,2.657,6.257,6.257,0,0,1-3.4.929,5.855,5.855,0,0,1-2.759-.639,4.441,4.441,0,0,1-1.858-1.771v8.45H109.9V-136.34a34.231,34.231,0,0,0-.232-4.21H113.8l.29,2.439a4.433,4.433,0,0,1,1.873-2.062A5.733,5.733,0,0,1,118.906-140.928Zm-1.249,11.992a3.012,3.012,0,0,0,2.5-1.089,4.946,4.946,0,0,0,.871-3.151,5.207,5.207,0,0,0-.886-3.223,2.943,2.943,0,0,0-2.483-1.161,3.019,3.019,0,0,0-2.512,1.118,5.066,5.066,0,0,0-.886,3.209,5,5,0,0,0,.886,3.194A3.036,3.036,0,0,0,117.658-128.936Z" transform="translate(277.913 635.557)" fill="#e7eafc"/>
  </g>
</svg>
