<svg xmlns="http://www.w3.org/2000/svg" viewBox="0 0 500 500"><g id="freepik--background-complete--inject-27"><polygon points="38.65 140.84 48.49 150.52 103.73 150.52 103.73 131.15 48.49 131.15 38.65 140.84" style="fill:#ebebeb"></polygon><polygon points="38.73 168.64 49.05 177.82 104.22 175.07 103.25 155.73 48.08 158.47 38.73 168.64" style="fill:#ebebeb"></polygon><polygon points="171.53 155.67 160.94 164.54 105.88 160.14 107.44 140.83 162.5 145.23 171.53 155.67" style="fill:#ebebeb"></polygon><polygon points="97.51 372.12 112.44 372.12 108.96 122.8 100.99 122.8 97.51 372.12" style="fill:#dbdbdb"></polygon><path d="M439.2,284.74a35.69,35.69,0,0,1-1.75,13.61,37,37,0,0,1-2.56,5.88c-1.28,2.42-2.6,4.77-2.54,7.53.25.19-.65.1-.66-.17-7-4.73-16.31-6.21-21.41-13.46a23.28,23.28,0,0,1-3.77-11.75,34.67,34.67,0,0,1,1.33-13.74c1.25-3.63,3.69-7,7.32-8.59s8.44-1.07,12.14.39C435.27,267.61,438.65,276.74,439.2,284.74Z" style="fill:#ebebeb"></path><path d="M438.78,339.15c-.74-3.4-1.48-6.81-2.25-10.2-1.51-6.66-3.09-13.29-4.91-19.87q-1.62-5.91-3.5-11.72a70.56,70.56,0,0,1,1.42-7c.83-2.79,1.93-5.46,3-8.17.07-.17-.2-.28-.29-.12-1.93,3.7-4.45,8.42-4.85,12.94q-2.19-6.58-4.78-13a54.34,54.34,0,0,1,1.13-10.45.13.13,0,0,0-.24-.07,36.94,36.94,0,0,0-1.43,9.2q-2-4.85-4.28-9.58c-.14-.28-.54,0-.42.25,2.34,5.5,4.47,11.1,6.44,16.76a35.11,35.11,0,0,0-11-7.53c-.18-.08-.33.18-.15.27A41.75,41.75,0,0,1,424.45,290q2.12,6.21,4,12.5c-4.23-4.83-10.26-8.27-16.19-10.32-.21-.07-.29.24-.09.32,6.84,2.65,12,7,16.94,12.23.49,1.69,1,3.39,1.44,5.09,1.78,6.44,3.43,12.91,5,19.4.75,3.12,1.48,6.23,2.19,9.35.77,3.36,1.31,6.89,2.39,10.15.11.32.66.29.61-.08A93.33,93.33,0,0,0,438.78,339.15Z" style="fill:#dbdbdb"></path><path d="M431.32,277.69a18.2,18.2,0,0,0-3.14,6.36.05.05,0,0,0,.1,0,58.12,58.12,0,0,1,3.35-6.22C431.76,277.67,431.46,277.51,431.32,277.69Z" style="fill:#dbdbdb"></path><path d="M417.1,291.92a19.44,19.44,0,0,0-6.39-2.72c-.06,0-.1.07,0,.1,1,.52,2.1.91,3.14,1.41s2.05,1.07,3.1,1.53A.19.19,0,0,0,417.1,291.92Z" style="fill:#dbdbdb"></path><path d="M414.84,273.31a13.61,13.61,0,0,0-2-1.47.12.12,0,0,0-.14.18,13.27,13.27,0,0,0,2,1.51C414.8,273.62,415,273.41,414.84,273.31Z" style="fill:#dbdbdb"></path><path d="M463.27,296.47c-5.18,1.9-10.39,3.67-15.56,5.54-.45.17-10.42-16.36-7.74-25.35a28.76,28.76,0,0,1,16.86-18.11c3.69-1.51,8.25-2.87,12.28-2.24,3.58.56,6.26,3.3,7.61,6.55,1.85,4.42,1.66,9.85,1.09,14.51a25.4,25.4,0,0,1-4.45,12.18C470.77,293.05,467.3,295,463.27,296.47Z" style="fill:#ebebeb"></path><path d="M469.9,279.77a70,70,0,0,1-10.08,4.71,43.08,43.08,0,0,0-6.74,2.93c1.91-5.1,4.06-10.11,6.35-15.09a23.73,23.73,0,0,0,9.25-5.53.14.14,0,0,0-.2-.2,48.27,48.27,0,0,1-8.74,5.07c.62-1.34,1.25-2.68,1.89-4,.18-.37-.34-.7-.56-.33a111.29,111.29,0,0,0-6.71,13,57.42,57.42,0,0,1-1.25-11.49.08.08,0,0,0-.16,0,38.53,38.53,0,0,0,.92,12.66c-1.62,3.81-3.07,7.69-4.35,11.61-.74-2.26-1.67-4.48-2.33-6.76a31.73,31.73,0,0,1-1.39-10.1c0-.1-.14-.1-.15,0A35.82,35.82,0,0,0,449,294.76c-.74,2.35-1.44,4.72-2.07,7.08a138.53,138.53,0,0,0-4.73,37,.23.23,0,0,0,.45,0,181.29,181.29,0,0,1,5.62-36.63c1.24-4.69,2.72-9.27,4.38-13.76,3.06-1.12,6.08-2.56,9.08-3.81a28.82,28.82,0,0,0,8.28-4.72C470.13,279.86,470,279.71,469.9,279.77Z" style="fill:#dbdbdb"></path><path d="M474.51,274.51c-3.15,1.34-6.11,3.14-9.26,4.5-.14.06,0,.3.11.26a21.77,21.77,0,0,0,9.29-4.59C474.75,274.59,474.62,274.46,474.51,274.51Z" style="fill:#dbdbdb"></path><path d="M447.76,269.18c0-.17-.23-.25-.27-.07-.7,3-1.12,6.21-.07,9.2,0,.11.23.11.23,0C447.61,275.21,447.26,272.24,447.76,269.18Z" style="fill:#dbdbdb"></path><path d="M460.65,261.49a7.9,7.9,0,0,0-1.08,5.14c0,.12.19.17.22,0,.28-1.72.85-3.31,1.26-5A.22.22,0,0,0,460.65,261.49Z" style="fill:#dbdbdb"></path><path d="M478.4,306.11c-.66,5.11-3.09,12.44-8.81,13.52-3.71.7-7.54.93-11.27,1.55-4,.65-8,1.37-11.94,2.32-.33.08-1.67-12,6.88-19.58,2.4-2.11,5.59-3.22,8.52-4.42a42.12,42.12,0,0,1,10.47-3c2.21-.31,4.13-.17,5.32,1.95S478.72,303.68,478.4,306.11Z" style="fill:#ebebeb"></path><path d="M473.19,300.79c-2.23,1-4.46,2.13-6.66,3.29a25,25,0,0,1,1.59-2.23c.86-1,1.84-1.88,2.79-2.81.08-.07,0-.24-.11-.17a13.34,13.34,0,0,0-4.85,5.51c-2.75,1.46-5.45,3-8,4.66a32.5,32.5,0,0,0-5,3.88,23.16,23.16,0,0,1,1.37-3.82c1-1.88,2.54-3.11,4-4.57a.15.15,0,0,0-.2-.23,13.85,13.85,0,0,0-6,9.45,32.81,32.81,0,0,0-4.56,5.91c-5,8.35-8.33,18.83-6.6,28.62,0,.24.43.23.43,0a55.11,55.11,0,0,1,7.45-28.16c.36-.61.73-1.2,1.12-1.77A43.71,43.71,0,0,1,455.1,317c2-.33,4.12-.43,6.18-.63,3.4-.32,7.11-.95,9.83-3.17.12-.1,0-.32-.15-.23-6.3,3.65-13.92,1.81-20.41,4.47a32.27,32.27,0,0,1,8.81-8.2l.57-.35c4.42-.26,9.18.05,13.14-2.11a.11.11,0,0,0-.09-.19c-3.89,1.75-8,1.17-12.06,1.68,4.06-2.48,8.27-4.63,12.35-7.1C473.62,301,473.57,300.62,473.19,300.79Z" style="fill:#dbdbdb"></path><path d="M475.85,304.71a60,60,0,0,1-6.2,1.6s0,.09,0,.09a13.38,13.38,0,0,0,6.28-1.54C476,304.81,476,304.67,475.85,304.71Z" style="fill:#dbdbdb"></path><path d="M460.91,303.1a10.24,10.24,0,0,0-2.73,2.72c-.09.12.09.29.19.18.46-.48.94-.94,1.43-1.39a15.62,15.62,0,0,0,1.34-1.23A.19.19,0,0,0,460.91,303.1Z" style="fill:#dbdbdb"></path><path d="M427.51,320.83c.07.16-.16.31-.25.14,0,0,0,0,0,0a.27.27,0,0,1-.15.1,96.63,96.63,0,0,1-11.91,2.07c-3.22.29-6.93.47-9.75-1.4-3.82-2.53-6.34-9.31-4.27-13.61,2.44-5.12,9.81-2.34,13.5-.52A27.07,27.07,0,0,1,427.51,320.83Z" style="fill:#ebebeb"></path><path d="M430.37,323.19a38.06,38.06,0,0,0-7.11-5.41,24.3,24.3,0,0,0-7.21-7.35c-.14-.1-.26.13-.13.22A32.47,32.47,0,0,1,422,317a67.54,67.54,0,0,0-8.91-4.05,11.9,11.9,0,0,0-4.79-4.8s-.09,0-.05.06a19.77,19.77,0,0,1,4.32,4.54c-1.81-.67-3.64-1.3-5.47-1.91-.16-.05-.23.2-.07.26,3.26,1.27,6.59,2.61,9.81,4.16a37.58,37.58,0,0,1-11.88,0c-.11,0-.16.14-.05.17a23.48,23.48,0,0,0,12.61.19,59.09,59.09,0,0,1,6,3.35,14.69,14.69,0,0,0-4.83.4,36.87,36.87,0,0,1-8.5,1c-.1,0-.13.17,0,.19,4.93.85,9.58-1.39,14.47-.81a38.82,38.82,0,0,1,5.08,4.15,38.32,38.32,0,0,1,7.42,10.47c2.05,4.18,3.17,8.62,4.83,12.94a.16.16,0,0,0,.3-.08C440.82,338.66,436.58,329.26,430.37,323.19Z" style="fill:#dbdbdb"></path><path d="M415.51,311.5a5.63,5.63,0,0,0-1.26-1.53,5,5,0,0,0-1.46-1.09c-.05,0-.07.05,0,.08.4.46,1,.8,1.4,1.24s.8.95,1.24,1.39A.08.08,0,0,0,415.51,311.5Z" style="fill:#dbdbdb"></path><path d="M407.38,314.15c-.73-.19-1.5-.17-2.24-.33a20.25,20.25,0,0,1-2.18-.65.09.09,0,0,0-.07.16,7.2,7.2,0,0,0,4.49,1A.11.11,0,0,0,407.38,314.15Z" style="fill:#dbdbdb"></path><polygon points="453.8 332.21 453 341.34 450.27 372.15 426.14 372.15 422.73 341.34 421.73 332.21 453.8 332.21" style="fill:#c7c7c7"></polygon><polygon points="453.8 332.21 453 341.34 422.73 341.34 421.73 332.21 453.8 332.21" style="fill:#a6a6a6"></polygon><rect x="419.34" y="329.73" width="36.85" height="7.4" style="fill:#c7c7c7"></rect><path d="M453,99.9H339.77S351,69.25,368.26,69.25s22.68,21.16,22.68,21.16,11.65-11.5,21.23-11.5S430.06,94.1,430.06,94.1,443.59,85.93,453,99.9Z" style="fill:#ebebeb"></path><path d="M254.36,57.31h-52.9s11.82-17.12,21.13-17.12S234.66,51.6,234.66,51.6s6.57-5.32,12.66-4.37S254.36,57.31,254.36,57.31Z" style="fill:#ebebeb"></path><path d="M199.28,77.27h-103s14.1-31.5,29.2-33.46,22.31,23.4,22.31,23.4,9.73-9,17.39-9,13.56,11.81,13.56,11.81S194,62,199.28,77.27Z" style="fill:#ebebeb"></path></g><g id="freepik--Floor--inject-27"><polygon points="25.16 372.12 81.37 371.87 137.58 371.78 250 371.62 362.42 371.78 418.63 371.87 474.84 372.12 418.63 372.36 362.42 372.45 250 372.61 137.58 372.45 81.37 372.36 25.16 372.12" style="fill:#263238"></polygon></g><g id="freepik--Shadows--inject-27"><ellipse cx="109.69" cy="440.2" rx="86.86" ry="12.89" style="fill:#ebebeb"></ellipse><ellipse cx="399.08" cy="440.2" rx="86.86" ry="12.89" style="fill:#ebebeb"></ellipse><ellipse cx="257.38" cy="419.24" rx="114.67" ry="8.44" style="fill:#ebebeb"></ellipse></g><g id="freepik--Map--inject-27"><polygon points="323.37 127.82 388.56 119.3 388.56 382.88 323.37 391.4 323.37 127.82" style="fill:#37474f"></polygon><polygon points="192.98 127.82 258.17 119.3 258.17 382.88 192.98 391.4 192.98 127.82" style="fill:#263238"></polygon><polygon points="323.37 127.82 258.17 119.3 258.17 382.88 323.37 391.4 323.37 127.82" style="fill:#263238"></polygon><polygon points="192.98 127.82 127.79 119.3 127.79 382.88 192.98 391.4 192.98 127.82" style="fill:#37474f"></polygon><polygon points="323.37 133.43 382.34 125.79 382.34 376.8 323.37 384.44 323.37 133.43" style="fill:#dbdbdb"></polygon><polygon points="192.98 133.9 258.17 125.79 258.17 376.8 192.98 384.91 192.98 133.9" style="fill:#dbdbdb"></polygon><polygon points="323.37 133.67 258.17 126.02 258.17 377.04 323.37 384.68 323.37 133.67" style="fill:#ebebeb"></polygon><polygon points="192.98 133.9 134.01 125.79 134.01 376.8 192.98 384.91 192.98 133.9" style="fill:#ebebeb"></polygon><polygon points="186.09 132.96 180.83 150.97 179.59 155.22 166.58 199.61 165.82 201.37 162.01 199.93 134.01 189.37 134.01 184.64 163.53 195.79 182.07 132.4 186.09 132.96" style="fill:#fff"></polygon><polygon points="247.03 127.18 244.64 128.63 240.48 131.13 214.47 146.83 210.94 148.97 193.21 159.67 192.98 159.6 179.59 155.22 177.74 154.62 178.85 150.32 180.83 150.97 192.75 154.87 192.98 154.73 236.43 128.5 236.43 128.49 236.44 128.49 240.81 127.96 243.1 127.67 243.12 127.67 247.03 127.18" style="fill:#fff"></polygon><polygon points="310.89 132.21 307.5 146.35 306.36 151.13 287.58 229.18 286.55 233.51 286.54 233.56 272.61 228.15 267.79 226.16 258.11 222.16 256.91 221.66 254.95 218.57 210.94 148.97 209.92 147.36 213.17 144.77 214.47 146.83 233.91 177.57 236.53 181.72 259.44 217.94 283.82 227.68 296.41 175.41 297.53 170.74 306.89 131.73 310.89 132.21" style="fill:#fff"></polygon><polygon points="299.42 172.37 297 175.92 296.41 175.41 258.17 142.5 257.07 141.55 254.68 140.04 251.2 137.86 240.48 131.13 239.53 130.53 240.81 127.96 243.1 127.67 243.12 127.67 244.64 128.63 258.17 137.15 259.37 137.9 297.53 170.74 299.42 172.37" style="fill:#fff"></polygon><polygon points="382.33 189.72 382.33 194.56 371.97 189.71 368.26 187.96 322.31 166.41 306.36 151.13 303.75 148.63 306.32 145.22 307.5 146.35 324.42 162.55 382.33 189.72" style="fill:#fff"></polygon><polygon points="344.06 313.37 340.2 312.27 368.68 186.09 372.54 187.19 344.06 313.37" style="fill:#fff"></polygon><polygon points="382.33 296.8 382.33 301.48 333.78 318.49 329.92 319.85 329.91 319.85 324.33 321.8 264.48 377.77 258.95 377.12 279.6 357.82 283.75 353.93 301.95 336.92 305.23 333.86 322.4 317.8 340.38 311.5 344.84 309.93 382.33 296.8" style="fill:#fff"></polygon><polygon points="323.13 247.76 284.51 232.79 285.79 228.56 323.6 243.22 357.97 239.6 358.34 244.05 323.13 247.76" style="fill:#fff"></polygon><polygon points="236.01 182.92 232.44 180.95 252.03 135.96 255.6 137.93 236.01 182.92" style="fill:#fff"></polygon><polygon points="284.62 354.07 284.09 358.49 279.6 357.82 257.38 354.49 192.78 331.95 134.01 338.47 134.01 333.97 173.78 329.56 179 328.99 193.19 327.41 193.57 327.55 230.47 340.42 234.64 341.87 258.24 350.1 283.75 353.93 284.62 354.07" style="fill:#fff"></polygon><polygon points="148.15 242.03 134.01 274.57 134.01 264.37 162.01 199.93 163.01 197.64 166.58 199.61 165.82 201.37 150.06 237.64 148.15 242.03" style="fill:#fff"></polygon><polygon points="179.66 329.69 176.93 332.93 173.78 329.56 134.01 287.1 134.01 280.93 164.94 313.97 168.12 317.35 179 328.99 179.66 329.69" style="fill:#fff"></polygon><polygon points="193.23 244.35 146.85 241.95 147.03 237.48 192.73 239.85 257.59 217.66 258.75 221.94 193.23 244.35" style="fill:#fff"></polygon><polygon points="167.71 318.71 163.94 317.27 187.14 240.82 190.91 242.27 167.71 318.71" style="fill:#fff"></polygon><polygon points="382.33 263.41 382.33 267.92 355.09 264.52 353.36 264.3 353.8 259.86 356.07 260.14 382.33 263.41" style="fill:#fff"></polygon><polygon points="302.4 338.38 267.47 225.16 271.23 223.69 306.16 336.91 302.4 338.38" style="fill:#fff"></polygon><polygon points="232.59 344.47 229.62 341.49 256.92 307.08 288.49 287.59 290.4 291.51 259.43 310.63 232.59 344.47" style="fill:#fff"></polygon><polygon points="310.89 132.21 307.5 146.35 306.36 151.13 287.58 229.18 286.55 233.51 286.54 233.56 272.61 228.15 267.79 226.16 258.11 222.16 256.91 221.66 254.95 218.57 210.94 148.97 209.92 147.36 213.17 144.77 214.47 146.83 233.91 177.57 236.53 181.72 259.44 217.94 283.82 227.68 296.41 175.41 297.53 170.74 306.89 131.73 310.89 132.21" style="fill:#fff"></polygon><polygon points="323.13 247.76 284.51 232.79 285.79 228.56 323.6 243.22 357.97 239.6 358.34 244.05 323.13 247.76" style="fill:#fff"></polygon><polygon points="284.62 354.07 284.09 358.5 279.59 357.82 257.38 354.49 231.81 345.57 231.79 345.57 205.74 336.47 192.78 331.95 134.01 338.47 134.01 333.97 173.78 329.56 179.01 328.99 193.18 327.41 193.58 327.55 205.74 331.8 230.47 340.42 234.64 341.87 234.65 341.87 234.71 341.9 258.24 350.1 283.75 353.93 284.62 354.07" style="fill:#fff"></polygon><polygon points="306.16 336.91 302.4 338.37 288.33 292.79 288.33 292.78 287.01 288.5 267.78 226.16 267.78 226.16 267.47 225.16 267.94 224.97 271.23 223.69 272.61 228.15 291.87 290.6 306.16 336.91" style="fill:#fff"></polygon><polygon points="290.4 291.5 290.4 291.51 288.33 292.79 259.43 310.63 234.65 341.87 232.59 344.47 229.62 341.5 230.47 340.42 256.92 307.08 287.01 288.5 288.49 287.59 290.4 291.5" style="fill:#fff"></polygon><polygon points="361.72 379.47 357.49 380.02 329.92 319.85 329.91 319.85 329.15 318.17 332.69 316.12 333.78 318.49 361.72 379.47" style="fill:#fff"></polygon><polygon points="209.68 226.9 243.56 215.31 221.42 180.3 202.8 186.55 209.68 226.9" style="fill:#ebebeb"></polygon><polygon points="332.82 232.48 352.17 230.44 361.01 191.93 340.16 182.15 332.82 232.48" style="fill:#ebebeb"></polygon><polygon points="382.33 178.56 338.79 159.17 338.79 131.43 382.34 125.79 382.33 178.56" style="fill:#ebebeb"></polygon><polygon points="198.1 163.39 208.94 156.85 218.64 172.25 201.35 178.16 198.1 163.39" style="fill:#ebebeb"></polygon><polygon points="268.87 314.1 286.54 303.19 296 333.87 283.35 345.7 268.87 343.53 268.87 314.1" style="fill:#dbdbdb"></polygon><polygon points="267.76 135.34 267.76 127.11 302.85 131.26 296.04 159.67 267.76 135.34" style="fill:#dbdbdb"></polygon><polygon points="140.6 276.06 163.14 300.13 177.7 251.95 151.58 250.6 140.6 276.06" style="fill:#dbdbdb"></polygon><polygon points="140.22 179.32 140.22 140.13 172.06 144.71 159.77 186.71 140.22 179.32" style="fill:#dbdbdb"></polygon><polygon points="140.22 135.33 172.06 139.91 174.59 131.37 140.22 126.64 140.22 135.33" style="fill:#dbdbdb"></polygon><polygon points="199.63 378.28 199.63 341.56 222.98 349.75 222.98 375.37 199.63 378.28" style="fill:#ebebeb"></polygon><polygon points="138.98 344.42 157.13 342.4 157.13 374.59 138.98 372.09 138.98 344.42" style="fill:#dbdbdb"></polygon><polygon points="367.4 371.32 347.15 327.14 382.33 314.81 382.34 369.38 367.4 371.32" style="fill:#ebebeb"></polygon><polygon points="318.06 232.34 318.06 210.04 297.87 202.98 293.1 222.85 318.06 232.34" style="fill:#dbdbdb"></polygon><polygon points="272.61 228.16 291.88 290.61 290.4 291.51 288.34 292.78 288.34 292.79 259.43 310.63 234.72 341.9 231.81 345.57 231.79 345.57 205.74 336.47 205.74 331.8 230.47 340.43 256.92 307.08 287.01 288.5 267.77 226.16 267.78 226.16 267.94 224.98 268.4 221.52 268.4 221.49 283.83 227.63 290.48 200.01 294.25 201.48 286.54 233.56 272.61 228.16" style="fill:#FFC727"></polygon><path d="M307.06,174.2c-.75-7.59-6-15.16-15.19-15.16s-14.43,7.57-15.19,15.16c-1.16,11.73,6.75,22.36,15.19,32.05C300.32,196.56,308.23,185.93,307.06,174.2Zm-15.19,8.44a8.32,8.32,0,1,1,8.33-8.32A8.31,8.31,0,0,1,291.87,182.64Z" style="fill:#263238"></path><path d="M220.94,304.5c-.76-7.6-6-15.17-15.2-15.17s-14.43,7.57-15.19,15.17c-1.16,11.73,6.75,22.35,15.19,32C214.19,326.85,222.1,316.23,220.94,304.5Zm-15.2,8.43a8.32,8.32,0,1,1,8.33-8.32A8.31,8.31,0,0,1,205.74,312.93Z" style="fill:#263238"></path></g><g id="freepik--character-2--inject-27"><path d="M366.37,227c.22.48.46,1,.73,1.43a14.65,14.65,0,0,0,2.52,3.2A26.82,26.82,0,0,0,389,239.47a27.27,27.27,0,0,0,6.33-.85,27.55,27.55,0,0,0,12.52-7,23.53,23.53,0,0,0,4.15-5.42,55.8,55.8,0,0,0,6.49-33.4c0-.22-.05-.43-.08-.65a1.64,1.64,0,0,0,0-.22s0-.07,0-.11c0-.28-.08-.56-.12-.84a55.88,55.88,0,0,0-3.28-12.4s0,0,0-.05c-.58-1.44-1.2-2.82-1.88-4.15a44.69,44.69,0,0,0-2.59-4.45c-3.78-5.69-13.6-8.45-19.87-3.75-4.23,3.16-5.88,7.62-6.87,12.32-.24,1.11-.43,2.23-.62,3.36-.23,1.37-.44,2.74-.67,4.08-.14.8-.29,1.6-.47,2.38,0,0,0,.09,0,.13-1.05,4.75-2,8.81-5.41,12.22-3,3-6.3,5.71-8.49,9.35C365.34,214.45,363.84,221.2,366.37,227Z" style="fill:#263238"></path><path d="M363.58,216.84c.73-4.43,3.24-8.06,6.45-11.08a50.16,50.16,0,0,0,5.83-5.83,27.6,27.6,0,0,0,3.75-7.05c2.24-5.94,3.09-12.29,5.38-18.21,0-.08.13,0,.11,0-3.19,9-3.43,19.64-10.08,27.12-3.15,3.55-7.14,6.19-9.29,10.55s-2.53,9.28-.08,13.45,7,6.64,11.59,8c.15.05.08.31-.07.27C369.14,232.23,362.13,225.63,363.58,216.84Z" style="fill:#263238"></path><path d="M384.18,238.81a34.34,34.34,0,0,0,4.5.63A28.33,28.33,0,0,0,403,237.07a20.9,20.9,0,0,0,3.9-2.45,27.44,27.44,0,0,0,7.9-10.47,52.92,52.92,0,0,0,4.12-16.36,63.6,63.6,0,0,0-.54-16.7c-.34-2-.78-4.07-1.32-6.06a59.28,59.28,0,0,0-4.4-11.48c-.06-.11-.24,0-.19.08l.33.7c.31.67.6,1.34.89,2a63.29,63.29,0,0,1,4.27,14.57c0,.28.1.56.14.85,0,0,0,.07,0,.11a1.66,1.66,0,0,1,0,.22c.06.37.11.75.15,1.13,1.35,10.83.14,22.87-5,32.55-.16.29-.32.58-.49.86a23.61,23.61,0,0,1-11.82,10.59,22.81,22.81,0,0,1-5.9,1.35,67.07,67.07,0,0,1-10.79-.06A.15.15,0,1,0,384.18,238.81Z" style="fill:#263238"></path><path d="M370.93,203.53a67.84,67.84,0,0,0,5.49-4.37,17.5,17.5,0,0,0,3.91-6.92c1.8-5.14,3.35-10.41,4.8-15.66,0,0,.05,0,.05,0-1.35,4.93-2.59,9.88-4.16,14.75a24.31,24.31,0,0,1-2.71,6.25,19,19,0,0,1-4.37,4.27c-3.63,2.79-7.06,5.73-9.33,9.77-2.44,4.33-3.18,9.53-1.08,14.14a0,0,0,1,1-.06,0C359.38,217.53,364.42,208.77,370.93,203.53Z" style="fill:#263238"></path><path d="M410.16,197.28c5.91,3.49,27.85,25.44,29.21,38.65,1.53,14.77-6.75,36.86-8.52,39.24-2.28,3.07-21.09-3.81-20.68-8.56.52-5.94,8.05-25.72,7.42-29.27-1-5.38-8.75-23.58-13.82-35C400.83,195.77,405.61,194.59,410.16,197.28Z" style="fill:#dd6a57"></path><path d="M430.85,275.17c-.51,1.85-3.81,13.76-5.38,16.72s-6.72,11.18-9.11,10.2-1.08-3.49-1.08-3.49-2.73,3.12-5,1.92-.14-5.06-.14-5.06-3,3-5.26,1.64.61-4.88.61-4.88-2.65,2.88-4,1c-1.64-2.28,3.83-7,5.32-10.43.34-.78,5.75-16.16,5.75-16.16Z" style="fill:#dd6a57"></path><path d="M405.67,292.63c4-3.5,5.17-5.73,6.67-10.75a.08.08,0,0,1,.16,0c-1,5-2.06,8-6.67,10.92C405.61,293,405.48,292.8,405.67,292.63Z" style="fill:#263238"></path><path d="M410.24,295.83c3.85-4,5.12-6.4,7.08-11.55,0-.07.15,0,.13,0-1.5,5.21-2.61,8.18-7,11.68C410.27,296.15,410.06,296,410.24,295.83Z" style="fill:#263238"></path><path d="M415.84,298.43c3.45-4.14,5-6.72,6.22-12a.1.1,0,0,1,.19,0,17.83,17.83,0,0,1-6.27,12C415.73,298.75,415.63,298.69,415.84,298.43Z" style="fill:#263238"></path><path d="M411,262.58a65.73,65.73,0,0,0-5.85,7.65c-1.45,2.63-3.24,14.41-.71,14.94,3.25.69,5.63-5.91,6.37-9.3,0,0,7.53,1.6,10.26-2.77S411,262.58,411,262.58Z" style="fill:#dd6a57"></path><path d="M405.38,285.07c3.43-1.52,4.11-6,5.07-9.26a.32.32,0,0,1,.48-.18c3.2.46,7.85.17,10.18-2.33a.08.08,0,0,1,.12.1c-2.13,3-6.68,3.68-10.15,3-.94,3.33-1.82,7.82-5.68,8.75C405.37,285.11,405.36,285.08,405.38,285.07Z" style="fill:#263238"></path><path d="M440.15,244.65a135.57,135.57,0,0,1-4,22.69l-26-9.15s6.63-16.82,6.79-19.59c.23-4-5.29-16.82-11-29.12-4.68-10-4.79-15.72,1.3-13.71a24.34,24.34,0,0,1,5.29,2.71c11.18,7.16,24.27,24.88,27.06,35.55A35.65,35.65,0,0,1,440.15,244.65Z" style="fill:#FFC727"></path><path d="M409.45,204.52a.47.47,0,1,1-.47-.46A.47.47,0,0,1,409.45,204.52Zm7.63-.46a.47.47,0,1,0,.47.46A.47.47,0,0,0,417.08,204.06Zm-12.15-6a.47.47,0,1,0,.47.47A.47.47,0,0,0,404.93,198Zm12.15,18.17a.47.47,0,1,0,.47.47A.47.47,0,0,0,417.08,216.21Zm8.1,0a.47.47,0,1,0,.47.47A.47.47,0,0,0,425.18,216.21Zm-12.15-6a.47.47,0,1,0,.47.46A.47.47,0,0,0,413,210.2Zm8.1,0a.47.47,0,1,0,.47.46A.47.47,0,0,0,421.13,210.2Zm-4.05,18.16a.47.47,0,1,0,.47.47A.47.47,0,0,0,417.08,228.36Zm8.1,0a.47.47,0,1,0,.47.47A.47.47,0,0,0,425.18,228.36Zm8.1,0a.47.47,0,1,0,.47.47A.47.47,0,0,0,433.28,228.36Zm-20.25-6a.47.47,0,1,0,.47.47A.47.47,0,0,0,413,222.35Zm8.1,0a.47.47,0,1,0,.47.47A.47.47,0,0,0,421.13,222.35Zm8.1,0a.47.47,0,1,0,0,.94.47.47,0,1,0,0-.94Zm-12.15,18.16a.47.47,0,1,0,.47.47A.47.47,0,0,0,417.08,240.51Zm8.1,0a.47.47,0,1,0,.47.47A.47.47,0,0,0,425.18,240.51Zm8.1,0a.47.47,0,1,0,.47.47A.47.47,0,0,0,433.28,240.51Zm-12.15-6a.47.47,0,1,0,.47.47A.47.47,0,0,0,421.13,234.5Zm8.1,0a.47.47,0,1,0,0,.94.47.47,0,1,0,0-.94Zm8.11,0a.47.47,0,1,0,.46.47A.47.47,0,0,0,437.34,234.5Zm-20.26,18.16a.47.47,0,1,0,.47.47A.47.47,0,0,0,417.08,252.66Zm8.1,0a.47.47,0,1,0,.47.47A.47.47,0,0,0,425.18,252.66Zm8.1,0a.47.47,0,1,0,.47.47A.47.47,0,0,0,433.28,252.66Zm-12.15-6a.47.47,0,1,0,.47.47A.47.47,0,0,0,421.13,246.65Zm8.1,0a.47.47,0,1,0,0,.94.47.47,0,1,0,0-.94Zm8.11,0a.47.47,0,1,0,.46.47A.47.47,0,0,0,437.34,246.65Zm-4.06,18.17a.47.47,0,1,0,.47.47A.47.47,0,0,0,433.28,264.82Zm-12.15-6a.47.47,0,1,0,.47.47A.47.47,0,0,0,421.13,258.8Zm8.1,0a.47.47,0,0,0,0,.94.47.47,0,0,0,0-.94Zm8.11,0a.47.47,0,1,0,.46.47A.47.47,0,0,0,437.34,258.8Z" style="fill:#fff"></path><path d="M440.15,244.65a135.57,135.57,0,0,1-4,22.69l-26-9.15s6.63-16.82,6.79-19.59c.23-4-5.29-16.82-11-29.12-4.68-10-4.79-15.72,1.3-13.71Z" style="fill:#263238"></path><path d="M404.48,196.78c-.14.83-3.71,6.37-7.45,6.42-1.22,0-1.61-6.63-1.61-6.63l-.14-.49-2-6.78,7.76-5.68,1.13-.76s.41,1.89.9,4.25a3.4,3.4,0,0,1,.07.34,3,3,0,0,1,.09.38c.08.35.16.71.23,1.07s.11.54.15.83.1.57.16.86A43.92,43.92,0,0,1,404.48,196.78Z" style="fill:#dd6a57"></path><path d="M403.11,187.11a14.13,14.13,0,0,1-7.83,9l-2-6.78,7.76-5.68,1.13-.76S402.62,184.75,403.11,187.11Z" style="fill:#263238"></path><path d="M384.37,177.46c-2.88,12,4,15.25,6.62,15.75,2.38.46,10.47,2.17,14.58-9.52s-.59-16.84-5.92-18.41S387.25,165.4,384.37,177.46Z" style="fill:#dd6a57"></path><path d="M385.38,175.44a8.12,8.12,0,0,0,.85-.07,1.33,1.33,0,0,0,.85-.24.43.43,0,0,0,.07-.53,1.09,1.09,0,0,0-1-.39,1.59,1.59,0,0,0-1.07.44A.47.47,0,0,0,385.38,175.44Z" style="fill:#263238"></path><path d="M393.27,176.61c-.28-.07-.53-.18-.81-.27a1.38,1.38,0,0,1-.78-.43.44.44,0,0,1,.06-.53,1.09,1.09,0,0,1,1.1-.14,1.61,1.61,0,0,1,.94.67A.47.47,0,0,1,393.27,176.61Z" style="fill:#263238"></path><path d="M391,179.55s.06,0,0,.09c-.15.83-.18,1.8.54,2.19,0,0,0,.06,0,0C390.65,181.61,390.7,180.32,391,179.55Z" style="fill:#263238"></path><path d="M391.85,178.79c1.36.1,1.07,2.8-.19,2.72S390.71,178.71,391.85,178.79Z" style="fill:#263238"></path><path d="M392.37,179c.22.18.42.47.7.53s.61-.19.86-.44c0,0,0,0,0,0-.05.52-.31,1-.87,1s-.83-.48-.9-1C392.18,179.05,392.28,178.92,392.37,179Z" style="fill:#263238"></path><path d="M386.62,178.71s-.07,0-.07.07c-.06.84-.27,1.79-1.05,2,0,0,0,.05,0,0C386.44,180.79,386.7,179.52,386.62,178.71Z" style="fill:#263238"></path><path d="M386,177.76c-1.34-.24-1.72,2.46-.48,2.68S387.08,178,386,177.76Z" style="fill:#263238"></path><path d="M385.37,177.86c-.23.11-.48.34-.74.32s-.47-.34-.62-.65c0,0,0,0-.05,0-.08.52,0,1.08.49,1.25s.84-.25,1-.74C385.52,178,385.46,177.81,385.37,177.86Z" style="fill:#263238"></path><path d="M390.64,186c-.17.22-.32.52-.62.6a2.1,2.1,0,0,1-.93-.08s0,0,0,0a1.13,1.13,0,0,0,1.13.29.89.89,0,0,0,.54-.84C390.74,185.94,390.67,185.94,390.64,186Z" style="fill:#263238"></path><path d="M387.25,182.69s-.32,1.23-.39,1.82c0,.06.13.1.33.14h0a2.83,2.83,0,0,0,2.85-.72.06.06,0,0,0-.08-.09,4.28,4.28,0,0,1-2.65.42c0-.16.62-2.08.53-2.1a4.9,4.9,0,0,0-1.38.14c.6-2.58,1.61-5.05,2.16-7.63a.08.08,0,0,0-.15-.06,42.41,42.41,0,0,0-2.67,8.12C385.74,183.06,387,182.76,387.25,182.69Z" style="fill:#263238"></path><path d="M387.27,184.31a3.49,3.49,0,0,0,1.14,1.34,1.59,1.59,0,0,0,.92.25c.71,0,.86-.65.84-1.21a3.91,3.91,0,0,0-.13-.87A4.5,4.5,0,0,1,387.27,184.31Z" style="fill:#263238"></path><path d="M388.41,185.65a1.59,1.59,0,0,0,.92.25c.71,0,.86-.65.84-1.21A1.63,1.63,0,0,0,388.41,185.65Z" style="fill:#ff98b9"></path><path d="M405.36,183.29c-1.33-.27-4.3-4.46-3.49-10.95,0,0-.33,5.88,0,6.8s-1.66-2.36-1.08-7.6a21.31,21.31,0,0,1-5.75,2c-2.56.34-4.07.11-4.22-.1s3.64-.83,4.78-1.82c0,0-7,2.12-10,1.92-.35,0,.25-7.27,5.35-9.66s12.05,1.95,13.77,4.15c0,0,2.29.66,4.34,4.48S406.79,183.58,405.36,183.29Z" style="fill:#263238"></path><path d="M449.09,401.85l-19.44,3.88-12.72,2.54s-13.08-53.41-15.3-76.47c-2.09-21.87-5.19-56.41-1.06-87.87h24.62c2.09,3.65,12.3,16.66,6.92,37.35-.76,2.93,1,29.54,3.71,47.6C438.37,345.66,449.09,401.85,449.09,401.85Z" style="fill:#37474f"></path><path d="M429.65,405.73l-12.72,2.54s-13.08-53.41-15.3-76.47c-2.09-21.87-5.19-56.41-1.06-87.87h8.7C413.38,273.74,425.17,373.33,429.65,405.73Z" style="fill:#263238"></path><path d="M449.72,406.46q.48,3,.9,5.93c.17,1.2.33,2.37.49,3.5,1,7.28,1.56,12.9,1,13.4-1.71,1.54-52,10.37-53.89,10.1s-1.19-5.61.49-7.51c1-1.15,8-6,13.29-9.69l0,0c3.41-2.34,6.13-4.18,6.13-4.18L417,412.11l-5.42-26.77,33.67-5.8S447.69,393.37,449.72,406.46Z" style="fill:#ebebeb"></path><path d="M413.69,416.48c2.8-2,6.75-3.26,10.1-2.17.13,0,.06.23-.05.24a47,47,0,0,0-9.85,2.31A.22.22,0,0,1,413.69,416.48Z" style="fill:#263238"></path><path d="M413.22,413.72c2.79-2,6.75-3.25,10.09-2.16.13,0,.07.22,0,.24a47.72,47.72,0,0,0-9.86,2.3A.21.21,0,0,1,413.22,413.72Z" style="fill:#263238"></path><path d="M412.75,411c2.79-2,6.74-3.26,10.09-2.17.13,0,.07.23,0,.24a47.17,47.17,0,0,0-9.85,2.31A.21.21,0,0,1,412.75,411Z" style="fill:#263238"></path><path d="M412.27,408.22c2.79-2,6.75-3.26,10.09-2.17.13,0,.07.22,0,.24a47.11,47.11,0,0,0-9.86,2.31A.22.22,0,0,1,412.27,408.22Z" style="fill:#263238"></path><path d="M411.8,405.46c2.79-2,6.74-3.26,10.09-2.17.13,0,.07.23-.05.25a47.78,47.78,0,0,0-9.85,2.3A.21.21,0,0,1,411.8,405.46Z" style="fill:#263238"></path><path d="M452.58,429.51c-1.2,1.7-26.56,6.18-42.73,8.66-7.42,1.13-12.89,1.85-13.21,1.68-1-.56-.94-5.86,2.25-9.79,1.77-2.18,10.85-8.36,15-11.17l2.14-1.41-3.61-17-.78-3.68-.81-3.83c1.05,0,36.71-6.34,36.71-6.34s.25,1.5.64,3.94c.18,1.07.38,2.33.6,3.72C450.66,406.1,453.84,427.72,452.58,429.51Z" style="fill:#FFC727"></path><rect x="395.54" y="434.28" width="58.32" height="3.26" transform="translate(-67.89 78.5) rotate(-9.78)" style="fill:#263238"></rect><path d="M448.81,394.25l-36.36,6.19-.78-3.68,36.54-6.23C448.39,391.6,448.59,392.86,448.81,394.25Z" style="opacity:0.1"></path><path d="M413.92,418.89l-4.07,19.28c-7.42,1.13-12.89,1.85-13.21,1.68-1-.56-.94-5.86,2.25-9.79C400.66,427.88,409.74,421.7,413.92,418.89Z" style="fill:#263238"></path><path d="M413.26,280.16s-4.46,32.84-6.08,49.37c-.4,4.12-.88,50.6-.88,60.81v7.36c0,9.43,0,16.13,0,16.13H372.9s0-.31,0-.89c0-.32,0-.7,0-1.16s0-1,0-1.63c0-.36,0-.75,0-1.15,0-2.82-.1-6.71-.17-11.25,0-2.32-.07-4.81-.1-7.41-.25-20.22,6.86-129.29,13.75-146.4h35.87S428.08,264.05,413.26,280.16Z" style="fill:#37474f"></path><path d="M424.84,272.54c-2.66,1.49-5.31,3-8,4.51-1.31.74-2.65,1.43-4,2.14s-2.76,1.34-4.08,2.11a.08.08,0,0,0,.06.14,28,28,0,0,0,4.47-1.52,43.85,43.85,0,0,0,4.1-1.94,35.76,35.76,0,0,0,7.5-5.31C425,272.6,424.92,272.49,424.84,272.54Z" style="fill:#263238"></path><path d="M392.4,244.75a271.83,271.83,0,0,0-5.87,31.64c-1.33,10.75-2.21,21.58-3.18,32.37-2,21.72-3.67,43.48-4.16,65.29-.28,12.21-.05,24.44.72,36.62,0,.1.16.1.16,0-.65-21.67,0-43.39,1.43-65,.69-10.89,1.57-21.76,2.53-32.63s1.86-21.52,3-32.26a294.2,294.2,0,0,1,5.76-35.92A.18.18,0,1,0,392.4,244.75Z" style="fill:#263238"></path><path d="M406.24,417.64c0,2-.07,4.05-.13,6,0,1.21-.07,2.39-.11,3.53-.25,7.35-.64,13-1.28,13.37-1.94,1.24-53,1.39-54.81.8s-.22-5.73,1.75-7.32c1.21-1,8.9-4.59,14.74-7.29h0c3.76-1.73,6.75-3.08,6.75-3.08l-.16-6-.8-27.3h34.17S406.47,404.4,406.24,417.64Z" style="fill:#ebebeb"></path><path d="M369,421.39c3.09-1.49,7.21-2.06,10.32-.42.12.06,0,.23-.09.23a47.49,47.49,0,0,0-10.1.6A.22.22,0,0,1,369,421.39Z" style="fill:#263238"></path><path d="M369,418.6c3.09-1.49,7.21-2.07,10.32-.42.12.06,0,.23-.09.23a46.84,46.84,0,0,0-10.1.59A.21.21,0,0,1,369,418.6Z" style="fill:#263238"></path><path d="M369,415.8c3.09-1.49,7.21-2.06,10.32-.42.12.06,0,.24-.09.23a47.49,47.49,0,0,0-10.1.6A.22.22,0,0,1,369,415.8Z" style="fill:#263238"></path><path d="M369,413c3.09-1.49,7.21-2.07,10.32-.42.12.06,0,.23-.09.23a47.49,47.49,0,0,0-10.1.59A.21.21,0,0,1,369,413Z" style="fill:#263238"></path><path d="M369,410.21c3.09-1.48,7.21-2.06,10.32-.42.12.07,0,.24-.09.23a47.49,47.49,0,0,0-10.1.6A.22.22,0,0,1,369,410.21Z" style="fill:#263238"></path><path d="M407.49,397.7s0,1.43,0,3.76c0,1.08,0,2.35,0,3.77-.18,11.94-.71,34-2.27,35.61-2.14,2.15-56,1.4-56.88.68s.07-5.92,3.87-9.26c2.78-2.42,19.06-9.48,19.06-9.48l-.66-17.55-.15-3.77-.14-3.76C371.28,397.87,407.49,397.7,407.49,397.7Z" style="fill:#FFC727"></path><rect x="347.42" y="440.78" width="58.32" height="3.26" style="fill:#263238"></rect><path d="M407.46,401.46c0,1.08,0,2.35,0,3.77H370.53l-.15-3.77Z" style="opacity:0.1"></path><path d="M384.31,231,381,252.51l51.32-.34s-10.12-41-20.87-53.88c-3.94-4.72-11.94-3.63-16.06.85-4.31,4.69-12.61,15.24-13.66,21.11C380.83,225.42,384.31,231,384.31,231Z" style="fill:#FFC727"></path><path d="M393.25,204.52a.47.47,0,1,1-.47-.46A.47.47,0,0,1,393.25,204.52Zm7.63-.46a.47.47,0,1,0,.47.46A.47.47,0,0,0,400.88,204.06Zm8.1,0a.47.47,0,1,0,.47.46A.47.47,0,0,0,409,204.06Zm-12.15-6a.47.47,0,1,0,.47.47A.47.47,0,0,0,396.83,198Zm8.1,0a.47.47,0,1,0,.47.47A.47.47,0,0,0,404.93,198Zm-20.26,18.17a.47.47,0,1,0,.47.47A.47.47,0,0,0,384.67,216.21Zm8.11,0a.47.47,0,1,0,.47.47A.47.47,0,0,0,392.78,216.21Zm8.1,0a.47.47,0,1,0,.47.47A.47.47,0,0,0,400.88,216.21Zm8.1,0a.47.47,0,1,0,.47.47A.47.47,0,0,0,409,216.21Zm8.1,0a.47.47,0,1,0,.47.47A.47.47,0,0,0,417.08,216.21Zm-28.35-6a.47.47,0,1,0,.46.46A.47.47,0,0,0,388.73,210.2Zm8.1,0a.47.47,0,1,0,.47.46A.47.47,0,0,0,396.83,210.2Zm8.1,0a.47.47,0,1,0,.47.46A.47.47,0,0,0,404.93,210.2Zm8.1,0a.47.47,0,1,0,.47.46A.47.47,0,0,0,413,210.2Zm-28.36,18.16a.47.47,0,1,0,.47.47A.47.47,0,0,0,384.67,228.36Zm8.11,0a.47.47,0,1,0,.47.47A.47.47,0,0,0,392.78,228.36Zm8.1,0a.47.47,0,1,0,.47.47A.47.47,0,0,0,400.88,228.36Zm8.1,0a.47.47,0,1,0,.47.47A.47.47,0,0,0,409,228.36Zm8.1,0a.47.47,0,1,0,.47.47A.47.47,0,0,0,417.08,228.36Zm8.1,0a.47.47,0,1,0,.47.47A.47.47,0,0,0,425.18,228.36Zm-36.45-6a.47.47,0,1,0,.46.47A.47.47,0,0,0,388.73,222.35Zm8.1,0a.47.47,0,1,0,.47.47A.47.47,0,0,0,396.83,222.35Zm8.1,0a.47.47,0,1,0,.47.47A.47.47,0,0,0,404.93,222.35Zm8.1,0a.47.47,0,1,0,.47.47A.47.47,0,0,0,413,222.35Zm8.1,0a.47.47,0,1,0,.47.47A.47.47,0,0,0,421.13,222.35Zm-36.46,18.16a.47.47,0,1,0,.47.47A.47.47,0,0,0,384.67,240.51Zm8.11,0a.47.47,0,1,0,.47.47A.47.47,0,0,0,392.78,240.51Zm8.1,0a.47.47,0,1,0,.47.47A.47.47,0,0,0,400.88,240.51Zm8.1,0a.47.47,0,1,0,.47.47A.47.47,0,0,0,409,240.51Zm8.1,0a.47.47,0,1,0,.47.47A.47.47,0,0,0,417.08,240.51Zm8.1,0a.47.47,0,1,0,.47.47A.47.47,0,0,0,425.18,240.51Zm-36.45-6a.47.47,0,1,0,.46.47A.47.47,0,0,0,388.73,234.5Zm8.1,0a.47.47,0,1,0,.47.47A.47.47,0,0,0,396.83,234.5Zm8.1,0a.47.47,0,1,0,.47.47A.47.47,0,0,0,404.93,234.5Zm8.1,0a.47.47,0,1,0,.47.47A.47.47,0,0,0,413,234.5Zm8.1,0a.47.47,0,1,0,.47.47A.47.47,0,0,0,421.13,234.5Zm-32.4,12.15a.47.47,0,1,0,.46.47A.47.47,0,0,0,388.73,246.65Zm8.1,0a.47.47,0,1,0,.47.47A.47.47,0,0,0,396.83,246.65Zm8.1,0a.47.47,0,1,0,.47.47A.47.47,0,0,0,404.93,246.65Zm8.1,0a.47.47,0,1,0,.47.47A.47.47,0,0,0,413,246.65Zm8.1,0a.47.47,0,1,0,.47.47A.47.47,0,0,0,421.13,246.65Zm8.1,0a.47.47,0,1,0,0,.94.47.47,0,1,0,0-.94Z" style="fill:#fff"></path><path d="M430.3,249.22c-1.49-.15-3-.13-4.5-.17l-4.6-.09c-3.07-.06-6.13-.1-9.2-.13-6.17-.06-12.35-.21-18.52,0-1.74.06-3.48.11-5.21.18s-3.48.22-5.22.26a.07.07,0,1,0,0,.14c1.57,0,3.15.07,4.73.09l4.48.05q4.59,0,9.2,0c6.13,0,12.25-.13,18.38-.16h5.22c1.73,0,3.49.07,5.21-.05C430.37,249.35,430.39,249.23,430.3,249.22Z" style="fill:#263238"></path><path d="M402.22,205.8c-3.47,5.65-17,19.52-27.07,22.21-8.83,2.34-30.2-6.6-36.9-10.28-2.51-1.37,4.8-22.56,7.68-21.53,3.87,1.38,24.43,13.2,26.61,12.49s18.58-8.07,22.42-9.87C403.7,194.72,407.43,197.31,402.22,205.8Z" style="fill:#dd6a57"></path><path d="M346.7,196.67s-11.15-5.93-13.47-7.27c-4.66-2.69-23.91-7.69-26.3-7.49s-4.76,4.85,11.1,10.64c0,0-3.41,7-1.33,10.17,1.34,2.08,6.67,9.7,9.15,10.66,2.81,1.09,12.4,4.35,12.4,4.35Z" style="fill:#dd6a57"></path><path d="M330.76,194.08c-.2,0-9.94-3-13.47-2.7s-6.12,5.21-6,6.54,2.05,9.58,5.58,9.32.93-6.51,1-7.25.15-1.69.82-1.67,12.75,4.7,12.75,4.7Z" style="fill:#dd6a57"></path><path d="M329.79,197.29c-.2,0-10-3-13.48-2.7s-6.12,5.21-6,6.55,2,9.57,5.58,9.31.93-6.51,1-7.25.14-1.69.81-1.67,12.75,4.7,12.75,4.7Z" style="fill:#dd6a57"></path><path d="M329.82,199.19c-.2.05-10.28-1.53-13.72-.69s-5.3,6-5,7.35,3.42,9.17,6.88,8.4,0-6.57-.06-7.32-.11-1.7.56-1.77,13.3,2.78,13.3,2.78Z" style="fill:#dd6a57"></path><path d="M331.74,202.39c-3.32-.64-7.08-1.64-10.58-1s-5.71,5.66-5.51,7,2.76,9.4,6.27,8.87.43-6.56.46-7.31,0-1.69.68-1.72,13.07,3.72,13.07,3.72Z" style="fill:#dd6a57"></path><path d="M328.19,191.35a15.2,15.2,0,0,0-5.39-.71,24.28,24.28,0,0,0-3.41.31,15.83,15.83,0,0,0-4.8,1.47c-.1.06-.12.18,0,.13a21.77,21.77,0,0,1,4.79-1c1.15-.12,2.3-.21,3.46-.27a38.59,38.59,0,0,1,5.37.16S328.22,191.36,328.19,191.35Z" style="fill:#263238"></path><path d="M328.05,194.54a46.91,46.91,0,0,0-9.27,0,10.75,10.75,0,0,0-4.43,1.25c-.63.35-2.7,1.73-3.14,2.64,0,.11.06.18.13.09a15.54,15.54,0,0,1,3.64-2.3,16.53,16.53,0,0,1,4.65-1.11,68.63,68.63,0,0,1,8.36-.4C328,194.68,328.37,194.56,328.05,194.54Z" style="fill:#263238"></path><path d="M327.46,197.78a61.51,61.51,0,0,0-9.36.86,8.64,8.64,0,0,0-4.55,2,9.45,9.45,0,0,0-2.51,4.2c0,.09.09.16.14.07a11.54,11.54,0,0,1,2.82-3.72,10.06,10.06,0,0,1,4.74-2,58.71,58.71,0,0,1,8.76-1.07C328,198,327.93,197.78,327.46,197.78Z" style="fill:#263238"></path><path d="M326.55,201.21c-1.19.23-4.34.86-5.5,1.16a7.39,7.39,0,0,0-3,1.19,9.33,9.33,0,0,0-1.77,2.32,7.06,7.06,0,0,0-1.1,2.78c-.27,2.25,1.64,3.91,2.7,5.68.05.08.18,0,.13-.09-.55-.92-1-1.9-1.47-2.87a4.54,4.54,0,0,1-.53-3,8.22,8.22,0,0,1,1.24-2.54,5.68,5.68,0,0,1,1.92-2.12,15.24,15.24,0,0,1,3-.92c1-.26,2.93-.76,3.95-1C328.23,201.29,328.83,200.77,326.55,201.21Z" style="fill:#263238"></path><path d="M332.38,210.8a21.61,21.61,0,0,1-5.55-.65,13.89,13.89,0,0,1-2.27-.89,6.3,6.3,0,0,1-2-1.38.08.08,0,0,0-.11.11,11.36,11.36,0,0,0,1.61,1.57,11.74,11.74,0,0,1-3.12,1.33c-.1,0-.06.15,0,.15a3.28,3.28,0,0,0,1,0,4.1,4.1,0,0,0,1-.36,6.78,6.78,0,0,0,1.36-.89,7.57,7.57,0,0,0,2.27,1,16.26,16.26,0,0,0,5.86.22A.06.06,0,0,0,332.38,210.8Z" style="fill:#263238"></path><path d="M344,193.57l-5.84,29.6s26.4,7.44,35.48,5.77,22.13-12.95,28.17-22,3.89-13.9-8.19-8.63-20,8.1-21.24,8.31S344,193.57,344,193.57Z" style="fill:#FFC727"></path><path d="M344.64,204.52a.47.47,0,1,1-.47-.46A.47.47,0,0,1,344.64,204.52Zm7.63-.46a.47.47,0,1,0,.47.46A.47.47,0,0,0,352.27,204.06Zm8.1,0a.47.47,0,1,0,.47.46A.47.47,0,0,0,360.37,204.06Zm24.3,0a.47.47,0,1,0,.47.46A.47.47,0,0,0,384.67,204.06Zm8.11,0a.47.47,0,1,0,.47.46A.47.47,0,0,0,392.78,204.06Zm8.1,0a.47.47,0,1,0,.47.46A.47.47,0,0,0,400.88,204.06Zm-52.66-6a.47.47,0,1,0,.47.47A.47.47,0,0,0,348.22,198Zm48.61,0a.47.47,0,1,0,.47.47A.47.47,0,0,0,396.83,198Zm8.1,0a.47.47,0,1,0,.47.47A.47.47,0,0,0,404.93,198Zm-60.76,18.17a.47.47,0,1,0,.47.47A.47.47,0,0,0,344.17,216.21Zm8.1,0a.47.47,0,1,0,.47.47A.47.47,0,0,0,352.27,216.21Zm8.1,0a.47.47,0,1,0,.47.47A.47.47,0,0,0,360.37,216.21Zm8.1,0a.47.47,0,1,0,.47.47A.47.47,0,0,0,368.47,216.21Zm8.1,0a.47.47,0,1,0,.47.47A.47.47,0,0,0,376.57,216.21Zm8.1,0a.47.47,0,1,0,.47.47A.47.47,0,0,0,384.67,216.21Zm8.11,0a.47.47,0,1,0,.47.47A.47.47,0,0,0,392.78,216.21Zm-44.56-6a.47.47,0,1,0,.47.46A.47.47,0,0,0,348.22,210.2Zm8.1,0a.47.47,0,1,0,.47.46A.47.47,0,0,0,356.32,210.2Zm8.1,0a.47.47,0,1,0,.47.46A.47.47,0,0,0,364.42,210.2Zm8.1,0a.47.47,0,1,0,.47.46A.47.47,0,0,0,372.52,210.2Zm8.1,0a.47.47,0,1,0,.47.46A.47.47,0,0,0,380.62,210.2Zm8.11,0a.47.47,0,1,0,.46.46A.47.47,0,0,0,388.73,210.2Zm8.1,0a.47.47,0,1,0,.47.46A.47.47,0,0,0,396.83,210.2Zm-28.36,18.16a.47.47,0,1,0,.47.47A.47.47,0,0,0,368.47,228.36Zm-28.35-6a.47.47,0,1,0,.46.47A.47.47,0,0,0,340.12,222.35Zm8.1,0a.47.47,0,1,0,.47.47A.47.47,0,0,0,348.22,222.35Zm8.1,0a.47.47,0,1,0,.47.47A.47.47,0,0,0,356.32,222.35Zm8.1,0a.47.47,0,1,0,.47.47A.47.47,0,0,0,364.42,222.35Zm8.1,0a.47.47,0,1,0,.47.47A.47.47,0,0,0,372.52,222.35Zm8.1,0a.47.47,0,1,0,.47.47A.47.47,0,0,0,380.62,222.35Z" style="fill:#fff"></path><path d="M348.78,199c-.58,4.14-1.31,8.24-2.28,12.31-.47,2-1,4-1.58,6A60.25,60.25,0,0,1,343,223a0,0,0,0,1-.06,0c.35-2.06.89-4.12,1.36-6.16s.94-3.94,1.41-5.9c1-4,2-8,2.93-12C348.65,198.81,348.8,198.85,348.78,199Zm47,18.16c-2.37,1.29-4.75,2.67-7,4.12s-4.4,3.18-6.57,4.86a.08.08,0,0,0,.08.13c2.29-1.46,4.64-2.8,6.89-4.35l.78-.54c.58-.16,1.16-.36,1.74-.55a13,13,0,0,0,1.31-.49,11.16,11.16,0,0,1,1.34-.56.08.08,0,0,0-.05-.15c-.46.14-.94.22-1.41.32a8.93,8.93,0,0,0-1.34.39l-.23.08,4.54-3.18A0,0,0,0,0,395.82,217.11Z" style="fill:#263238"></path><path d="M401.05,181.48s3.24-3.43,4.83-2.22-1.24,6.46-3.39,6.92a2.1,2.1,0,0,1-2.61-1.53Z" style="fill:#dd6a57"></path><path d="M405,180.75s0,.05,0,.05a5.29,5.29,0,0,0-3.2,2.88,1.16,1.16,0,0,1,1.76-.06s0,.09-.05.07a1.29,1.29,0,0,0-1.47.24,6.41,6.41,0,0,0-.84,1c-.09.12-.31,0-.24-.12l0,0C401.25,183,403.05,180.64,405,180.75Z" style="fill:#263238"></path></g><g id="freepik--character-1--inject-27"><path d="M147.48,435.14c-1.8.61-53.46.79-55.44-.44-.75-.47-1.21-8-1.52-17.1-.06-2-.12-4-.17-6.06L86.17,384l34.53-.22L124,411.33l-.13,6.06s19.81,8.78,21.83,10.37S149.28,434.53,147.48,435.14Z" style="fill:#ad6359"></path><path d="M147.48,435.14c-1.8.61-53.46.79-55.44-.44-.91-.58-1.41-11.56-1.69-23.16l33.61-.21-.13,6.06s19.81,8.78,21.83,10.37S149.28,434.53,147.48,435.14Z" style="fill:#fff"></path><path d="M147.48,435.14c-1.8.61-53.46.79-55.44-.44-.75-.47-1.21-8-1.52-17.1l33.31-.21s19.81,8.78,21.83,10.37S149.28,434.53,147.48,435.14Z" style="fill:#FFC727"></path><path d="M146.73,433.08c-8.66-.18-43.61-.1-52.18.38-.07,0-.07.05,0,.05,8.58.37,43.52,0,52.18-.29C146.91,433.21,146.91,433.08,146.73,433.08Z" style="fill:#263238"></path><path d="M142.33,425.91a7,7,0,0,0-5.18,2.13,6.74,6.74,0,0,0-1.91,4.63c0,.05.09.06.1,0a8,8,0,0,1,7-6.65C142.4,426,142.4,425.91,142.33,425.91Z" style="fill:#263238"></path><path d="M127.19,418.24c-3.47,0-7.48,1.2-9.62,4-.09.11.07.23.17.18a47.65,47.65,0,0,1,9.51-3.79A.22.22,0,0,0,127.19,418.24Z" style="fill:#263238"></path><path d="M129.87,419.27c-3.47,0-7.48,1.2-9.63,4.05-.08.11.08.22.18.17a47.65,47.65,0,0,1,9.51-3.79A.22.22,0,0,0,129.87,419.27Z" style="fill:#263238"></path><path d="M132.55,420.31c-3.47,0-7.48,1.2-9.63,4-.08.11.08.23.18.17a48.25,48.25,0,0,1,9.51-3.79A.21.21,0,0,0,132.55,420.31Z" style="fill:#263238"></path><path d="M135.23,421.34c-3.47,0-7.48,1.2-9.63,4-.08.11.08.23.18.18a47.65,47.65,0,0,1,9.51-3.79A.22.22,0,0,0,135.23,421.34Z" style="fill:#263238"></path><path d="M96.73,425.22c-3.89,0-3.86,6.07,0,6S100.62,425.2,96.73,425.22Z" style="fill:#263238"></path><path d="M130.9,409c-1.76-1.45-4,0-5,1.49a18.3,18.3,0,0,0-3.12,8.88.09.09,0,0,0,.11.09.43.43,0,0,0,.63.28c2.46-1.71,5.3-3.24,7.16-5.66C131.73,412.65,132.57,410.35,130.9,409Zm-4.22,7.38c-1.19.87-2.42,1.68-3.58,2.6a54.78,54.78,0,0,1,1.94-5.14,17.7,17.7,0,0,1,1.26-2.35c.74-1.14,4.14-4.05,4.49-.28C131,413.26,128.09,415.32,126.68,416.36Z" style="fill:#263238"></path><path d="M114.14,420.66c3,.45,6.13-.42,9.09-.89.31,0,.37-.4.26-.63a.1.1,0,0,0,0-.15,18.32,18.32,0,0,0-8.4-4.23c-1.83-.34-4.41.16-4.67,2.42S112.37,420.4,114.14,420.66Zm-2.1-2c-2.36-3,2.1-3.22,3.44-2.92a20.18,20.18,0,0,1,2.53.82,53.56,53.56,0,0,1,5,2.36c-1.47.15-2.92.41-4.38.61C116.85,419.8,113.34,420.33,112,418.7Z" style="fill:#263238"></path><path d="M127.09,408.94l-41.73.75s-5.68-36.92-9.42-59.9c-1.41-8.63-2.53-15.29-3-17.3-1.08-4.79-22.23-80.83-22.23-80.83l30.34,0H91.43s-.66,12.71-.27,14.05c5.41,18.4,16.47,51,19.92,62.41C116.38,345.57,127.09,408.94,127.09,408.94Z" style="fill:#455a64"></path><path d="M123.3,402.54c-6,0-27.23-.28-35.21.47-.06,0-.06.1,0,.11,2.75.39,29.22-.22,35.21-.41A.09.09,0,0,0,123.3,402.54Z" style="fill:#263238"></path><path d="M86,371.08q-2.16-14.32-4.82-28.57c-.88-4.67-1.83-9.33-3-13.93s-2.77-9.21-4.34-13.76c-3.12-9-6.12-18.12-8.9-27.27S59.51,269.21,57.08,260c-.3-1.17-.61-2.34-.95-3.51,0-.1-.17,0-.15.05,1,4.66,2.18,9.27,3.36,13.87s2.44,9.2,3.76,13.77q4,13.78,8.63,27.35c1.54,4.51,3.15,9,4.52,13.57s2.44,9.19,3.39,13.85c1.92,9.45,3.56,19,5.09,28.5s2.81,19.17,4.09,28.79l.48,3.65c0,.35.58.34.54,0C88.81,390.23,87.49,380.64,86,371.08Z" style="fill:#263238"></path><path d="M81.07,251.62l-5.13,98.17c-1.41-8.63-2.53-15.29-3-17.3-1.08-4.79-22.23-80.83-22.23-80.83Z" style="fill:#263238"></path><path d="M94.06,443.92c-1.82.56-54.8-.87-56.75-2.16a.78.78,0,0,1-.2-.31c-.58-1.59.54-8.32.48-16.58,0-.15.12-2.75.29-6.43.46-9.61,1.28-26.59,1.28-26.59l34.55.71-2.29,26.76-.53,6.22s19.57,9.31,21.54,10.94S95.88,443.36,94.06,443.92Z" style="fill:#ad6359"></path><path d="M94.06,443.92c-1.82.56-54.8-.87-56.75-2.16a.78.78,0,0,1-.2-.31c-.58-1.59.54-8.32.48-16.58,0-.15.12-2.75.29-6.43l33.54.88-.53,6.22s19.57,9.31,21.54,10.94S95.88,443.36,94.06,443.92Z" style="fill:#fff"></path><path d="M94.06,443.92c-1.82.56-54.8-.87-56.75-2.16-.73-.49-1-7.54.28-16.89l33.3.67s19.57,9.3,21.55,10.95S95.88,443.35,94.06,443.92Z" style="fill:#FFC727"></path><path d="M93.37,441.83c-8.65-.41-43.59-1.25-52.18-1-.07,0-.07.05,0,.05,8.57.6,43.51,1.16,52.17,1.1C93.55,442,93.55,441.84,93.37,441.83Z" style="fill:#263238"></path><path d="M89.16,434.55a7,7,0,0,0-5.23,2,6.74,6.74,0,0,0-2,4.57c0,.06.09.06.1,0a8,8,0,0,1,7.16-6.47A.06.06,0,0,0,89.16,434.55Z" style="fill:#263238"></path><path d="M74.23,426.48c-3.47-.13-7.51,1-9.73,3.79-.09.11.07.23.17.18a47.55,47.55,0,0,1,9.61-3.54A.22.22,0,0,0,74.23,426.48Z" style="fill:#263238"></path><path d="M76.88,427.59c-3.47-.13-7.51,1-9.73,3.78-.09.11.07.23.17.18A48.16,48.16,0,0,1,76.93,428,.21.21,0,0,0,76.88,427.59Z" style="fill:#263238"></path><path d="M79.53,428.69c-3.47-.13-7.51,1-9.73,3.79-.09.11.07.23.17.18a47.55,47.55,0,0,1,9.61-3.54A.22.22,0,0,0,79.53,428.69Z" style="fill:#263238"></path><path d="M82.18,429.8c-3.46-.13-7.51,1-9.73,3.78-.08.11.07.23.17.18a48.16,48.16,0,0,1,9.61-3.54A.21.21,0,0,0,82.18,429.8Z" style="fill:#263238"></path><path d="M43.59,432.66c-3.89-.08-4,6-.12,6S47.48,432.73,43.59,432.66Z" style="fill:#263238"></path><path d="M78.18,417.32c-1.72-1.49-4-.12-5.07,1.36a18.28,18.28,0,0,0-3.36,8.79.09.09,0,0,0,.11.1.43.43,0,0,0,.62.3c2.5-1.65,5.39-3.11,7.31-5.48C78.92,421,79.81,418.74,78.18,417.32Zm-4.42,7.27c-1.21.84-2.46,1.62-3.64,2.5.66-1.71,1.24-3.44,2.07-5.09a21.16,21.16,0,0,1,1.32-2.31c.78-1.12,4.25-3.94,4.51-.16C78.16,421.61,75.21,423.59,73.76,424.59Z" style="fill:#263238"></path><path d="M61.11,428.56c3,.53,6.14-.26,9.12-.65a.42.42,0,0,0,.27-.62.09.09,0,0,0,0-.15,18.29,18.29,0,0,0-8.29-4.46c-1.82-.39-4.41,0-4.73,2.3S59.36,428.25,61.11,428.56Zm-2-2c-2.28-3,2.19-3.17,3.51-2.82a19.62,19.62,0,0,1,2.51.88,54.94,54.94,0,0,1,4.9,2.49c-1.48.11-2.93.34-4.39.49C63.85,427.77,60.32,428.21,59.07,426.54Z" style="fill:#263238"></path><path d="M75.27,416.68H34.42S43.29,290.09,41.86,283c-2.35-11.62-.78-25,4.71-31.38H82.9s.72,10.19-3,16.28c0,0-3.41,2.16-5.06,3.11Z" style="fill:#455a64"></path><path d="M71.44,410.08c-5.65-.15-4-.19-9.68-.27-2.77,0-21-.3-23.55.12a.06.06,0,0,0,0,.11c2.58.44,20.78.38,23.54.37,5.66,0,4-.08,9.69-.17A.08.08,0,1,0,71.44,410.08Z" style="fill:#263238"></path><path d="M82.13,266.26a70.32,70.32,0,0,0-10.21,6.05.12.12,0,1,0,.13.2c3.45-1.91,7-3.76,10.33-5.86C82.64,266.49,82.41,266.13,82.13,266.26Z" style="fill:#263238"></path><path d="M77.51,265.74a15.78,15.78,0,0,0-.49,2.14,4.41,4.41,0,0,0-.11,1.73c0,.11.17.11.23,0a6,6,0,0,0,.56-1.73c.17-.67.36-1.33.52-2A.36.36,0,0,0,77.51,265.74Z" style="fill:#263238"></path><path d="M77.18,262.24c.1-.61.2-1.22.31-1.82s.27-1.25.33-1.89c0-.09.17-.07.16,0-.1.6-.11,1.23-.16,1.84s-.11,1.23-.17,1.85a33.49,33.49,0,0,1-.54,3.43,4,4,0,0,0,1.67-.7,3.18,3.18,0,0,0,.9-1.74c.18-.7.33-1.4.52-2.09a13.32,13.32,0,0,0,.53-2.33c0-.1.17-.07.15,0a24.9,24.9,0,0,1-.92,4.9,2.71,2.71,0,0,1-.91,1.62,5.35,5.35,0,0,1-2,.6c-.08,0-.2,0-.19-.1C76.89,264.67,77,263.43,77.18,262.24Z" style="fill:#263238"></path><path d="M47.76,282.52c-.26-2.67-.7-5.32-1-8a49.39,49.39,0,0,1,1-16c0-.1-.14-.14-.16,0a59.25,59.25,0,0,0-1.42,14c.23,4.7,1.06,9.35,1.14,14.07s-.3,9.55-.61,14.32-.61,9.59-.92,14.38c-1.24,19.28-2.39,38.56-3.56,57.84-.33,5.38-.63,10.76-.94,16.15s-.7,10.95-.91,16.43c0,.48.69.44.73,0,.82-9.68,1.3-19.39,1.91-29.07s1.17-19.18,1.76-28.77,1.16-19.18,1.73-28.77q.43-7.2.83-14.39c.28-4.77.63-9.55.7-14.34A71.36,71.36,0,0,0,47.76,282.52Z" style="fill:#263238"></path><path d="M60.62,258.21a.09.09,0,0,0-.15,0,6.66,6.66,0,0,0-.34,2,14.06,14.06,0,0,1-.5,2.11,8.27,8.27,0,0,1-2.18,3.66c-2.28,2.14-5.34,2.94-8.3,3.66-.11,0-.07.17,0,.18a13.3,13.3,0,0,0,5.15-.8,10.76,10.76,0,0,0,4-2.23,7.42,7.42,0,0,0,2.15-3.88,13.4,13.4,0,0,0,.24-2.36c0-.37,0-.75,0-1.13A3,3,0,0,0,60.62,258.21Z" style="fill:#263238"></path><path d="M76.47,200.89c3.73,4.63,22.92,19.74,39.72,17.65,7-.86,11.16-17,12.08-22.91,1.64-10.56,4-32.79,0-31.83-5,1.19-17.14,35.82-20.71,36.16-5.73.54-15.27-3.6-27.33-5.3C74,193.78,73.59,197.33,76.47,200.89Z" style="fill:#ad6359"></path><path d="M76.56,202.62c4.61,6,19.29,15.37,19.29,15.37l1.69-4.44,5.58-14.69S90,195.58,81.35,194.29a18.8,18.8,0,0,0-3.06-.25C72.84,194.08,72.58,197.46,76.56,202.62Z" style="fill:#FFC727"></path><path d="M76.56,202.62c4.61,6,19.29,15.37,19.29,15.37l1.69-4.44c-5.62-5.77-14.27-14.49-19.25-19.51C72.84,194.08,72.58,197.46,76.56,202.62Z" style="fill:#263238"></path><path d="M93.14,215.26c.91-2.7,5-13.58,6.08-15.88.08-.16.19-.15.14,0a160,160,0,0,1-6.11,15.89C93.22,215.35,93.12,215.33,93.14,215.26Z" style="fill:#263238"></path><path d="M140.32,165.54c1,2.58-2.62,2.24-2.62,2.24s5,1.73,5,4.77-4.36,2.36-4.67,2.32c.27.1,4.86,1.81,4.51,4.86s-4.6,1.86-4.87,1.77c.22.17,3.13,2.43,2.34,4.69-1.36,3.87-9-1.71-12.23-1.07l.48,5.3c0,.17,0,.35-.05.52l-2.69.37a35.51,35.51,0,0,0-2.77-4.75c-1.25-1.93-2.39-3.8-2.51-5.23a3,3,0,0,1,1.8-3.12s-2.55-1.4-2.36-3.81c.11-1.24,2.18-2.17,2.18-2.17a3.6,3.6,0,0,1-1.69-3.34c.25-1.7,2.29-2.37,2.29-2.37s-1.38-2.05-.57-3.71C123.53,159.47,138.26,160,140.32,165.54Z" style="fill:#ad6359"></path><path d="M127.56,185.82l.71,4.6c0,.17,0,.35-.05.52-.7,5.91-7.16,9.95-7.9,5.75-.56-3.2,3.49-6.94,2.43-10.13h0Z" style="fill:#ad6359"></path><path d="M122.77,166.37a0,0,0,0,1,0-.08,25.57,25.57,0,0,1,15.14,1.49c.15.06.1.34-.08.29A52.65,52.65,0,0,0,122.77,166.37Z" style="fill:#263238"></path><path d="M121.8,172.2c-.06,0-.06-.09,0-.1a23.94,23.94,0,0,1,16.41,2.64c.17.11.22.37,0,.27C134.76,173.26,126.56,172,121.8,172.2Z" style="fill:#263238"></path><path d="M138,181.83c-4.89-2.7-10.16-3.56-15.69-3.67-.08,0-.07-.11,0-.12,2.73-.69,6.25-.25,9,.32a14.82,14.82,0,0,1,6.84,3.3C138.12,181.73,138.06,181.89,138,181.83Z" style="fill:#263238"></path><path d="M128.26,187.71c-.18-.93-.31-1.81-.47-2.73,0-.09-.15-.06-.15,0,0,1.32.15,2.6.19,3.92a11.68,11.68,0,0,1-.55,4,9.1,9.1,0,0,1-1.69,3.08,4.84,4.84,0,0,1-3.15,2,2,2,0,0,1-2-2.29,8.07,8.07,0,0,1,1.36-3.36,12.34,12.34,0,0,0,1.42-3.56,5,5,0,0,0-.65-3.24c-.35-.69-.71-1.38-1.07-2.06a8.56,8.56,0,0,1-.81-1.8,3.09,3.09,0,0,1,1.49-3.44c.11,0,0-.2-.06-.14a4.25,4.25,0,0,0-2.21,2.35,4.13,4.13,0,0,0,.59,3.37c.37.69.74,1.38,1.1,2.07a4.36,4.36,0,0,1,.73,2.33,12,12,0,0,1-1.78,4.42,6.06,6.06,0,0,0-1,3.69,2.77,2.77,0,0,0,2,2.41c2.6.7,4.93-2.15,5.92-4.2a10.49,10.49,0,0,0,1-4.51A13.06,13.06,0,0,0,128.26,187.71Z" style="fill:#263238"></path><path d="M132.2,186a7.16,7.16,0,0,0-1.78-.81,8.48,8.48,0,0,0-1.93-.39,5,5,0,0,0-1.81.15,3.31,3.31,0,0,0-1.42.91.08.08,0,0,0,.08.13,12,12,0,0,1,1.56-.32,10.37,10.37,0,0,1,1.67-.15,9.72,9.72,0,0,1,1.78.21c.6.12,1.19.32,1.79.4A.07.07,0,0,0,132.2,186Z" style="fill:#263238"></path><path d="M121.93,178l-.27-.18a4.91,4.91,0,0,1-.48-.43c-.16-.17-.32-.33-.46-.5a3.08,3.08,0,0,0-.24-.26l-.13-.13-.12-.18c0-.09-.19,0-.13.08a1.88,1.88,0,0,1,.12.18c0,.06,0,.12.07.18a3.54,3.54,0,0,0,.16.34,3.14,3.14,0,0,0,.45.63,1.61,1.61,0,0,0,.59.41.91.91,0,0,0,.33.1.54.54,0,0,0,.31,0,0,0,0,0,0,0-.06A.83.83,0,0,0,121.93,178Z" style="fill:#263238"></path><path d="M92.05,258.84c-.91.8-13.16,1.11-25.65,1.1-4.73,0-9.51-.06-13.72-.15-7.67-.16-11.86-.36-12.09-.72-.65-1,9.35-34.71,15.83-47.12,4.12-7.88,7.3-11.87,9.9-14.13,1.58-1.36,2.13-2.13,3.35-2.7.65-.3,1.26-.55,1.85-.84,3-1.43,11.15-.05,12.43.63,1.46.75,5.45,8.42,6.26,14.66S92.84,258.13,92.05,258.84Z" style="fill:#FFC727"></path><path d="M41.45,254.67H92.24c0-1.32,0-2.9-.07-4.67H42.73Z" style="opacity:0.1"></path><path d="M66.37,203.93c-.89,8.84,10.62,37.62,17.08,42.69,9.61,7.54,30.63,12.7,36.81,14,2.69.58,6.92-22.18,4.06-22.85-6.28-1.46-26.13-4.14-27.9-5.45s-13-15.26-18.14-23.41C71.39,198,66.82,199.45,66.37,203.93Z" style="fill:#ad6359"></path><path d="M135.85,260c1.59-2.24-2-2.83-2-2.83s5.32-.38,6.06-3.33-3.6-3.4-3.91-3.44c.28,0,5.16-.5,5.6-3.54s-4-3-4.25-3c.26-.11,3.66-1.55,3.47-3.93-.32-4.1-10.09-.77-13.08-2.22v-5.45a28.76,28.76,0,0,1-3.63,3.39c-1.7,1.55-3.16,2.55-3.64,3.9a3,3,0,0,0,.93,3.47s-2.83.71-3.25,3.08c-.22,1.23,1.55,2.66,1.55,2.66a3.59,3.59,0,0,0-2.49,2.79c-.2,1.71,1.6,2.88,1.6,2.88s-1.86,1.63-1.5,3.44C118.06,261.53,132.44,264.76,135.85,260Z" style="fill:#ad6359"></path><path d="M119.1,254.67s-.07.05,0,.07a25.55,25.55,0,0,0,15,2.45c.16,0,.19-.3,0-.31A52.49,52.49,0,0,1,119.1,254.67Z" style="fill:#263238"></path><path d="M119.66,248.78c-.06,0-.09.07,0,.1a23.89,23.89,0,0,0,16.54,1.65c.19-.05.31-.29.08-.25C132.45,251.09,124.2,250.22,119.66,248.78Z" style="fill:#263238"></path><path d="M137.74,243.62c-5.42,1.35-10.73.84-16.11-.48-.07,0-.09.08,0,.11,2.45,1.36,6,1.85,8.74,2a14.7,14.7,0,0,0,7.45-1.43C137.88,243.76,137.86,243.59,137.74,243.62Z" style="fill:#263238"></path><path d="M75,204c-7.75-9.46-11.69-5.47-9.52,5.24A174.57,174.57,0,0,0,71.91,231l17.16-9.86Z" style="fill:#FFC727"></path><path d="M77.57,206.8c1,1.23,2.11,2.44,3.18,3.65-.3-.63-.56-1.27-.8-1.92,0,0,0-.05,0,0,.23.49.49,1,.71,1.48.11.25.22.49.34.72a.77.77,0,0,0,.07.16c.83.94,1.66,1.89,2.46,2.85,1,1.16,1.89,2.33,2.82,3.51s1.9,2.65,2.91,3.82c.09.1-1.52.88-1.67,1s-.27-.05-.1-.11,1.4-.95,1.42-1c-.94-1.18-2-2.26-3-3.42s-1.94-2.29-2.88-3.46c-1.91-2.37-3.69-4.85-5.59-7.24C77.5,206.8,77.55,206.77,77.57,206.8Z" style="fill:#263238"></path><path d="M66.42,216.32c.31.51.64,1,.92,1.53.11.22.22.44.34.65q-.81-2.83-1.61-5.69s0,0,0,0c1,3.06,2.08,6.12,3,9.2a90.46,90.46,0,0,1,2.65,8.93,10.08,10.08,0,0,1,1.63-.68,8.42,8.42,0,0,1-1.77,1,93.48,93.48,0,0,1-3-9.27c-.26-.85-.5-1.7-.74-2.56-.24-.5-.52-1-.79-1.48s-.53-1.06-.79-1.6C66.36,216.32,66.41,216.29,66.42,216.32Z" style="fill:#263238"></path><path d="M72,228c2.37-1.57,12.31-7.63,14.55-8.8.15-.08.24,0,.09.1a157.51,157.51,0,0,1-14.57,8.79C72,228.15,71.92,228.06,72,228Z" style="fill:#263238"></path><path d="M82.18,202.64c-2.92.43-7.47-4.37-9.11-8.09a58.08,58.08,0,0,1,1.05-5.91c.34-1.89.68-4,.85-6,0-.4,1.33.45,1.33.45l2.47.83L87,186.7a31.31,31.31,0,0,0-1.82,7.4,4.21,4.21,0,0,0,0,.8V195C85.27,196.58,85,202.22,82.18,202.64Z" style="fill:#ad6359"></path><path d="M85.15,194.9V195a7.79,7.79,0,0,1-1.26,0c-8.23-.89-8.36-11.46-8.36-11.46l3.24.42L87,186.7a31.31,31.31,0,0,0-1.82,7.4A4.21,4.21,0,0,0,85.15,194.9Z" style="fill:#263238"></path><path d="M72.4,170.52c-1,4.44,2.13,16.84,5.42,19.42,4.76,3.75,12.12,3.64,15.2-2,3-5.45-1.42-21.53-5-23.84C82.63,160.71,73.92,164,72.4,170.52Z" style="fill:#ad6359"></path><path d="M77.5,189.84h0" style="fill:none;stroke:#ff98b9;stroke-linecap:round;stroke-linejoin:round;stroke-width:0px"></path><path d="M85.28,177.86s0,.06,0,.09c.23.83.36,1.82-.33,2.28,0,0,0,.06,0,.05C85.82,179.92,85.64,178.61,85.28,177.86Z" style="fill:#263238"></path><path d="M84.32,177.17c-1.37.24-.8,3,.46,2.74S85.47,177,84.32,177.17Z" style="fill:#263238"></path><path d="M90.08,176.67s.07,0,.08.06c.15.85.46,1.8,1.28,1.92,0,0,0,0,0,0C90.49,178.76,90.08,177.5,90.08,176.67Z" style="fill:#263238"></path><path d="M90.65,175.63c1.33-.39,2,2.31.77,2.67S89.53,176,90.65,175.63Z" style="fill:#263238"></path><path d="M83,176.15a10.6,10.6,0,0,0,1-.59,1.88,1.88,0,0,0,.88-.79.59.59,0,0,0-.24-.68,1.43,1.43,0,0,0-1.46.15,2.11,2.11,0,0,0-1,1.16A.62.62,0,0,0,83,176.15Z" style="fill:#263238"></path><path d="M91.42,174a8.62,8.62,0,0,1-1.14-.06,1.87,1.87,0,0,1-1.16-.27A.59.59,0,0,1,89,173a1.45,1.45,0,0,1,1.37-.57,2.11,2.11,0,0,1,1.44.54A.62.62,0,0,1,91.42,174Z" style="fill:#263238"></path><path d="M85.79,185.56c.24.16.5.39.81.35a2.33,2.33,0,0,0,.86-.4s.06,0,.05,0a1.15,1.15,0,0,1-1,.68.91.91,0,0,1-.82-.6C85.69,185.57,85.75,185.54,85.79,185.56Z" style="fill:#263238"></path><path d="M86.15,182.85a2.9,2.9,0,0,0,2.18.88,3.38,3.38,0,0,0,1-.17,1.17,1.17,0,0,0,.2-.06l.17-.07a.2.2,0,0,0,.13-.22h0a.24.24,0,0,0,0-.08h0l0-.07c-.12-.66-.39-1.63-.39-1.63.26.07,1.59.36,1.5,0A43.92,43.92,0,0,0,88,173a.08.08,0,0,0-.15.06c.62,2.69,1.71,5.26,2.37,8a4.89,4.89,0,0,0-1.44-.13c-.08,0,.56,1.87.58,2.17a0,0,0,0,1,0,0,4.07,4.07,0,0,1-3.17-.3C86.14,182.72,86.08,182.8,86.15,182.85Z" style="fill:#263238"></path><path d="M88.92,183.31a3.42,3.42,0,0,1-1.14,1.34,1.55,1.55,0,0,1-.92.26c-.71,0-.86-.65-.84-1.21a3.78,3.78,0,0,1,.13-.87A4.52,4.52,0,0,0,88.92,183.31Z" style="fill:#263238"></path><path d="M87.78,184.65a1.55,1.55,0,0,1-.92.26c-.71,0-.86-.65-.84-1.21A1.63,1.63,0,0,1,87.78,184.65Z" style="fill:#ff98b9"></path><path d="M90.78,168c-3.74,3.94-10.7.69-10.7.69a4.86,4.86,0,0,1-4.18,4.05s.73,7.6-1.22,8c-3,.62-6.08-9.28-5.56-11.47A5.42,5.42,0,0,1,72,166a5,5,0,0,1,1.39-3.38c1.7-2,9.17-1.4,9.17-1.4a6.67,6.67,0,0,1,1.27-2.81,1.88,1.88,0,0,1,2.7-.33,4.56,4.56,0,0,0-.32,2c.12,2.25,1.89,1.86,1.45-.1a3.14,3.14,0,0,0-1.13-1.88c.6-1.47,1.94-2.2,3-1.7C91.37,157.31,93.88,164.71,90.78,168Z" style="fill:#263238"></path><path d="M75.79,180.57s-3.19-3.8-4.94-2.63.9,6.86,3.13,7.47A2.2,2.2,0,0,0,76.82,184Z" style="fill:#ad6359"></path><path d="M71.65,179.55a0,0,0,0,0,0,.06,5.57,5.57,0,0,1,3.18,3.22,1.22,1.22,0,0,0-1.84-.17s0,.09,0,.08a1.35,1.35,0,0,1,1.53.34,6.23,6.23,0,0,1,.82,1.14c.08.12.32,0,.26-.12l0,0C75.48,182.13,73.74,179.56,71.65,179.55Z" style="fill:#263238"></path></g><g id="freepik--speech-bubble--inject-27"><path d="M420.75,166.4a12.12,12.12,0,0,1-2.08-6.7c0-8.5,9.33-15.39,20.84-15.39s20.82,6.89,20.82,15.39-9.32,15.38-20.82,15.38a25,25,0,0,1-14.37-4.25L418,172.65Z" style="fill:#fff"></path><path d="M418.07,172.7l-.14-.17,7.15-1.93.1,0,.09.06a24.42,24.42,0,0,0,12.55,4,27.73,27.73,0,0,0,6.63-.47,24,24,0,0,0,6.3-2,19.3,19.3,0,0,0,5.34-3.82,13.4,13.4,0,0,0,3.31-5.54,10.92,10.92,0,0,0-.09-6.38,13.44,13.44,0,0,0-3.39-5.49,21.76,21.76,0,0,0-11.69-5.75,27.82,27.82,0,0,0-13.16.84,18.82,18.82,0,0,0-10.51,7.71,12,12,0,0,0-1.76,6.34,12.3,12.3,0,0,0,1.95,6.34Zm.49-12.63a12.21,12.21,0,0,1,1.63-6.57,16.24,16.24,0,0,1,4.59-5,21.86,21.86,0,0,1,6.07-3.13,28.29,28.29,0,0,1,6.7-1.37,28.92,28.92,0,0,1,6.83.34,22.64,22.64,0,0,1,12.22,5.94,14.58,14.58,0,0,1,3.67,5.86,11.89,11.89,0,0,1,.06,6.94,14.35,14.35,0,0,1-3.58,5.92,20.15,20.15,0,0,1-5.62,4,27,27,0,0,1-13.35,2.44A24.82,24.82,0,0,1,425,171l.19,0-7.2,1.72-.25.06.11-.23,2.9-6.2A12.06,12.06,0,0,1,418.56,160.07Z" style="fill:#263238"></path><path d="M447,159.7a2.16,2.16,0,1,0,2.16-2.16A2.16,2.16,0,0,0,447,159.7Z" style="fill:#263238"></path><path d="M437.34,159.7a2.16,2.16,0,1,0,2.16-2.16A2.16,2.16,0,0,0,437.34,159.7Z" style="fill:#263238"></path><path d="M427.69,159.7a2.16,2.16,0,1,0,2.16-2.16A2.16,2.16,0,0,0,427.69,159.7Z" style="fill:#263238"></path></g></svg>