<svg xmlns="http://www.w3.org/2000/svg" viewBox="0 0 199.98 175.37"><defs><style>.cls-1{fill:#d7dad3;}.cls-2{fill:#fb0;}.cls-3{fill:#082551;}.cls-4{fill:#fff;}.cls-5{fill:#209f9f;}.cls-6{fill:#ff465a;}.cls-7{fill:#ff7e00;}.cls-8{opacity:0.3;}</style></defs><title>Asset 1</title><g id="Layer_2" data-name="Layer 2"><g id="OBJECTS"><path class="cls-1" d="M0,171.09a4.27,4.27,0,0,0,4.28,4.28H192.89a4.27,4.27,0,0,0,4.27-4.28h0a4.28,4.28,0,0,0-4.27-4.28H4.28A4.28,4.28,0,0,0,0,171.09Z"/><path class="cls-2" d="M143.7,140.22a2.76,2.76,0,0,0,2-.81l29.86-29.86a2.77,2.77,0,0,0-3.92-3.92l-29.86,29.86a2.77,2.77,0,0,0,2,4.73Z"/><path class="cls-3" d="M162.56,139.62a20.05,20.05,0,1,0,27.41-7.3A20.06,20.06,0,0,0,162.56,139.62Z"/><path class="cls-2" d="M158.57,158.78a1.52,1.52,0,0,0,.55-.1,1.66,1.66,0,0,0,1-2.12,21,21,0,0,1,30.31-25,1.66,1.66,0,0,0,1.67-2.87,24.27,24.27,0,0,0-35.12,29A1.66,1.66,0,0,0,158.57,158.78Z"/><path class="cls-4" d="M170.08,144a11.36,11.36,0,1,0,15.53-4.14A11.36,11.36,0,0,0,170.08,144Z"/><path class="cls-2" d="M179.36,150.63a1.11,1.11,0,0,0,1.52-.4l5.6-9.67a1.12,1.12,0,0,0-.41-1.52,1.11,1.11,0,0,0-1.51.41l-5.6,9.67A1.1,1.1,0,0,0,179.36,150.63Z"/><path class="cls-2" d="M183.31,161.8a1.12,1.12,0,0,0,.79-1.36l-2.88-10.8a1.11,1.11,0,0,0-1.36-.78,1.09,1.09,0,0,0-.78,1.35L182,161A1.12,1.12,0,0,0,183.31,161.8Z"/><path class="cls-2" d="M168,152.93a1.11,1.11,0,0,1,.78-1.36l10.8-2.88a1.11,1.11,0,0,1,.57,2.15l-10.8,2.87A1.09,1.09,0,0,1,168,152.93Z"/><path class="cls-3" d="M176.71,147.82a3.7,3.7,0,1,0,5.06-1.35A3.7,3.7,0,0,0,176.71,147.82Z"/><path class="cls-2" d="M178.33,148.75a1.84,1.84,0,1,0,2.51-.67A1.83,1.83,0,0,0,178.33,148.75Z"/><path class="cls-2" d="M169,143.37a12.59,12.59,0,1,0,17.2-4.59A12.59,12.59,0,0,0,169,143.37Zm2.19,1.26a10.06,10.06,0,1,1,3.67,13.75A10.06,10.06,0,0,1,171.21,144.63Z"/><path class="cls-3" d="M7,142.84a20.05,20.05,0,1,0,27.4-7.31A20,20,0,0,0,7,142.84Z"/><path class="cls-4" d="M14.5,147.19A11.36,11.36,0,1,0,30,143.05,11.38,11.38,0,0,0,14.5,147.19Z"/><path class="cls-2" d="M23.78,153.85a1.11,1.11,0,0,0,1.52-.41l5.59-9.67a1.1,1.1,0,0,0-.4-1.51,1.11,1.11,0,0,0-1.52.4l-5.6,9.67A1.12,1.12,0,0,0,23.78,153.85Z"/><path class="cls-2" d="M27.73,165a1.12,1.12,0,0,0,.79-1.36l-2.88-10.79a1.11,1.11,0,0,0-1.36-.79,1.12,1.12,0,0,0-.79,1.36l2.88,10.79A1.11,1.11,0,0,0,27.73,165Z"/><path class="cls-2" d="M12.41,156.14a1.12,1.12,0,0,1,.79-1.36L24,151.91a1.11,1.11,0,0,1,1.36.78,1.12,1.12,0,0,1-.79,1.36l-10.8,2.88A1.12,1.12,0,0,1,12.41,156.14Z"/><path class="cls-3" d="M21.13,151a3.7,3.7,0,1,0,5.06-1.35A3.7,3.7,0,0,0,21.13,151Z"/><path class="cls-2" d="M22.75,152a1.84,1.84,0,1,0,2.51-.67A1.84,1.84,0,0,0,22.75,152Z"/><path class="cls-2" d="M13.44,146.58A12.59,12.59,0,1,0,30.64,142,12.59,12.59,0,0,0,13.44,146.58Zm2.19,1.27a10.06,10.06,0,1,1,3.66,13.74A10.07,10.07,0,0,1,15.63,147.85Z"/><path class="cls-5" d="M179.91,151.89a2.83,2.83,0,0,0,.41,0,2.23,2.23,0,0,0,1.78-2.59L155.93,8.71a2.19,2.19,0,0,0-.86-1.37l-5.38-4a2.26,2.26,0,0,0-1.33-.44H137.18a2.22,2.22,0,1,0,0,4.44h10.45l4.09,3.06,26,139.7A2.2,2.2,0,0,0,179.91,151.89Z"/><path class="cls-5" d="M185.48,99v15.36a7.68,7.68,0,1,0,0-15.36Z"/><path class="cls-6" d="M189,93.85V119.5a12.83,12.83,0,0,1,0-25.65Z"/><path class="cls-2" d="M172.73,118.86a5.56,5.56,0,0,0,5.47-6.53L165.47,41.9a5.55,5.55,0,0,0-10.92,2l12.73,70.43A5.54,5.54,0,0,0,172.73,118.86Z"/><path class="cls-5" d="M24.85,154.49A1.11,1.11,0,0,0,26,153.38V131.16a1.11,1.11,0,0,0-2.22,0v22.22A1.11,1.11,0,0,0,24.85,154.49Z"/><path class="cls-5" d="M24.85,154.27a1.11,1.11,0,0,0,.78-.32,1.1,1.1,0,0,0,0-1.57L9.92,136.66a1.12,1.12,0,0,0-1.57,0,1.1,1.1,0,0,0,0,1.57L24.06,154A1.14,1.14,0,0,0,24.85,154.27Z"/><path class="cls-2" d="M3,162a1.81,1.81,0,0,0,.55-.09,1.67,1.67,0,0,0,1-2.12,20.94,20.94,0,0,1,30.31-25,1.66,1.66,0,0,0,1.67-2.88,24.27,24.27,0,0,0-36.47,21,24,24,0,0,0,1.35,8A1.66,1.66,0,0,0,3,162Z"/><path class="cls-5" d="M24.34,157.82H143.79a4.44,4.44,0,0,0,0-8.88H24.34a4.44,4.44,0,0,0,0,8.88Z"/><path class="cls-3" d="M21.64,151.52a3.71,3.71,0,1,0,5.06-1.35A3.71,3.71,0,0,0,21.64,151.52Z"/><path class="cls-3" d="M46.37,152.8a2.38,2.38,0,1,0,3.25-.86A2.38,2.38,0,0,0,46.37,152.8Z"/><path class="cls-2" d="M23.26,152.46a1.84,1.84,0,1,0,2.51-.67A1.83,1.83,0,0,0,23.26,152.46Z"/><path class="cls-6" d="M57,154.13h76.72a6.67,6.67,0,0,0,4.71-1.95l15.06-15.07A6.65,6.65,0,1,0,144,127.7l-13.12,13.12H59.71l-3.63-3.64a6.66,6.66,0,1,0-9.42,9.41l5.59,5.59A6.65,6.65,0,0,0,57,154.13Z"/><path class="cls-2" d="M60,174.26h7.32a1.09,1.09,0,0,0,1-.68,1.11,1.11,0,0,0-.24-1.21L49.31,153.63a1.11,1.11,0,0,0-1.56,1.57l16.84,16.85H60a1.11,1.11,0,1,0,0,2.21Z"/><path class="cls-6" d="M154,40.35l.37,0,9.57-1.58a2.22,2.22,0,1,0-.72-4.38l-9.58,1.58a2.22,2.22,0,0,0,.36,4.41Z"/><path class="cls-6" d="M153.21,35.29l.18,0L163,33.69a1.11,1.11,0,0,0,.91-1.28,1.09,1.09,0,0,0-1.27-.91L153,33.08a1.11,1.11,0,0,0,.18,2.21Z"/><path class="cls-2" d="M141.1,5.1A5.1,5.1,0,1,1,136,0,5.1,5.1,0,0,1,141.1,5.1Z"/><path class="cls-7" d="M139,5.1a3,3,0,1,1-3-3A3,3,0,0,1,139,5.1Z"/><g class="cls-8"><path class="cls-4" d="M172.65,109.19a2.19,2.19,0,0,0,.36,0,2,2,0,0,0,1.61-2.32l-8-44.25a2,2,0,1,0-3.94.72l8,44.24A2,2,0,0,0,172.65,109.19Z"/><path class="cls-4" d="M163.29,57.64a1.47,1.47,0,0,0,.36,0,2,2,0,0,0,1.61-2.32l-1.84-10.17a2,2,0,1,0-3.94.72L161.33,56A2,2,0,0,0,163.29,57.64Z"/><path class="cls-4" d="M179.36,105.82a1,1,0,0,0,1-.82c.87-4.69,6-5.87,6.06-5.88a1,1,0,0,0-.43-2c-.26.06-6.49,1.48-7.6,7.47a1,1,0,0,0,.8,1.16Z"/><path class="cls-4" d="M196.54,150.67h.08a1,1,0,0,0,.91-1.08c-1-13.15-11.7-15.89-11.81-15.91a1,1,0,1,0-.47,1.94c.39.1,9.36,2.47,10.29,14.13A1,1,0,0,0,196.54,150.67Z"/><path class="cls-4" d="M138,146.84a2,2,0,0,0,1.41-.58l10.24-10.19a2,2,0,0,0-2.82-2.84l-10.24,10.19a2,2,0,0,0,0,2.83A2,2,0,0,0,138,146.84Z"/><path class="cls-4" d="M54.42,144.27a2,2,0,0,0,1.33-3.5L53,138.35a2,2,0,1,0-2.65,3l2.73,2.42A2,2,0,0,0,54.42,144.27Z"/></g></g></g></svg>