<svg xmlns="http://www.w3.org/2000/svg" viewBox="0 0 175.46 164.37"><defs><style>.cls-1{fill:#d7dad3;}.cls-2{fill:#fb0;}.cls-3{fill:#209f9f;}.cls-4{fill:#082551;}.cls-5{fill:#ff465a;}.cls-6{opacity:0.3;}.cls-7{fill:#fff;}.cls-8{fill:#0d6f7a;}</style></defs><title>Asset 2</title><g id="Layer_2" data-name="Layer 2"><g id="OBJECTS"><path class="cls-1" d="M4.67,160.09A4.27,4.27,0,0,0,9,164.37H166.87a4.28,4.28,0,0,0,4.28-4.28h0a4.28,4.28,0,0,0-4.28-4.27H9a4.27,4.27,0,0,0-4.28,4.27Z"/><path class="cls-2" d="M151.08,138.18a2.07,2.07,0,0,0,1.91-2.82l-38.43-96a2.07,2.07,0,0,0-1.92-1.29H104.4a2.06,2.06,0,0,0,0,4.12h6.85l37.92,94.67A2.05,2.05,0,0,0,151.08,138.18Z"/><path class="cls-3" d="M134.9,103.58a7.22,7.22,0,0,0,6.69-9.9l-8.2-20.48A7.21,7.21,0,0,0,120,78.56l8.21,20.49A7.19,7.19,0,0,0,134.9,103.58Z"/><path class="cls-4" d="M175.46,136.12a24.38,24.38,0,1,1-24.38-24.38A24.38,24.38,0,0,1,175.46,136.12Z"/><path class="cls-2" d="M122,130a3.08,3.08,0,0,0,2.94-2.16,27.47,27.47,0,0,1,41.45-14.56,3.09,3.09,0,1,0,3.44-5.14A33.65,33.65,0,0,0,119,126a3.09,3.09,0,0,0,2,3.88A3,3,0,0,0,122,130Z"/><path class="cls-2" d="M164.61,136.12a13.54,13.54,0,1,1-13.53-13.53A13.54,13.54,0,0,1,164.61,136.12Z"/><path class="cls-3" d="M155.79,136.12a4.71,4.71,0,1,1-4.71-4.71A4.71,4.71,0,0,1,155.79,136.12Z"/><path class="cls-3" d="M143.87,136.12a7.21,7.21,0,1,1,7.21,7.21A7.22,7.22,0,0,1,143.87,136.12Zm1,0a6.18,6.18,0,1,0,6.18-6.17A6.18,6.18,0,0,0,144.9,136.12Z"/><path class="cls-5" d="M39.67,121.29a2.05,2.05,0,0,0,1.45-.6L52,109.84a2.06,2.06,0,1,0-2.91-2.92L38.21,117.77a2.06,2.06,0,0,0,1.46,3.52Z"/><path class="cls-4" d="M2.06,114.59a2.06,2.06,0,0,0,1.46-.6L17.77,99.74a2.06,2.06,0,0,0-2.91-2.91L.6,111.08a2.06,2.06,0,0,0,1.46,3.51Z"/><rect class="cls-3" x="54.54" y="128.08" width="64.31" height="16.08" rx="5.23" ry="5.23"/><path class="cls-5" d="M5.35,92.9H8.21c.21,1.86.61,3.69,1,5.53H5.35a2.77,2.77,0,1,1,0-5.53Z"/><path class="cls-3" d="M54.46,98.18a2.06,2.06,0,0,0,1.46-.6l10-10A2.06,2.06,0,0,0,63,84.67l-10,10a2.06,2.06,0,0,0,1.46,3.52Z"/><path class="cls-3" d="M66.34,134.66a6.71,6.71,0,0,0,6.59-8C66.46,92.71,40.11,89,39,88.87a7.89,7.89,0,0,0-.84-.05H11.37a6.7,6.7,0,0,0,0,13.4H37.62c2.4.46,17.84,4.32,22.15,27A6.7,6.7,0,0,0,66.34,134.66Z"/><path class="cls-4" d="M52.6,136.12a24.38,24.38,0,1,1-24.38-24.38A24.37,24.37,0,0,1,52.6,136.12Z"/><g class="cls-6"><path class="cls-7" d="M9,137.62a1.5,1.5,0,0,1-1.5-1.5,20.73,20.73,0,0,1,20.71-20.71,1.5,1.5,0,0,1,0,3,17.74,17.74,0,0,0-17.71,17.71A1.5,1.5,0,0,1,9,137.62Z"/></g><path class="cls-2" d="M41.76,136.12a13.54,13.54,0,1,1-13.54-13.53A13.54,13.54,0,0,1,41.76,136.12Z"/><path class="cls-2" d="M33.17,127H60.23a9.18,9.18,0,0,1,0,18.35H33.17a1.55,1.55,0,0,1-1.54-1.55V128.49A1.54,1.54,0,0,1,33.17,127Z"/><path class="cls-5" d="M38,136.12a9.76,9.76,0,1,1-9.76-9.76A9.76,9.76,0,0,1,38,136.12Z"/><path class="cls-5" d="M60.23,128.49a7.63,7.63,0,1,1,0,15.26H33.17V128.49Z"/><circle class="cls-4" cx="28.22" cy="136.12" r="4.95"/><circle class="cls-4" cx="59.5" cy="136.12" r="4.95"/><path class="cls-3" d="M62.23,136.12a2.73,2.73,0,1,1-2.73-2.73A2.73,2.73,0,0,1,62.23,136.12Z"/><path class="cls-3" d="M108.29,138.78a4.13,4.13,0,0,0,4-2.95L128,82.19a4.12,4.12,0,1,0-7.9-2.33l-15.8,53.64a4.12,4.12,0,0,0,2.79,5.11A3.93,3.93,0,0,0,108.29,138.78Z"/><path class="cls-3" d="M31.63,93.18a2.06,2.06,0,0,0,2.06-2.06V82.77a2.06,2.06,0,1,0-4.12,0v8.35A2.06,2.06,0,0,0,31.63,93.18Z"/><path class="cls-3" d="M21.64,93.18a2.06,2.06,0,0,0,2.06-2.06V82.77a2.06,2.06,0,1,0-4.12,0v8.35A2.06,2.06,0,0,0,21.64,93.18Z"/><path class="cls-2" d="M69.4,94.53l.62,0a7.21,7.21,0,0,0,6.57-7.8C75.6,75.19,65.83,71,59.5,71H21.12a7.21,7.21,0,1,0,0,14.42H59.4c2.62.14,2.75,1.73,2.82,2.5A7.21,7.21,0,0,0,69.4,94.53Z"/><path class="cls-3" d="M59.5,164H63a1,1,0,0,0,.77-.35,1,1,0,0,0,.25-.81L60.52,136a1,1,0,1,0-2,.27l3.36,25.64H59.5a1,1,0,1,0,0,2.06Z"/><path class="cls-3" d="M145.73,71.89v8.68a4.34,4.34,0,1,0,0-8.68Z"/><path class="cls-2" d="M146.23,64.33V88.14a11.91,11.91,0,0,1,0-23.81Z"/><path class="cls-3" d="M106.07,39.86a4.48,4.48,0,1,1-4.48-4.47A4.48,4.48,0,0,1,106.07,39.86Z"/><path class="cls-8" d="M104,39.86a2.38,2.38,0,1,1-2.38-2.37A2.38,2.38,0,0,1,104,39.86Z"/><path class="cls-5" d="M107.26,0a11.89,11.89,0,0,1,0,20.6Z"/><path class="cls-3" d="M105.47,19.44a1.16,1.16,0,0,0,1.16,1.16h0a1.16,1.16,0,0,0,1.16-1.16V1.16A1.16,1.16,0,0,0,106.63,0h0a1.16,1.16,0,0,0-1.16,1.16Z"/><path class="cls-3" d="M109.93,39.71a1.07,1.07,0,0,0,.73-.31l3.28-3.28a1,1,0,0,0,.31-.73V10.3a1,1,0,0,0-2.07,0V35l-3,3a1,1,0,0,0,.73,1.76Z"/><path class="cls-3" d="M120.24,69.46a1.46,1.46,0,0,0,.58-.11l6-2.39a1.55,1.55,0,0,0-1.16-2.87l-5.94,2.39a1.55,1.55,0,0,0-.86,2A1.53,1.53,0,0,0,120.24,69.46Z"/><g class="cls-6"><path class="cls-7" d="M52.6,78.9H45.09a2,2,0,0,1,0-4H52.6a2,2,0,0,1,0,4Z"/><path class="cls-7" d="M38,78.9H21.64a2,2,0,0,1,0-4H38a2,2,0,0,1,0,4Z"/><path class="cls-7" d="M35.05,95.18H11.76a2,2,0,0,1,0-4H35.05a2,2,0,1,1,0,4Z"/><path class="cls-7" d="M96.14,134.89H76.62a1.5,1.5,0,0,1,0-3H96.14a1.5,1.5,0,0,1,0,3Z"/><path class="cls-7" d="M112.15,120.84a1.59,1.59,0,0,1-.43-.06,1.49,1.49,0,0,1-1-1.87l5.54-18.32a1.5,1.5,0,0,1,2.87.87l-5.54,18.32A1.51,1.51,0,0,1,112.15,120.84Z"/><path class="cls-7" d="M119.33,97.14a1.31,1.31,0,0,1-.44-.07,1.5,1.5,0,0,1-1-1.87l1.63-5.38a1.5,1.5,0,0,1,2.87.87l-1.63,5.38A1.5,1.5,0,0,1,119.33,97.14Z"/><path class="cls-7" d="M136.1,97.66a2,2,0,0,1-1.83-1.19l-9.4-21.22a2,2,0,1,1,3.65-1.62l9.41,21.22a2,2,0,0,1-1,2.64A1.93,1.93,0,0,1,136.1,97.66Z"/><path class="cls-7" d="M143.22,76.46a1.5,1.5,0,0,1-1.5-1.5V68.67a1.5,1.5,0,1,1,3,0V75A1.5,1.5,0,0,1,143.22,76.46Z"/><path class="cls-7" d="M149.41,106.65a1,1,0,0,1-.1-2,27.5,27.5,0,0,1,3.75-.11,1,1,0,0,1,1,1,1,1,0,0,1-1,1,23.42,23.42,0,0,0-3.46.1Z"/><path class="cls-7" d="M167.19,111.18a1,1,0,0,1-.59-.19,27.3,27.3,0,0,0-10.22-4.08,1,1,0,0,1-.81-1.16,1,1,0,0,1,1.16-.81,28.88,28.88,0,0,1,11.06,4.44,1,1,0,0,1-.6,1.8Z"/></g></g></g></svg>