<svg xmlns="http://www.w3.org/2000/svg" viewBox="0 0 152.08 154.37"><defs><style>.cls-1{fill:#d7dad3;}.cls-2{fill:#209f9f;}.cls-3{fill:#ff465a;}.cls-4{fill:#fb0;}.cls-5{fill:#082551;}.cls-6{opacity:0.3;}.cls-7{fill:#fff;}</style></defs><title>Asset 4</title><g id="Layer_2" data-name="Layer 2"><g id="OBJECTS"><path class="cls-1" d="M0,150.1a4.28,4.28,0,0,0,4.28,4.27H147.8a4.27,4.27,0,0,0,4.28-4.27h0a4.27,4.27,0,0,0-4.28-4.28H4.28A4.28,4.28,0,0,0,0,150.1Z"/><path class="cls-2" d="M117.55,36.66l3,13.94a7.13,7.13,0,1,0-3-13.94Z"/><path class="cls-3" d="M119.77,31.3l5,23.27a11.9,11.9,0,1,1-5-23.27Z"/><path class="cls-2" d="M118.53,59.71l1.64,7.63a3.9,3.9,0,0,0-1.64-7.63Z"/><path class="cls-3" d="M119.74,56.78l2.74,12.73a6.51,6.51,0,1,1-2.74-12.73Z"/><path class="cls-4" d="M111.72,75.26a2.47,2.47,0,0,0,.54-.05,2.58,2.58,0,0,0,2-3.06L101.82,14.47a2.58,2.58,0,0,0-5,1.09L109.2,73.23A2.57,2.57,0,0,0,111.72,75.26Z"/><path class="cls-2" d="M116.93,102.55a6.26,6.26,0,0,0,1.2-.12,5.67,5.67,0,0,0,4.34-6.74L110.05,38A5.67,5.67,0,0,0,99,40.41l12.42,57.67A5.68,5.68,0,0,0,116.93,102.55Z"/><path class="cls-2" d="M22.06,139h87.36a4.12,4.12,0,0,0,0-8.24H22.06a4.12,4.12,0,1,0,0,8.24Z"/><path class="cls-3" d="M23.15,134.5H130a5.21,5.21,0,1,0,0-10.42H23.15a5.21,5.21,0,1,0,0,10.42Z"/><path class="cls-5" d="M144.13,119.77a32,32,0,1,1-32-32A32,32,0,0,1,144.13,119.77Z"/><path class="cls-4" d="M77.61,124.78a4.64,4.64,0,0,0,4.64-4.64,29.92,29.92,0,0,1,59.84,0,4.64,4.64,0,1,0,9.27,0,39.2,39.2,0,0,0-78.39,0A4.64,4.64,0,0,0,77.61,124.78Z"/><path class="cls-3" d="M129.07,119.77a16.91,16.91,0,1,1-16.9-16.91A16.9,16.9,0,0,1,129.07,119.77Z"/><path class="cls-4" d="M121.69,119.77a9.52,9.52,0,1,1-9.52-9.52A9.52,9.52,0,0,1,121.69,119.77Z"/><path class="cls-5" d="M116,119.77a3.85,3.85,0,1,1-3.85-3.85A3.86,3.86,0,0,1,116,119.77Z"/><path class="cls-5" d="M38.38,135.45A16.28,16.28,0,1,1,22.1,119.18,16.28,16.28,0,0,1,38.38,135.45Z"/><path class="cls-4" d="M4.5,138a2.36,2.36,0,0,0,2.36-2.36,15.24,15.24,0,0,1,30.48,0,2.36,2.36,0,0,0,4.72,0,20,20,0,0,0-39.92,0A2.36,2.36,0,0,0,4.5,138Z"/><path class="cls-3" d="M30.71,135.45a8.61,8.61,0,1,1-8.61-8.61A8.61,8.61,0,0,1,30.71,135.45Z"/><path class="cls-4" d="M27,135.45a4.85,4.85,0,1,1-4.85-4.85A4.85,4.85,0,0,1,27,135.45Z"/><path class="cls-5" d="M24.06,135.45a2,2,0,1,1-2-2A2,2,0,0,1,24.06,135.45Z"/><path class="cls-2" d="M94.74,16.7a2.48,2.48,0,0,0,.54-.06l8.36-1.8a2.57,2.57,0,1,0-1.09-5l-8.35,1.8a2.57,2.57,0,0,0,.54,5.09Z"/><path class="cls-4" d="M85.22,13.6l17.92-3.86A4.92,4.92,0,1,0,101.07.11L83.15,4a4.92,4.92,0,0,0,2.07,9.63Z"/><path class="cls-2" d="M67.44,10.91H86.31a2.58,2.58,0,0,0,0-5.16H67.44a2.58,2.58,0,1,0,0,5.16Z"/><path class="cls-3" d="M60.38,12.45H72.79a4.12,4.12,0,0,0,0-8.24H60.38a4.12,4.12,0,0,0,0,8.24Z"/><g class="cls-6"><path class="cls-7" d="M111.49,69.34a2.18,2.18,0,0,0,.43,0,2,2,0,0,0,1.53-2.37l-5.2-24.27a2,2,0,0,0-3.91.84l5.2,24.26A2,2,0,0,0,111.49,69.34Z"/><path class="cls-7" d="M113.52,78.47a2,2,0,0,0,2-2.42l-.86-4a2,2,0,0,0-3.91.85l.86,4A2,2,0,0,0,113.52,78.47Z"/><path class="cls-7" d="M146.11,116.55l.25,0a2,2,0,0,0,1.73-2.23c-.1-.82-2.74-20.15-21.21-27A2,2,0,0,0,125.49,91c16.16,6,18.61,23.59,18.64,23.77A2,2,0,0,0,146.11,116.55Z"/><path class="cls-7" d="M39.68,135h.15a1,1,0,0,0,.84-1.13c-.08-.54-2.05-13.22-13.5-15.86a1,1,0,0,0-1.2.75,1,1,0,0,0,.75,1.2c10.1,2.33,12,14.08,12,14.2A1,1,0,0,0,39.68,135Z"/><path class="cls-7" d="M97.43,7.48a1.9,1.9,0,0,0,.41,0l4.73-1a2,2,0,0,0-.8-3.92L97,3.52a2,2,0,0,0,.39,4Z"/><path class="cls-7" d="M63.65,7.86h8.88a1,1,0,0,0,0-2H63.65a1,1,0,0,0,0,2Z"/><path class="cls-7" d="M120.54,49.89a.76.76,0,0,0,.21,0,1,1,0,0,0,.77-1.18l-.63-2.92A1,1,0,0,0,119.7,45a1,1,0,0,0-.76,1.18l.62,2.92A1,1,0,0,0,120.54,49.89Z"/><path class="cls-7" d="M119.29,44.09l.21,0a1,1,0,0,0,.77-1.19l-1.75-8.15a1,1,0,0,0-2,.42l1.76,8.15A1,1,0,0,0,119.29,44.09Z"/><path class="cls-7" d="M120.54,68.65h.1a.49.49,0,0,0,.38-.59L120.58,66a.5.5,0,0,0-.59-.38.51.51,0,0,0-.39.6l.45,2.06A.49.49,0,0,0,120.54,68.65Z"/><path class="cls-7" d="M119.65,64.55h.11a.5.5,0,0,0,.38-.6l-1.24-5.76a.5.5,0,0,0-.6-.39.51.51,0,0,0-.38.6l1.24,5.77A.5.5,0,0,0,119.65,64.55Z"/><path class="cls-7" d="M57.16,131.29H76a2,2,0,1,0,0-4H57.16a2,2,0,0,0,0,4Z"/><path class="cls-7" d="M47.41,131.29h3.75a2,2,0,1,0,0-4H47.41a2,2,0,1,0,0,4Z"/></g></g></g></svg>