<svg xmlns="http://www.w3.org/2000/svg" viewBox="0 0 204.98 148.29"><defs><style>.cls-1{fill:#d7dad3;}.cls-2{fill:#fb0;}.cls-3{fill:#209f9f;}.cls-4{fill:#082551;}.cls-5{fill:#ff465a;}.cls-6{opacity:0.3;}.cls-7{fill:#fff;}</style></defs><title>Asset 3</title><g id="Layer_2" data-name="Layer 2"><g id="OBJECTS"><path class="cls-1" d="M205,144a4.28,4.28,0,0,1-4.28,4.28H7.29A4.28,4.28,0,0,1,3,144H3a4.28,4.28,0,0,1,4.28-4.28H200.7A4.28,4.28,0,0,1,205,144Z"/><path class="cls-2" d="M129.71,128.78a6.77,6.77,0,0,1-6.77,6.77H57.14a6.77,6.77,0,0,1-6.77-6.77h0A6.77,6.77,0,0,1,57.14,122h65.8a6.77,6.77,0,0,1,6.77,6.77Z"/><path class="cls-3" d="M62.37,125.05a4.72,4.72,0,0,0,4.72,4.73H113a4.7,4.7,0,0,0,3.58-7.77H63.51A4.7,4.7,0,0,0,62.37,125.05Z"/><path class="cls-2" d="M50.37,101.27a2.06,2.06,0,0,1-2.06-2.06V81a2.06,2.06,0,0,1,4.12,0V99.21A2.06,2.06,0,0,1,50.37,101.27Z"/><path class="cls-2" d="M41.28,96.87a2.2,2.2,0,0,1-.44-.05,2.05,2.05,0,0,1-1.58-2.44c0-.2,4.52-19.92,25.52-19.92a2.06,2.06,0,0,1,0,4.12c-17.62,0-21.34,16-21.49,16.67A2.06,2.06,0,0,1,41.28,96.87Z"/><path class="cls-4" d="M7.21,120.05A24.06,24.06,0,1,0,31.27,96,24.07,24.07,0,0,0,7.21,120.05Z"/><path class="cls-3" d="M4.12,124.17A4.12,4.12,0,0,1,0,120.05a31.28,31.28,0,0,1,60.29-11.69,4.12,4.12,0,0,1-7.65,3.08,23,23,0,0,0-44.4,8.61A4.11,4.11,0,0,1,4.12,124.17Z"/><path class="cls-3" d="M21.12,120.05A10.16,10.16,0,1,0,31.27,109.9,10.16,10.16,0,0,0,21.12,120.05Z"/><path class="cls-3" d="M31.27,135.88A15.83,15.83,0,1,1,47.1,120.05,15.85,15.85,0,0,1,31.27,135.88Zm0-30.63a14.8,14.8,0,1,0,14.8,14.8A14.82,14.82,0,0,0,31.27,105.25Z"/><path class="cls-4" d="M26.27,120.05a5,5,0,1,0,5-5A5,5,0,0,0,26.27,120.05Z"/><path class="cls-4" d="M149.47,120.05A24.06,24.06,0,1,0,173.53,96,24.07,24.07,0,0,0,149.47,120.05Z"/><path class="cls-3" d="M146.38,124.17a4.11,4.11,0,0,1-4.12-4.12,31.27,31.27,0,0,1,60.28-11.69,4.12,4.12,0,0,1-7.64,3.08,23,23,0,0,0-44.4,8.61A4.12,4.12,0,0,1,146.38,124.17Z"/><path class="cls-3" d="M163.38,120.05a10.15,10.15,0,1,0,10.15-10.15A10.15,10.15,0,0,0,163.38,120.05Z"/><path class="cls-3" d="M173.53,133.22a13.17,13.17,0,1,1,13.17-13.17A13.19,13.19,0,0,1,173.53,133.22Zm0-25.3a12.14,12.14,0,1,0,12.14,12.13A12.15,12.15,0,0,0,173.53,107.92Z"/><path class="cls-4" d="M168.53,120.05a5,5,0,1,0,5-5A5,5,0,0,0,168.53,120.05Z"/><path class="cls-2" d="M171.14,120.05a2.39,2.39,0,1,0,2.39-2.39A2.39,2.39,0,0,0,171.14,120.05Z"/><path class="cls-5" d="M81,74.16a4.4,4.4,0,0,1-4.41,4.4H52.36A4.4,4.4,0,0,1,48,74.16h0a4.4,4.4,0,0,1,4.41-4.41H76.61A4.4,4.4,0,0,1,81,74.16Z"/><path class="cls-5" d="M67.89,68.84a4.42,4.42,0,0,1-4.41,4.41H52.36A4.41,4.41,0,0,1,48,68.84h0a4.4,4.4,0,0,1,4.41-4.41H63.48a4.41,4.41,0,0,1,4.41,4.41Z"/><path class="cls-2" d="M124.9,132.35h-.07a2.58,2.58,0,0,1,0-5.15h0c.31,0,6.56-.12,9.91-8l10.61-33.54a2.58,2.58,0,0,1,4.92,1.56L139.7,120.83a1.8,1.8,0,0,1-.08.21C135,132.05,125.87,132.35,124.9,132.35Z"/><path class="cls-2" d="M132,60.65a1.55,1.55,0,0,1-1.47-1.07l-9.37-29H112a1.55,1.55,0,0,1,0-3.09h10.3a1.55,1.55,0,0,1,1.47,1.07l9.71,30.11a1.55,1.55,0,0,1-1,1.95A1.59,1.59,0,0,1,132,60.65Z"/><path class="cls-3" d="M134.21,52.45a1.41,1.41,0,0,1-.92,1.76l-5.17,1.62a1.39,1.39,0,0,1-1.75-.92h0a1.39,1.39,0,0,1,.91-1.75l5.18-1.62a1.4,1.4,0,0,1,1.75.91Z"/><path class="cls-2" d="M173.53,122.63a2.58,2.58,0,0,1-2.13-1.12L130.74,62A2.58,2.58,0,1,1,135,59.08l40.67,59.52a2.58,2.58,0,0,1-2.13,4Z"/><path class="cls-5" d="M139.67,75.12a4.63,4.63,0,0,1-3.84-2L129,63.15a4.63,4.63,0,1,1,7.65-5.23l6.8,10a4.64,4.64,0,0,1-3.82,7.25Z"/><path class="cls-5" d="M118.89,31.57h-8.82a2.58,2.58,0,1,1,0-5.15h8.82a2.58,2.58,0,1,1,0,5.15Z"/><path class="cls-3" d="M160.57,63.52V74.15a5.32,5.32,0,1,0,0-10.63Z"/><path class="cls-5" d="M160.57,76.25v7a3.52,3.52,0,1,0,0-7Z"/><path class="cls-2" d="M161.19,60.17V89.32a14.58,14.58,0,1,1,0-29.15Z"/><path class="cls-5" d="M123.7,0a11.89,11.89,0,0,1,0,20.6Z"/><path class="cls-3" d="M121.92,19.44a1.15,1.15,0,0,0,1.15,1.16h0a1.16,1.16,0,0,0,1.16-1.16V1.16A1.16,1.16,0,0,0,123.07,0h0a1.15,1.15,0,0,0-1.15,1.16Z"/><path class="cls-3" d="M126.37,39.71a1,1,0,0,0,.72-.31l3.29-3.28a1,1,0,0,0,.3-.73V10.3a1,1,0,0,0-2.06,0V35l-3,3a1,1,0,0,0,0,1.45A1,1,0,0,0,126.37,39.71Z"/><g class="cls-6"><path class="cls-7" d="M59,70.84H53a2,2,0,0,1,0-4h6a2,2,0,0,1,0,4Z"/><path class="cls-7" d="M67.89,76.46H52.43a2,2,0,1,1,0-4H67.89a2,2,0,0,1,0,4Z"/><path class="cls-7" d="M4.71,116.06a2.07,2.07,0,0,1-.35,0,2,2,0,0,1-1.62-2.32C2.86,113,5.88,97,23,91.84a2,2,0,0,1,1.15,3.84C9.36,100.1,6.7,114.27,6.68,114.41A2,2,0,0,1,4.71,116.06Z"/><path class="cls-7" d="M78.36,133.35H60a1,1,0,0,1,0-2H78.36a1,1,0,0,1,0,2Z"/><path class="cls-7" d="M87.85,133.35H81.9a1,1,0,0,1,0-2h5.95a1,1,0,0,1,0,2Z"/><path class="cls-7" d="M137.76,71.65a1.49,1.49,0,0,1-1.25-.66l-5.58-8.28A1.5,1.5,0,0,1,133.42,61L139,69.32a1.49,1.49,0,0,1-1.24,2.33Z"/><path class="cls-7" d="M118.38,29.32h-5.14a1,1,0,0,1,0-2h5.14a1,1,0,0,1,0,2Z"/><path class="cls-7" d="M151.3,76h-.08a1.51,1.51,0,0,1-1.42-1.58,10.91,10.91,0,0,1,7.58-10.29,1.5,1.5,0,0,1,.76,2.9c-.22.06-5,1.44-5.34,7.55A1.5,1.5,0,0,1,151.3,76Z"/><path class="cls-7" d="M198.42,111.4a1.49,1.49,0,0,1-1.39-1c-4.94-12.45-17.52-15.17-17.65-15.2a1.5,1.5,0,0,1,.61-2.94c.58.12,14.3,3.1,19.82,17a1.5,1.5,0,0,1-.84,2A1.52,1.52,0,0,1,198.42,111.4Z"/></g></g></g></svg>