<svg xmlns="http://www.w3.org/2000/svg" xmlns:xlink="http://www.w3.org/1999/xlink" viewBox="0 0 500 500"><defs><clipPath id="freepik--clip-path--inject-56"><path d="M121.1,298.07c0-5.47-3.61-10.94-10.84-15.11-14.45-8.34-37.87-8.34-52.32,0-7.23,4.17-10.84,9.64-10.84,15.11h0v16.4h0c0,5.46,3.61,10.93,10.84,15.1,14.45,8.34,37.87,8.34,52.32,0,7.23-4.17,10.84-9.64,10.84-15.1h0v-16.4Z" style="fill:none"></path></clipPath></defs><g id="freepik--Floor--inject-56"><ellipse id="freepik--floor--inject-56" cx="250.04" cy="352.75" rx="229.58" ry="126.91" style="fill:#f5f5f5"></ellipse></g><g id="freepik--Shadows--inject-56"><ellipse id="freepik--Shadow--inject-56" cx="193.33" cy="343.33" rx="89.95" ry="51.93" style="fill:#e0e0e0"></ellipse><ellipse id="freepik--shadow--inject-56" cx="84.1" cy="397.15" rx="39.75" ry="22.95" style="fill:#e0e0e0"></ellipse><ellipse id="freepik--shadow--inject-56" cx="333.46" cy="351.24" rx="65.43" ry="37.78" style="fill:#e0e0e0"></ellipse><path id="freepik--shadow--inject-56" d="M365,424.47h0a3.46,3.46,0,0,0,1,.39c4.32,1,34.53,7.15,63.67-8.29,22.94-12.16,28.68-32.33,30-39.38a3.56,3.56,0,0,0-1.73-3.74L457,373a3.61,3.61,0,0,0-2.11-.47c-6.35.59-38,4.21-62.47,20.07-13.72,8.88-24,20.9-28.53,26.62A3.58,3.58,0,0,0,365,424.47Z" style="fill:#e0e0e0"></path><path id="freepik--shadow--inject-56" d="M174.62,415.2l-6.7-3.86L158.7,406a14.1,14.1,0,0,0-12.76,0c-3.51,2-3.5,5.34,0,7.37l9.23,5.31,6.68,3.87a14.1,14.1,0,0,0,12.76,0C178.17,420.52,178.15,417.23,174.62,415.2Z" style="fill:#e0e0e0"></path><path id="freepik--shadow--inject-56" d="M109.2,433.36l6.69-3.85,9.22-5.33a14.1,14.1,0,0,1,12.76,0c3.52,2,3.5,5.34,0,7.37l-9.24,5.31-6.68,3.87a14.1,14.1,0,0,1-12.76,0C105.65,438.69,105.66,435.39,109.2,433.36Z" style="fill:#e0e0e0"></path></g><g id="freepik--Pictures--inject-56"><g id="freepik--pictures--inject-56"><g id="freepik--Picture--inject-56"><g id="freepik--Frame--inject-56"><polygon points="77.69 165.18 79.37 166.19 113.91 146.25 112.22 145.24 77.69 165.18" style="fill:#fafafa"></polygon><polygon points="112.22 145.24 79.37 164.21 79.37 129.8 112.22 110.85 112.22 145.24" style="fill:#fff"></polygon><path d="M117.08,104.36,76.19,128v43.72l40.89-23.61Zm-3.17,41.89L79.37,166.19V129.8l34.54-19.94Z" style="fill:#f0f0f0"></path><polygon points="113.91 146.25 112.22 145.24 112.22 110.85 113.91 109.86 113.91 146.25" style="fill:#e0e0e0"></polygon><polygon points="117.08 104.36 115.38 103.38 74.48 126.99 76.19 127.97 117.08 104.36" style="fill:#fafafa"></polygon><polygon points="74.48 126.99 76.19 127.97 76.19 171.69 74.48 170.71 74.48 126.99" style="fill:#e0e0e0"></polygon></g><g id="freepik--Land--inject-56"><polygon points="110.94 144.21 80.65 161.7 80.65 152.96 88.22 135.47 92.94 139.84 91.25 147.17 101.7 124.8 110.94 135.47 110.94 144.21" style="fill:#f0f0f0"></polygon><path d="M92.66,127a5,5,0,0,0-2.24,3.88c0,1.43,1,2,2.24,1.3a5,5,0,0,0,2.24-3.88C94.9,126.89,93.89,126.31,92.66,127Z" style="fill:#f0f0f0"></path></g></g><g id="freepik--picture--inject-56"><g id="freepik--frame--inject-56"><polygon points="140.35 118.18 142.04 119.19 176.58 99.24 174.9 98.24 140.35 118.18" style="fill:#fafafa"></polygon><polygon points="174.9 98.24 142.04 117.21 142.04 82.8 174.9 63.85 174.9 98.24" style="fill:#fff"></polygon><path d="M179.76,57.36,138.86,81v43.72l40.9-23.61Zm-3.18,41.88-34.54,20V82.8l34.54-19.94Z" style="fill:#f0f0f0"></path><polygon points="176.58 99.24 174.9 98.24 174.9 63.85 176.58 62.86 176.58 99.24" style="fill:#e0e0e0"></polygon><polygon points="179.75 57.36 178.05 56.38 137.15 79.99 138.86 80.97 179.75 57.36" style="fill:#fafafa"></polygon><polygon points="137.15 79.99 138.86 80.97 138.86 124.69 137.15 123.71 137.15 79.99" style="fill:#e0e0e0"></polygon></g><g id="freepik--land--inject-56"><polygon points="173.61 97.21 143.32 114.7 143.32 105.96 150.9 88.47 155.61 92.84 153.92 100.17 164.38 77.8 173.61 88.47 173.61 97.21" style="fill:#f0f0f0"></polygon><path d="M155.33,80a5,5,0,0,0-2.24,3.88c0,1.43,1,2,2.24,1.3a5,5,0,0,0,2.24-3.88C157.57,79.89,156.57,79.31,155.33,80Z" style="fill:#f0f0f0"></path></g></g></g></g><g id="freepik--Puff--inject-56"><path d="M139.62,217.16c-16.55,9.55-42.87,28.53-42.87,69.3s27.4,73.08,64.3,86.63c19.74,7.25,51,10,74.86-2.18,20.73-10.6,34.69-21.51,42.29-41.31,12.75-33.2,0-58.79-19.06-72.54s-26.83-18.94-43.07-34.32c-8.24-7.8-20.57-13.05-33.58-14.5A72.7,72.7,0,0,0,139.62,217.16Z" style="fill:#FFC727"></path><path d="M139.62,217.16c-16.55,9.55-42.87,28.53-42.87,69.3s27.4,73.08,64.3,86.63c19.74,7.25,51,10,74.86-2.18,20.73-10.6,34.69-21.51,42.29-41.31,12.75-33.2,0-58.79-19.06-72.54s-26.83-18.94-43.07-34.32c-8.24-7.8-20.57-13.05-33.58-14.5A72.7,72.7,0,0,0,139.62,217.16Z" style="fill:#fff;opacity:0.75"></path><path d="M143.91,353.29c-32.7-26.64-35-69-27-94.78,8.45-27,34-47.34,65.56-50.27h0a65.23,65.23,0,0,0-6.89-.38c-28.44,4.56-51.85,24.72-59.84,50.29-8.18,26.15-5.78,69.09,27.37,96.1,14.16,11.54,35.59,21.56,52.53,25q3,.06,6.09-.06C181.36,376.29,157.9,364.69,143.91,353.29Z" style="fill:#FFC727"></path><path d="M143.91,353.29c-32.7-26.64-35-69-27-94.78,8.45-27,34-47.34,65.56-50.27h0a65.23,65.23,0,0,0-6.89-.38c-28.44,4.56-51.85,24.72-59.84,50.29-8.18,26.15-5.78,69.09,27.37,96.1,14.16,11.54,35.59,21.56,52.53,25q3,.06,6.09-.06C181.36,376.29,157.9,364.69,143.91,353.29Z" style="opacity:0.05"></path></g><g id="freepik--character-2--inject-56"><g id="freepik--Character--inject-56"><g id="freepik--character--inject-56"><g id="freepik--Bottom--inject-56"><path d="M374.76,341.24a11.8,11.8,0,0,1,1.23,6c-.1,1.82-1.19,4.17-.7,8.27s1.43,5.39,1.86,8.29a10.1,10.1,0,0,1-1.6,7.7c-1.69,2.76-5.44,4.94-12.82,4.68-6-.22-8.38-3.28-8.51-6.79Z" style="fill:#263238"></path><path d="M373,332.73a15.51,15.51,0,0,1,.35,2.32c.23,1.38.64,2.71,1,4.07q.13.53.24,1.08c.58,2.73,0,5.57,0,8.37.05,3.31,1,6.54,1.73,9.76,1.34,5.8,1.56,9.69-3.52,13.71-2.68,2.12-5.61,2.19-9,2.28-2.58.07-5.95-.68-7.48-1.81-2.17-1.6-2.15-2.94-2.16-3.46-.2-6.17,2-13.34,2.47-19.49a29.86,29.86,0,0,0,.11-5c-.21-2-.92-4.06-1.14-6.12a3.54,3.54,0,0,1,.28-2.26,3.66,3.66,0,0,1,2.75-1.24q4.05-.53,8.12-.82a2.45,2.45,0,0,1,1.85.38c.53.47.54,1.27.68,2s.66,1.49,1.35,1.36a1.19,1.19,0,0,0,.83-1c.07-.46.26-4,.24-4.49C371.74,332.3,372.7,332.14,373,332.73Z" style="fill:#37474f"></path><path d="M283.26,353.19a4.58,4.58,0,0,0,.06,3.39c.43,1,5.48,4.14,12.47,3.95a29,29,0,0,0,14.63-4.46c2.73-1.65,5.52-1.87,9-1.93s7.5-1.3,8.68-2.87a8.18,8.18,0,0,0,0-4.66Z" style="fill:#263238"></path><path d="M308.54,332.54a14.3,14.3,0,0,0-.73,1.53,12.32,12.32,0,0,1-3.84,4.8,39.63,39.63,0,0,1-7.72,4.16c-1.71.77-3.52,1-5.26,1.6a29.28,29.28,0,0,0-5.65,2.48c-2.82,1.73-3.36,6.35-.31,8.31,2.62,1.69,9.63,3.69,17.14,1.89,4.09-1,8.76-5.13,14.08-5.33,3.39-.12,9.81-.81,12.08-3.29.84-3.7-.07-4.75-.83-7.9a25.87,25.87,0,0,1-.63-5.41c0-.95.63-3.7-1.38-4l-.2,2.06s-.38.7-2.47,1.07c-.68.12-1.21,1-1.58,1.82-.28.62-.58,1.42-1.26,1.41a1.3,1.3,0,0,1-1.05-.82,10.43,10.43,0,0,1-.39-1.35,5.29,5.29,0,0,0-3.16-3.13,16.35,16.35,0,0,0-3.71-.78c-1-.15-1.75-.56-2.61.25A3.76,3.76,0,0,0,308.54,332.54Z" style="fill:#37474f"></path><path d="M361.66,174.52c2.58,25.24,3.62,37.24,6.92,87.6a145,145,0,0,1,5.05,29c.72,12.22,2.46,49.07,2.46,49.07s-9.85,8.1-21.27,4.35c0,0-10.32-54.14-13.92-71-3.45-16.21-6.1-33.94-6.1-33.94l-2.47,22.6s.46,10.06.14,25.09c-.17,8-4,51.52-4,51.52S314.6,345,305.27,337c0,0-.68-70.52-.82-77.8-.16-8.29,1.27-91.76,1.27-91.76Z" style="fill:#455a64"></path><path d="M334.8,239.52l-7.06-37s-10.93-.95-17-7c0,0,1.07,6,14.81,9.55l6.82,34.11-.08,23Z" style="fill:#263238"></path><path d="M375.77,333.5A22.45,22.45,0,0,1,360.61,339s9.42-1.4,15.06-7.62Z" style="fill:#37474f"></path><path d="M328.88,333.61s-9.63,3.36-17.77.79c0,0,6.28,4.22,17.63.75Z" style="fill:#37474f"></path></g><g id="freepik--Top--inject-56"><path d="M317.56,98.28c-11.49-.12-13.7,5.51-18.41,11.54-3.9,5-19.48,24.1-19.48,24.1s-1.81-2.3-6.09-6.64a107,107,0,0,1-9.06-11.5L250,118.3s2.68,6.16,8,16.21,11.33,17.8,14.57,21.1c4.64,4.71,10.08,2,15-2.31s23.58-20.75,23.58-20.75Z" style="fill:#ffa8a7"></path><path d="M320.84,98c-4-.67-10.14-.77-14.71,2.79s-9.52,10.51-12.19,14.11-10.08,12.65-11.26,14-3.29,1.29-4.42,3.32l1.41,1.66s3.33,1.89,4.4,9.39A25.64,25.64,0,0,1,282,157.1l-2.31.79s.61,2,4.13,1,4.61-4.75,8.17-7.32,26.16-23.19,26.16-23.19Z" style="fill:#FFC727"></path><path d="M320.84,98c-4-.67-10.14-.77-14.71,2.79s-9.52,10.51-12.19,14.11-10.08,12.65-11.26,14-3.29,1.29-4.42,3.32l1.41,1.66s3.33,1.89,4.4,9.39A25.64,25.64,0,0,1,282,157.1l-2.31.79s.61,2,4.13,1,4.61-4.75,8.17-7.32,26.16-23.19,26.16-23.19Z" style="opacity:0.2"></path><path d="M279.67,133.92a8.87,8.87,0,0,1,4.4,1.31c2.21,1.36,3.22,3.88,4.25,6,.84,1.71,2,2.67,1.17,3.87s-1.76-.35-2.33-2.15S285.06,135.7,279.67,133.92Z" style="opacity:0.2"></path><path d="M267.58,100.27a11.14,11.14,0,0,0-1.14,5c.14,2.18,1.36,2.87,3.69,4.28a25.35,25.35,0,0,1,4.36,3.64l-4.44,3.69s-2.08-3.17-3.66-1.55c-1.19,1.22-2.87,3.24-4.11,4.3s-4.38,1.16-4.38,1.16a4.36,4.36,0,0,1-4,.47c-2.34-.8-3.29-5.53-3-8.63s11.88-15,14.37-14.39S267.58,100.27,267.58,100.27Z" style="fill:#f28f8f"></path><path d="M273.39,119.22a6,6,0,0,0,3.3,2.2c1.88.29,3.81-.3,4.18-1.15s-.2-1.74-1.14-2.59a18.15,18.15,0,0,1-1.9-2.15Z" style="fill:#ffa8a7"></path><g id="freepik--medicine-bottle--inject-56"><path d="M283.78,112.3a9.7,9.7,0,0,0,0-1.33,2,2,0,0,1,1.2-2l2.11-.93-3-6.87-2.1.93a2,2,0,0,1-2.25-.44,8.86,8.86,0,0,0-1-.86c-1.61-1.19-3.16-1.45-4.35-.92l-17.79,7.82c-1.2.52-2.05,1.84-2.27,3.83a13.84,13.84,0,0,0,5,11.45c1.61,1.18,3.16,1.45,4.35.92l17.79-7.82C282.71,115.6,283.56,114.28,283.78,112.3Z" style="fill:#FFC727"></path><path d="M283.8,112.27a8.32,8.32,0,0,0,.05-1.33,2,2,0,0,1,1.2-2l2.11-.93-3-6.87-2.1.93a2,2,0,0,1-2.25-.44,8.86,8.86,0,0,0-1-.86c-1.61-1.18-3.16-1.45-4.35-.92l-17.79,7.82c-1.2.53-2,1.84-2.27,3.83a13.84,13.84,0,0,0,5,11.45c1.61,1.18,3.15,1.45,4.35.92l17.79-7.82C282.74,115.57,283.59,114.25,283.8,112.27Z" style="fill:#fff;opacity:0.7000000000000001"></path><ellipse cx="260.11" cy="115.88" rx="5.06" ry="8.84" transform="translate(-24.64 114.5) rotate(-23.73)" style="fill:#FFC727"></ellipse><path d="M254.35,111.56c.42-4,3.35-5.24,6.55-2.88a13.94,13.94,0,0,1,5,11.45c-.42,4-3.35,5.25-6.54,2.88A14,14,0,0,1,254.35,111.56Z" style="opacity:0.05"></path><path d="M278.72,107.7c-2.66.9-1.3,2.64-5.79,4.85s-6.93-1-11.32-.65-5.5,2.16-5.73,3.85,3.28,7.15,7,6.64l18-7.72c.48-.2,1.16-1.24,1.15-3A8.65,8.65,0,0,1,278.72,107.7Z" style="fill:#455a64"></path><path d="M285.2,109.72a9.7,9.7,0,0,0-1.55-5.89l1.34-.59-.89-2-1.89.83-.21.1a2,2,0,0,1-2.25-.44,10.13,10.13,0,0,0-1-.87l0,0c-1.6-1.16-3.12-1.41-4.31-.89l-17.79,7.82c-1.2.53-2.05,1.84-2.26,3.82a13.83,13.83,0,0,0,2.59,8.9c-3.34-6.38-1.25-9.2.77-10.09l17.35-7.63a2.53,2.53,0,0,1,2.06-.18,4.51,4.51,0,0,0-.23,1.05,9.87,9.87,0,0,0,3.6,8.18C282.77,113.49,284.89,112.56,285.2,109.72Z" style="fill:#FFC727"></path><path d="M283.78,112.3a9.7,9.7,0,0,0,0-1.33,2,2,0,0,1,1.2-2l2.11-.93-.33-.75L284,108.58a2.29,2.29,0,0,0-1.09,1.92c-.07.8-.06,3.25-.82,4.18s-4.55,2.38-6.74,3.35L264.12,123a5.54,5.54,0,0,1-6.14-1.16,9.45,9.45,0,0,0,1.38,1.25c1.61,1.18,3.1,1.46,4.36.91l17.79-7.82C282.71,115.6,283.56,114.28,283.78,112.3Z" style="fill:#fff;opacity:0.4"></path><path d="M285.21,111.74l-.6.27a3.15,3.15,0,0,1-3.12-.66,9.91,9.91,0,0,1-3.6-8.18,4.3,4.3,0,0,1,.55-1.75,2.36,2.36,0,0,1,1.07-1l.62-.28a1.93,1.93,0,0,1,.41-.12,3.38,3.38,0,0,1,2.7.77l.08.07a9.9,9.9,0,0,1,3.52,8.11,3.43,3.43,0,0,1-1.25,2.52A2.08,2.08,0,0,1,285.21,111.74Z" style="fill:#f0f0f0"></path><path d="M279.55,107.89l2.12-.93c.85-.37-.2.34-.85-1.13-.56-1.28,1.89-3.72,2.5-4.94l-.08-.07a3.38,3.38,0,0,0-2.7-.77,1.93,1.93,0,0,0-.41.12l-.62.28a2.36,2.36,0,0,0-1.07,1,4.3,4.3,0,0,0-.55,1.75,9.91,9.91,0,0,0,3.6,8.18C280.16,110,278.74,108.25,279.55,107.89Z" style="fill:#e0e0e0"></path><path d="M278.52,102.9c.31-2.83,2.42-3.76,4.72-2.07a9.85,9.85,0,0,1,3.59,8.18c-.31,2.83-2.42,3.76-4.72,2.07A9.88,9.88,0,0,1,278.52,102.9Z" style="fill:#455a64"></path><path d="M287.21,110.86l-1.2.53a1.47,1.47,0,0,1-.42.13,3.39,3.39,0,0,1-2.7-.78,9,9,0,0,1-2.55-3.2,9.41,9.41,0,0,1-1-5,4.35,4.35,0,0,1,.55-1.76,2.27,2.27,0,0,1,.69-.75,1.72,1.72,0,0,1,.37-.22l1.23-.54a3.14,3.14,0,0,1,3.1.65l.3.24a9.93,9.93,0,0,1,3.3,7.94A3.13,3.13,0,0,1,287.21,110.86Z" style="fill:#FFC727"></path><path d="M287.21,110.86l-1.2.53a1.47,1.47,0,0,1-.42.13,3.39,3.39,0,0,1-2.7-.78,9,9,0,0,1-2.55-3.2,9.41,9.41,0,0,1-1-5,4.35,4.35,0,0,1,.55-1.76,2.27,2.27,0,0,1,.69-.75,1.72,1.72,0,0,1,.37-.22l1.23-.54a3.14,3.14,0,0,1,3.1.65l.3.24a9.93,9.93,0,0,1,3.3,7.94A3.13,3.13,0,0,1,287.21,110.86Z" style="fill:#fff;opacity:0.7000000000000001"></path><path d="M279.85,100.8a4.35,4.35,0,0,0-.55,1.76,9.41,9.41,0,0,0,1,5h0c.43-.17.86-.07.48-1.71-.31-1.37-.6-3.46.39-4.93a3.18,3.18,0,0,1,4.33-.72l-.3-.24a3.14,3.14,0,0,0-3.1-.65l-1.23.54a1.72,1.72,0,0,0-.37.22A2.27,2.27,0,0,0,279.85,100.8Z" style="fill:#FFC727"></path><path d="M280.55,102c.31-2.83,2.42-3.76,4.72-2.08a9.88,9.88,0,0,1,3.6,8.18c-.31,2.83-2.43,3.76-4.73,2.08A9.9,9.9,0,0,1,280.55,102Z" style="fill:#FFC727"></path><path d="M280.55,102c.31-2.83,2.42-3.76,4.72-2.08a9.88,9.88,0,0,1,3.6,8.18c-.31,2.83-2.43,3.76-4.73,2.08A9.9,9.9,0,0,1,280.55,102Z" style="fill:#fff;opacity:0.8"></path><path d="M281.13,102.44c.27-2.44,2.09-3.24,4.06-1.79a8.48,8.48,0,0,1,3.09,7c-.26,2.43-2.08,3.23-4.06,1.78A8.5,8.5,0,0,1,281.13,102.44Z" style="fill:#FFC727"></path><path d="M281.13,102.44c.27-2.44,2.09-3.24,4.06-1.79a8.48,8.48,0,0,1,3.09,7c-.26,2.43-2.08,3.23-4.06,1.78A8.5,8.5,0,0,1,281.13,102.44Z" style="fill:#fff;opacity:0.7000000000000001"></path><path d="M282.38,101.89a3.89,3.89,0,0,0-1-.55,4.22,4.22,0,0,0-.27,1.1,8.5,8.5,0,0,0,3.09,7,3.75,3.75,0,0,0,1,.54,4,4,0,0,0,.27-1.09A8.48,8.48,0,0,0,282.38,101.89Z" style="fill:#FFC727"></path><path d="M265.29,119.54l3-1.3,3-1.3.87-.39a14.18,14.18,0,0,1-4.34-10.91c.21-2,1.05-3.31,2.24-3.83l-7.86,3.45c-1.19.53-2,1.84-2.24,3.83a14.16,14.16,0,0,0,4.33,10.9Z" style="fill:#FFC727"></path><path d="M268.52,105.31c.21-2,1.05-3.31,2.24-3.83l-7.86,3.45c-1.19.53-2,1.84-2.24,3.83a14,14,0,0,0,5.06,11.51l7.86-3.45A14,14,0,0,1,268.52,105.31Z" style="fill:#fafafa"></path><path d="M269.49,116.81a.16.16,0,0,1-.11,0,14.38,14.38,0,0,1-2.83-4.77.14.14,0,0,1,.27-.1,13.83,13.83,0,0,0,2.77,4.68.14.14,0,0,1,0,.2A.12.12,0,0,1,269.49,116.81Z" style="fill:#e0e0e0"></path><path d="M268.16,117.39a.14.14,0,0,1-.1,0,14.43,14.43,0,0,1-2.83-4.78.15.15,0,0,1,.08-.18.15.15,0,0,1,.19.08,13.88,13.88,0,0,0,2.77,4.69.13.13,0,0,1,0,.19A.13.13,0,0,1,268.16,117.39Z" style="fill:#e0e0e0"></path><path d="M266.84,118a.13.13,0,0,1-.1,0,14.26,14.26,0,0,1-2.83-4.78A.14.14,0,0,1,264,113a.14.14,0,0,1,.18.08,14,14,0,0,0,2.77,4.69.14.14,0,0,1,0,.2A.17.17,0,0,1,266.84,118Z" style="fill:#e0e0e0"></path></g><path d="M281.86,106.38a7.24,7.24,0,0,1,6.19.64c1.46.91,2.06,3.16.61,4.09-1.23.8-3.18-.14-3.72-1.21A7,7,0,0,1,281.86,106.38Z" style="fill:#37474f"></path><path d="M284.41,106.46a4.26,4.26,0,0,1,4.43,2.09c.57,1.15.15,2.41-.82,2.28s-.75-.93-.66-1.31a2.23,2.23,0,0,0,0-1.46C286.8,107,285.9,106.58,284.41,106.46Z" style="fill:#455a64"></path><path d="M250,118.3a21.5,21.5,0,0,1-1-5.81,5.25,5.25,0,0,1,1.12-4.25c.81-.88,1.17-2.82,1.77-3.61a3.27,3.27,0,0,1,2-.9,4.59,4.59,0,0,1,.16-2.59,3,3,0,0,1,2.23-1.65,8,8,0,0,1,2.05-.17,4.21,4.21,0,0,1,1.92-1.84c1.35-.63,3.9-1.86,5.55-2.51a2.32,2.32,0,0,1,2.94.8,34,34,0,0,1,3.35,3.54c.67,1,2.37,3.55,1,4.63-1.13.87-2.07.22-3.9-1.48a28.92,28.92,0,0,0-3.06-2.52l-1.84.28s3.5,2.49,4.38,3.37a28,28,0,0,1,2.81,3.77c.48.83,1.3,1.8.34,2.76s-2.48.52-3.83-.63a19.06,19.06,0,0,0-2.54-2.7,29.14,29.14,0,0,0-5.19-3c-.69-.07,2.77,2.57,4.22,4.07a19.21,19.21,0,0,1,3,4.52c.58,1.25,1,2,.41,2.45a2.72,2.72,0,0,1-3.95-.49c-1.84-2.05-2.27-3-3.45-3.89a16.9,16.9,0,0,0-5.18-2.34c-1.14-.19-1.41,1-.68,1.44s1.52,1,2.14,1.42,2.07,1.34,2.85,1.89c1.17.82,1.65,1.68,1.13,2.61s-2.11.91-3.25.41-5.83-3-5.83-3-.21,5.44,1.24,7.23c1.69,2.08,4.36,1,4.36,1a5.11,5.11,0,0,1-4.1.34A4.89,4.89,0,0,1,250,118.3Z" style="fill:#ffa8a7"></path><path d="M279.67,133.92s3.44,1.42,4.4,7.55.28,12.33-2.09,15.63a5.91,5.91,0,0,1-4.79,1.42,7,7,0,0,1-4.33-2.61s4.17,1,6.87-5S280.59,137.47,279.67,133.92Z" style="fill:#455a64"></path><path d="M362.89,179.4s.59,4.56-.16,5.73S348,190,329.82,188.2s-23.68-6.56-24.32-7.62-.52-3.53,0-6.22Z" style="fill:#FFC727"></path><path d="M362.89,179.4s.59,4.56-.16,5.73S348,190,329.82,188.2s-23.68-6.56-24.32-7.62-.52-3.53,0-6.22Z" style="opacity:0.2"></path><path d="M305,120.67c.79-15.61,7.08-21.91,15.81-22.68l19.64-1.32c4.2,1.1,17.32,4.25,23,6s5.78,14.54,4.45,23-4.14,15-4.92,29.24c.23,13.52,3.67,20.64.33,24.23-12.21,7.74-45.22,5.18-58.12-2.59-2.73-1.35.08-11.62-.19-19.94C304.61,142.32,304.76,126.05,305,120.67Z" style="fill:#FFC727"></path><path d="M348.49,98.68c-2.8-.69-6.6-1.64-8-2l-13.05.88h0c-3.74,2.25-8.73,7.6-2.75,10.54s15.84.14,19.71-3.71C346.69,102.1,348,100.37,348.49,98.68Z" style="fill:#455a64"></path><path d="M310.19,54.48c-1.62.68-2.49,2.73-2.54,4.49a6.51,6.51,0,0,0,1.11,3.82,8.47,8.47,0,0,0,4.5,2.95,11.68,11.68,0,0,1,2.25.76A18.79,18.79,0,0,1,318,68.64c1.2.93,2.4,1.89,3.63,2.79a77.47,77.47,0,0,0,7.65,5,55.4,55.4,0,0,0,7.91,3.73c2.91,1.08,5.36.13,8.41.41L345.18,89s1-1.94,2.21-4.25c1-2,5.26-12.11,5.26-12.11,1.66-4,3.79-8.15,3.53-12.59-.2-3.58-.93-6.75-3.66-8.27-.22-4.13-1.17-6.15-4.07-8.37a16.15,16.15,0,0,0-7.17-2.7,28.93,28.93,0,0,0-8.71.31c-4.29.68-8.59,1.78-12.93,1.56a20.74,20.74,0,0,0-6.95.43,7,7,0,0,0-4.87,6.89C307.82,51.53,309.08,54.13,310.19,54.48Z" style="fill:#455a64"></path><path d="M338.09,53.55c0,.14,1.79,1.24,4.83,1.52a12.24,12.24,0,0,0,6.07-.73,10,10,0,0,1,2.68-.94c.46.24-.26.87-.54,1.11a11.38,11.38,0,0,1-3.29,1.94,14.75,14.75,0,0,1-3,.8c-.42.07-.67.4-.3.71a2,2,0,0,0,1.28.44c.6,0,1.19.1,1.79.1a17.49,17.49,0,0,0,3.53-.37c.13,0,.32,0,.37.09a.29.29,0,0,1,0,.22,2.1,2.1,0,0,1-1,.81c-1.32.6-2.77.85-4.11,1.4a1.14,1.14,0,0,0-.73.6,1,1,0,0,0,.25.89,4.24,4.24,0,0,1,.59.75,1.15,1.15,0,0,1-.08,1.12,3.46,3.46,0,0,1-.61.6,5.25,5.25,0,0,0-1.12,1.53,9.84,9.84,0,0,0-.77,1.83S335.32,62,338.09,53.55Z" style="fill:#e0e0e0"></path><path d="M338.09,53.55c0,2.62,2.51,7.26,6.23,10.5a26.14,26.14,0,0,0-.21,8.86,4.81,4.81,0,0,0,.67,1.77,2.12,2.12,0,0,0,1.56,1c.85.07,1.2-.45,1.47-1.12a19.63,19.63,0,0,1,1.3-2.49,4.24,4.24,0,0,1,.76-1c1.3-1.2,5.15-2.67,6.93,1.43s-1.55,9.86-4.66,10.73c-5.34,1.49-6.51-2.15-6.51-2.15l.1,17.68c-1.5,4.49-9.8,8.84-16.49,8s-4.56-4.91-1.84-7.64L327.05,93a26.31,26.31,0,0,1-7.12-.25c-2.78-.54-5.06-3.14-6.21-7.37-2.19-8.06-1.83-19.49-.8-24.55s3.71-8.31,5.21-9.06c-.05,1.08.84,3.7,6.23,4.44C330.08,57,334,55.24,338.09,53.55Z" style="fill:#ffa8a7"></path><path d="M327.05,93c4.94-.44,8.95-1.12,11.73-2.59,2-1.08,3.8-4.43,4.33-5.62,0,0-.14,4.59-2.87,7.13-3.88,3.6-13.05,3.6-13.05,3.6Z" style="fill:#f28f8f"></path><path d="M329.59,70.47a1.79,1.79,0,1,0,1.85-1.8A1.83,1.83,0,0,0,329.59,70.47Z" style="fill:#263238"></path><path d="M330.3,64.62l4.32,1.8a2.46,2.46,0,0,0-1.31-3.14A2.28,2.28,0,0,0,330.3,64.62Z" style="fill:#263238"></path><path d="M331.16,80.3l-5.86,2.4a3.11,3.11,0,0,0,4.09,1.84A3.32,3.32,0,0,0,331.16,80.3Z" style="fill:#f28f8f"></path><path d="M314.06,66.32l4.28-1.66a2.2,2.2,0,0,0-2.9-1.29A2.34,2.34,0,0,0,314.06,66.32Z" style="fill:#263238"></path><path d="M315.16,70.09A1.8,1.8,0,1,0,317,68.28,1.83,1.83,0,0,0,315.16,70.09Z" style="fill:#263238"></path><polygon points="324.68 78.48 318.08 77.23 324.31 66.68 324.68 78.48" style="fill:#f28f8f"></polygon><path d="M313.1,127.38c-1.63-2.2-3.32-4.27-4.57-4.7s-3.06,2.49-2.16,4.53C306.37,127.21,311.59,128.32,313.1,127.38Z" style="fill:#f28f8f"></path><g id="freepik--Spoon--inject-56"><path d="M299.07,130.48l29.14-5.06.71-.37-.26.56a1.37,1.37,0,0,1-1,.78l-28.88,5Z" style="fill:#e0e0e0"></path><path d="M299.11,130.26c-.22,1.26-.61,3.77-4.91,4.87s-8.42-1.62-8-4.25Z" style="fill:#ebebeb"></path><path d="M295.81,133.12c-3.12,1.16-7.05.92-8.77-.52s-.61-3.81,2.48-5,7.12-.86,8.84.58a2.35,2.35,0,0,1,.75,2.1C298.93,131.31,297.76,132.4,295.81,133.12Z" style="fill:#f5f5f5"></path><path d="M329,124.24h0a1.39,1.39,0,0,0-1.55-.89l-30,5.2c-.91.16-1.29.72-.85,1.25h0a2.87,2.87,0,0,0,2.45.67l29.27-5.07A.87.87,0,0,0,329,124.24Z" style="fill:#f5f5f5"></path><path d="M287.3,128.92a7,7,0,0,1,2.22-1.36c3-1.2,7.12-.86,8.84.58a1.52,1.52,0,0,1,.22.22l28.9-5a1.39,1.39,0,0,1,1.55.89.81.81,0,0,1,0,.53c-.14-1.14-1.09-.91-2.49-.7s-28.32,4.87-28.32,4.87a7,7,0,0,0-4.87-1.52C290.91,127.52,288.35,128.13,287.3,128.92Z" style="fill:#fff;opacity:0.1"></path><path d="M287.33,130.23a2.43,2.43,0,0,1,1.08-1.07c-.37,1.5,1.38,2.46,3.88,2.62,2.86.17,5.82-1.15,5.91-2.61a2,2,0,0,1,.18.6c.16,2.09-4.35,4-7.62,3.64S286.71,131.56,287.33,130.23Z" style="opacity:0.1"></path></g><path d="M377.54,152.63c-.17-5.44-2.41-33.74-3.77-39.09s-3.39-8.66-11.54-11.29c0,0-9.53,8.78-7.3,24.67l3.28,19.34s-2.63,0-10.31-.9c-8.12-.9-17.45-1.56-18.9-4-.42-3.55-1.29-7.67-1.67-9.38a3.9,3.9,0,0,0-.18-.79h0a3.75,3.75,0,0,0-.93-1.37c-1.84-1.63-2.55-1.27-5.32-1.49s-6.38-.78-9.58-1.13-4.68-.36-5.46.35a1.68,1.68,0,0,0,.43,2.56l-3.45.6a5.29,5.29,0,0,0,3.3,3.34l3,1.2c-1.29,1.9-.94,3.71.6,4.77a2.68,2.68,0,0,0,.57,3.84,18.21,18.21,0,0,0,3,1.86c.41,3.39,1.39,4.49,2.23,5.43,1.87,2.1,3.88,2.78,6.8,3.29s12.52,3.33,21.76,5.9c6.29,1.75,18,5.54,26.26,4.69S377.71,158.06,377.54,152.63Z" style="fill:#ffa8a7"></path><path d="M309.73,140c.8.56,5.87,2.2,6.15,2.45s.23.8-1.07.23S310.67,141.31,309.73,140Z" style="fill:#f28f8f"></path><path d="M314,137.63c1.25.37,4,1,4.08.51s-2.13-.75-2.82-.93a37.39,37.39,0,0,1-6.17-2,5.72,5.72,0,0,0-.3.52C310.8,136.56,313.17,137.38,314,137.63Z" style="fill:#f28f8f"></path><path d="M320.41,134.21c.12-.45-1.54-.59-2.35-.78s-10-2.54-11.78-3.34l-.82.14,7.49,2.36c1.67.52,2.5.75,4.61,1.27S320.3,134.66,320.41,134.21Z" style="fill:#f28f8f"></path><path d="M360.62,101.81c6.08.93,9.73,3.14,11.43,5.69s2.44,6.34,3.53,14.24,2.92,32.39,2.56,36.34-1.54,7.48-8.74,7c0,0,2.24-12.6-11.19-18.87l-2-.11a8.63,8.63,0,0,1,0-3.6c.39-2.32-2.65-16.42-2.65-16.42A28,28,0,0,1,360.62,101.81Z" style="fill:#FFC727"></path><path d="M360.62,101.81c6.08.93,9.73,3.14,11.43,5.69s2.44,6.34,3.53,14.24,2.92,32.39,2.56,36.34-1.54,7.48-8.74,7c0,0,2.24-12.6-11.19-18.87l-2-.11a8.63,8.63,0,0,1,0-3.6c.39-2.32-2.65-16.42-2.65-16.42A28,28,0,0,1,360.62,101.81Z" style="opacity:0.2"></path><path d="M356.2,146.15s5.22-1.55,9.42-.29,6.24.49,6.65,1.47-1,2-4.19.7S363.13,145.81,356.2,146.15Z" style="opacity:0.2"></path><path d="M358.21,146.26l-2-.11s6.22,6.8,7,11.93-.05,6.74-.05,6.74l-1.27-.17s-.95,1,2.09,1.43,5.07.44,5.56,0,.73-1.5.81-4S368,148.71,358.21,146.26Z" style="fill:#455a64"></path></g></g></g></g><g id="freepik--character-1--inject-56"><g id="freepik--character--inject-56"><g id="freepik--shadow--inject-56" style="opacity:0.1"><path d="M246.55,275.26c-6.78-2.42-23.86-5-28.41-6C211.05,267.57,210,253,205.5,237c-8-28.56-17.35-25.8-26-25.39-16.05.74-32.84,9.51-37.34,21.23s-6.25,29.77-3.91,45.94c2.22,15.28,6.08,22.79,6.08,22.79a21.42,21.42,0,0,0-20.37,9.74s14.17-7.4,30.07-1.61c-1.67,13.81.57,30.52,12.1,35.92,5.64,2.65,15.19.17,24.17-3.39-.61,12,11.09,15.72,15.54,16.28,9,1.13,5.51-12.73,3.07-22.41-2.07-8.22,18.57-17.09,25.52-18.05s21.24,13.34,24.88,6c1.7-3.43.82-7.8-1.24-11.74-3-5.71-9.86-9.33-9.86-9.33C262.14,295.52,264.85,281.8,246.55,275.26Z"></path></g><g id="freepik--bottom--inject-56"><path d="M156.61,316.6c15.12,1.18,68.44-13.74,79.5-47.43,0,0-17.36-8.52-33-9.06s-39.74,10.18-46,29.88A47.88,47.88,0,0,0,156.61,316.6Z" style="fill:#FFC727"></path><path d="M156.61,316.6c15.12,1.18,68.44-13.74,79.5-47.43,0,0-17.36-8.52-33-9.06s-39.74,10.18-46,29.88A47.88,47.88,0,0,0,156.61,316.6Z" style="opacity:0.35000000000000003"></path><path d="M204.87,265l-49.44,7.69s-1.2,5.08-.84,14.7c.37,9.8,1.71,34.61,4.13,40.59s4.27,12,18.18,10.87L187,313.8l.21-16.88a64.31,64.31,0,0,0,9-3.45s14.11,1.17,22.47,0,17.91-6.82,17.91-6.82l11.57-14.32C239.24,268.2,204.87,265,204.87,265Z" style="fill:#37474f"></path><path d="M217.19,291.1c-5.18.54-12.32.63-16.89-.94,2.37-8,.85-12.72.85-12.72-.31,2.43-.66,8.35-4.4,12.62-.78.39-7.59,3.58-9.1,2.14a16.55,16.55,0,0,0-9.2-6.48c4.65,3.39,7.76,7,8.76,11.2,0,0,5-1.7,9-3.45a133.91,133.91,0,0,0,21.69.13l13.34-8.36S226,284.13,217.19,291.1Z" style="fill:#263238"></path><path d="M187.05,309.74a26.28,26.28,0,0,0-11.54,6.34s1.52-7.37,11.54-9.46Z" style="fill:#263238"></path><path d="M210.27,305c-5.92,9.92-7.54,12.4-10.86,14.95-2.31,1.77-5.74,4-3.76,9.53,1.25,3.53-.07,6.53-.11,10.22a12.78,12.78,0,0,0,4.58,10.6,20.19,20.19,0,0,0,6.46,4.42c2.32.94,3.69.78,4.83.2a4.26,4.26,0,0,0,2.11-3.77,27.15,27.15,0,0,0-1.32-6.32,58.07,58.07,0,0,1-2.32-9.73,10.62,10.62,0,0,1,.56-5.72c1.91-4.33,12.25-15.26,12.25-15.26Z" style="fill:#f0f0f0"></path><path d="M206.58,354.76a20.19,20.19,0,0,1-6.46-4.42,13.07,13.07,0,0,1-3.9-5.69,8,8,0,0,1,7.87-3.77,18.79,18.79,0,0,1,7.8,3.06c.1.31.2.62.31.93a27.15,27.15,0,0,1,1.32,6.32,4.26,4.26,0,0,1-2.11,3.77C210.27,355.54,208.9,355.7,206.58,354.76Z" style="fill:#FFC727"></path><path d="M196,330.8a9.44,9.44,0,0,0-.35-1.28c-2-5.56,1.45-7.76,3.76-9.53l.59-.47A8.43,8.43,0,0,1,196,330.8Z" style="fill:#FFC727"></path><path d="M210.45,349.3c.09-5.25-4.4-16.08-4.75-18.92s4.35-7.85,4.35-7.85a8.63,8.63,0,0,1-5.39-8.4c1.41-2.09,3.13-4.94,5.61-9.09l12.42,9.12s-10.34,10.93-12.25,15.26a10.62,10.62,0,0,0-.56,5.72,58.07,58.07,0,0,0,2.32,9.73,27.15,27.15,0,0,1,1.32,6.32,4.26,4.26,0,0,1-2.11,3.77c-1.14.58-2.51.74-4.83-.2l-.13-.06C208.49,355,210.37,354,210.45,349.3Z" style="opacity:0.1"></path><path d="M238.08,270.29c16.49.74,20.23,10.48,17.32,17.64-3.14,7.72-16.46,16.85-24.19,23.27-7.11,5.92-16.75,12.35-16.75,12.35s-9.6-4.62-9.74-10.76c6.73-11.18,12.07-22.5,26.53-27.55Z" style="fill:#37474f"></path><path d="M212.24,305.09c11.19-2.82,14-3.67,17.43-6.11,2.36-1.71,5.45-4.36,10.21-.87,3,2.22,6.28,1.81,9.82,2.83a12.81,12.81,0,0,1,8.84,7.43,20.08,20.08,0,0,1,2.38,7.46c.24,2.49-.32,3.76-1.19,4.68a4.27,4.27,0,0,1-4.23.94,27.39,27.39,0,0,1-5.67-3.08,58.57,58.57,0,0,0-8.66-5,10.52,10.52,0,0,0-5.63-1.11c-4.7.59-18.14,7.35-18.14,7.35Z" style="fill:#f0f0f0"></path><path d="M260.92,315.83a20.08,20.08,0,0,0-2.38-7.46,13.15,13.15,0,0,0-4.33-5.37,8,8,0,0,0-5.87,6.46,18.7,18.7,0,0,0,.69,8.35l.8.56a27.39,27.39,0,0,0,5.67,3.08,4.27,4.27,0,0,0,4.23-.94C260.6,319.59,261.16,318.32,260.92,315.83Z" style="fill:#FFC727"></path><path d="M241,298.81a9.8,9.8,0,0,1-1.12-.7c-4.76-3.49-7.85-.84-10.21.87l-.62.43A8.43,8.43,0,0,0,241,298.81Z" style="fill:#FFC727"></path><path d="M254.57,318c-5-1.41-14.13-8.83-16.75-10s-8.77,1.91-8.77,1.91a8.64,8.64,0,0,0-6.5-7.58c-2.41.75-5.63,1.59-10.31,2.77l5.16,14.51s13.44-6.76,18.14-7.35a10.52,10.52,0,0,1,5.63,1.11,58.57,58.57,0,0,1,8.66,5,27.39,27.39,0,0,0,5.67,3.08,4.27,4.27,0,0,0,4.23-.94c.87-.92,1.43-2.19,1.19-4.68a.68.68,0,0,1,0-.14C260.57,317.72,259.06,319.22,254.57,318Z" style="opacity:0.1"></path><path d="M163.41,332.72c1.14,5.61,7.57,8.09,21,4.85S227.5,316,227.5,316s.68-10.51-5.18-13.74c0,0-7.1,1.16-19.74,4.44-4.15,1.08-14.28,1.61-20.13,4.91,0,0-9.23,7.06-11.89,10.69C166.13,328.35,163.41,332.72,163.41,332.72Z" style="fill:#37474f"></path></g><g id="freepik--top--inject-56"><path d="M194.89,201.63a6.2,6.2,0,0,1,.69,2.25,6.43,6.43,0,0,1,0,2.23,2.25,2.25,0,0,1,1.4.47,4.75,4.75,0,0,1,1.47,1.85,4.82,4.82,0,0,1,.16,3.54,4.73,4.73,0,0,1,2.31,3.07,5.38,5.38,0,0,1-1.54,4.89,4.61,4.61,0,0,1-.68,7,2.21,2.21,0,0,0-.85.75c-.31.61.13,1.31.28,2A3.93,3.93,0,0,1,197,233a16.84,16.84,0,0,0-2.3,2.77,2.73,2.73,0,0,0,.31,3.31,6.43,6.43,0,0,1,.43-11.24,9.42,9.42,0,0,1-1.42-3.48,3.22,3.22,0,0,1,1.44-3.26c-1.26-.31-2.35-1.88-2.81-3a6.06,6.06,0,0,1-.26-3.83A3.53,3.53,0,0,1,190,210a5.27,5.27,0,0,1-1.6-7.17c.29-.41.48-.88.76-1.29a7.21,7.21,0,0,1,1.68-1.53,2.53,2.53,0,0,1,1.36-.64,2.16,2.16,0,0,1,1.46.67A5.88,5.88,0,0,1,194.89,201.63Z" style="fill:#37474f"></path><path d="M160.49,216.15c-5.44,1.78-6.2,4.57-6.41,8-.31,4.89.31,8.57.83,12.83s2.65,19.35,2.65,19.35c-2.06,5.59-3.15,12.5-3.57,20.33,26.53,6.75,46.47-4,49.3-9.68,0,0-1.08-3.78-2.25-6.94a174.48,174.48,0,0,0-.2-30.66c-1.28-9.79-4-15.07-8.4-16.14a20.23,20.23,0,0,0-3.78-.17l-16,.59A67.94,67.94,0,0,0,160.49,216.15Z" style="fill:#455a64"></path><path d="M182.84,210.85a30.6,30.6,0,0,1,12.83,16.58c2.41,7.61.89,24.47,1.69,26.61s-.21,10.86,6.39,17.71c5.89,6.11,8.72,7.19,10.59,8.14,3.07,1.57,4.58.77,7.39-2.72,3.68-4.57,5.89-6.88,10.45-8.67l3.93.67s-.64-2.74-4.47-3.83c-6.27-1.78-16.33-4.47-19.21-8.07l5.42-11.17s-6.2-15.08-9.94-23.46c-5.76-12.91-10.23-15-15.93-14.87s-9.1.35-9.1.35Z" style="fill:#FFC727"></path><polygon points="206.23 245.04 204.75 228.98 208.86 245.09 206.23 245.04" style="opacity:0.1"></polygon><path d="M182.84,210.85l0-4.83a33.3,33.3,0,0,1,4.22,1.11,17.19,17.19,0,0,1,4.25,2.31c2.8,2.06,7.3,8.63,8.72,14.05s1.17,17.23.11,23.53-1.62,14.39-1.62,14.39a15.75,15.75,0,0,1-1.1-3.05,24.4,24.4,0,0,1-.6-4.31c-.33-3.42.19-18.65-2.22-26.26S188,214,182.84,210.85Z" style="fill:#ebebeb"></path><path d="M170.49,206.81c-6.28-1.89-10.82-6.7-12.93-14.38-3.19-11.61,4-17.94,7.37-18.53,0,0,1.42-5.59,8.44-9a21.42,21.42,0,0,1,19.47.88,17.87,17.87,0,0,1,7.45,7.26,17.5,17.5,0,0,1,1.41,11.59,11.64,11.64,0,0,1-4.81,6.31,26.28,26.28,0,0,1-7.39,3.25c-1.61.49-3.23.92-4.84,1.42a12.62,12.62,0,0,0-2.47.84,9.59,9.59,0,0,0-1.39,1.32l-8,7.53C172.21,205.87,171.18,206.81,170.49,206.81Z" style="fill:#37474f"></path><path d="M169.35,192.29a1.2,1.2,0,0,1-.21.17c-1.15.73-1.11-1.26-2.22-2.59a3,3,0,0,0-2.44-1,3.77,3.77,0,0,0-3.57,2.17,5.57,5.57,0,0,0,3.28,7.27,4.15,4.15,0,0,0,4.8-1.46l.93,17.62s3,7.12,11,8.07,7.68-5.45,5-8.61v-5.41a19,19,0,0,0,5.87-.8,11.19,11.19,0,0,0,7.31-8.73c.55-2.86-.31-5.41-.28-8.3a43.28,43.28,0,0,0,.09-6,4.48,4.48,0,0,0-.8-2.68,4.33,4.33,0,0,0-2.18-1.18,11.55,11.55,0,0,0-3.27-.13c-2.91.18-6.38,1.36-9.27,1a15.65,15.65,0,0,1-7.4-3,15.33,15.33,0,0,1-1.41,6,6.8,6.8,0,0,1-4.69,3.46,6.83,6.83,0,0,1-.09,3.24A2.11,2.11,0,0,1,169.35,192.29Z" style="fill:#ffa8a7"></path><path d="M182.77,189.3a1.83,1.83,0,1,1-3.34,1.51c-.44-1,.22-1.53,1.15-1.95S182.33,188.34,182.77,189.3Z" style="fill:#263238"></path><path d="M192.19,188.66a1.84,1.84,0,1,0,3.47,1.19c.34-1-.37-1.51-1.33-1.84S192.53,187.67,192.19,188.66Z" style="fill:#263238"></path><path d="M182.44,186.2l-4.14,1.61a2.33,2.33,0,0,1,1.31-2.95A2.16,2.16,0,0,1,182.44,186.2Z" style="fill:#263238"></path><path d="M196,186.63l-4.24-1.46a2.15,2.15,0,0,1,2.78-1.43A2.35,2.35,0,0,1,196,186.63Z" style="fill:#263238"></path><polygon points="186.92 187.43 187.52 196.72 192.65 194.71 186.92 187.43" style="fill:#f28f8f"></polygon><path d="M190.33,192.47c-2.28,1.21-2.81,4.25-2.81,4.25l5.13-2-1.91-2.42A2.34,2.34,0,0,0,190.33,192.47Z" style="opacity:0.15"></path><path d="M179.72,193.86c.4,1.35-.8,2.9-2.69,3.47s-3.74-.07-4.15-1.42.8-2.91,2.69-3.47S179.31,192.51,179.72,193.86Z" style="fill:#f28f8f"></path><path d="M202.5,194.15c-.17,1.4-1.89,2.34-3.85,2.1s-3.4-1.57-3.23-3,1.9-2.33,3.85-2.09S202.67,192.75,202.5,194.15Z" style="fill:#f28f8f"></path><path d="M185.93,208.53s-6.13-.38-10.71-3.17a11.71,11.71,0,0,1-4.23-5.29,13.25,13.25,0,0,0,2.38,5.16c4.38,4.85,12.56,5.16,12.56,5.16Z" style="fill:#f28f8f"></path><path d="M187,202.52Z" style="fill:#b16668"></path><path d="M182.54,201.86h0S182.47,201.87,182.54,201.86Z" style="fill:#b16668"></path><path d="M210,197.44,192.38,202c-.69.26-.86-1.08,0-1.36l17.6-6.41Z" style="fill:#FFC727"></path><path d="M207.05,196.24l-14.66,4.84c-.22.08-.25.59,0,.54.51-.12,15-4.18,15-4.18Z" style="fill:#f28f8f"></path><path d="M205.84,195.75l4.14-1.51v3.2l-3.1.81A4.32,4.32,0,0,1,205.84,195.75Z" style="opacity:0.2"></path><path d="M207.41,195a4.39,4.39,0,1,0,4.39-4.39A4.4,4.4,0,0,0,207.41,195Z" style="fill:#FFC727"></path><path d="M209.24,195a2.56,2.56,0,1,0,2.56-2.56A2.55,2.55,0,0,0,209.24,195Z" style="fill:#f28f8f"></path><path d="M192.7,201.4a2.61,2.61,0,0,0-1.73-.62,2.27,2.27,0,0,0-1.05.26,2,2,0,0,0-.61.38s-.05.13,0,.16a.28.28,0,0,0,.18,0l.28,0a5,5,0,0,1,.54-.06h.3l.28,0H191a2.54,2.54,0,0,1,.61.19,1.63,1.63,0,0,1,.51.34,3.48,3.48,0,0,1,.28.39.73.73,0,0,0,.33.24.43.43,0,0,0,.6-.26.82.82,0,0,0-.06-.34A1.89,1.89,0,0,0,192.7,201.4Z" style="fill:#b16668"></path><g id="freepik--Pain--inject-56"><polygon points="153.45 180.75 147.8 178.94 150.29 175.87 138.69 172.83 142.85 169.28 130.22 165.27 138.17 170.04 133.13 173.85 146.67 176.99 144.14 180.65 153.45 180.75" style="fill:#f28f8f"></polygon><polygon points="154.83 173.48 150.88 170.9 152.46 169.21 148.88 166.27 151.52 164.78 149.73 160.54 152.59 164.95 150.77 166.17 154.59 169.08 152.72 171 154.83 173.48" style="fill:#f28f8f"></polygon><polygon points="155.05 185.69 149.64 191.78 146.68 188.78 141.71 192.79 138.66 188.97 130.51 192.72 139.54 186.17 143.09 189.56 147.23 186.25 149.75 189.18 155.05 185.69" style="fill:#f28f8f"></polygon></g><path d="M170.82,162.23a26.19,26.19,0,0,1,4.85-4.56,11.56,11.56,0,0,1,8.07-1.89,9.33,9.33,0,0,1,6.74,4.63,10.2,10.2,0,0,1-.22,9.31,20.48,20.48,0,0,1-8.44,8.21c-4,2.32-8.17,4.55-12.81,5.37a15.32,15.32,0,0,1-10.64-1.66c-2.74-1.71-3.42-6.17-1.53-8.74,1.24-1.69,3.3-2.53,5.16-3.51a28.49,28.49,0,0,0,7.12-5.32C169.7,163.47,170.26,162.85,170.82,162.23Z" style="fill:#FFC727"></path><path d="M156.84,172.9c1.24-1.69,3.3-2.53,5.16-3.51.3-.15.59-.32.89-.49h0c-4.66,3.34-3.15,6.84.27,8.31s10.91.72,18.65-4.76c9.65-6.84,7.41-13.69,5.3-15.45a8.83,8.83,0,0,1,3.37,3.41,10.2,10.2,0,0,1-.22,9.31,20.48,20.48,0,0,1-8.44,8.21c-4,2.32-8.17,4.55-12.81,5.37a15.32,15.32,0,0,1-10.64-1.66C155.63,179.93,155,175.47,156.84,172.9Z" style="opacity:0.1"></path><path d="M166.26,166.26a6.74,6.74,0,0,1,2.16-1l2.55-1.18.92,2h0a2,2,0,0,1-.38,2,6.21,6.21,0,0,1-5.13,2.35,2,2,0,0,1-1.74-1h0l-.92-2Z" style="fill:#37474f"></path><path d="M170.59,166.07a6.2,6.2,0,0,1-5.12,2.35c-1.8-.17-2.41-1.5-1.37-3a6.22,6.22,0,0,1,5.13-2.36C171,163.27,171.63,164.6,170.59,166.07Z" style="fill:#455a64"></path><path d="M221.36,248.85c2-.47,3.18,1.87,2.8,5.62s-3,10.59-8.69,8.48S221.36,248.85,221.36,248.85Z" style="fill:#f28f8f"></path><path d="M202.53,241.49c.37-.89,1.43-1.65,3.18-2.11a19.87,19.87,0,0,1,13.7,2.12c1.52,1,2.31,2,2.39,3h0c-.3,6.22-2.49,13.14-5.27,16.73l-.06.07a.1.1,0,0,1,0,.05h0a4.67,4.67,0,0,1-2,1.41,11.59,11.59,0,0,1-10.39-1.6,4.75,4.75,0,0,1-1.53-2h0s0,0,0-.05a.3.3,0,0,0,0-.1c-1.56-4.26-1.56-11.52,0-17.53Z" style="fill:#f5f5f5"></path><path d="M205.71,239.38c-4,1.06-4.45,3.73-.92,6a19.87,19.87,0,0,0,13.7,2.12c4-1.06,4.45-3.72.92-5.95A19.87,19.87,0,0,0,205.71,239.38Z" style="fill:#fafafa"></path><path d="M206.87,240.62c-3.22.6-3.48,2.34-.6,3.89a19.67,19.67,0,0,0,11,1.71c3.22-.61,3.49-2.35.6-3.89A19.55,19.55,0,0,0,206.87,240.62Z" style="fill:#e6e6e6"></path><path d="M206.51,243a5.92,5.92,0,0,0-1.65.53,5.64,5.64,0,0,0,1.41,1,19.67,19.67,0,0,0,11,1.71,5.79,5.79,0,0,0,1.65-.54,5.91,5.91,0,0,0-1.41-1A19.55,19.55,0,0,0,206.51,243Z" style="fill:#FFC727"></path><path d="M213.12,237a5.72,5.72,0,0,1-2.28-7.07c1.22-2.83,3.73-4.81,2.32-6.77,0,0,3,1.32,2.43,4.31C214.82,231.46,211.57,232.27,213.12,237Z" style="fill:#fafafa"></path><path d="M214.68,237s-.81-2.47.24-4.19,2.58-2.7,2.51-4.59a3.86,3.86,0,0,1,.7,4C217.13,234.36,215,234.68,214.68,237Z" style="fill:#fafafa"></path><path d="M151,263.34c-1.62-8-1.28-10-2.86-27.6-1.08-11.88,6.88-18.12,15-22.68,9.74,11.43,1.82,25.84,1.82,25.84l2.85,17.17s25.41-.38,27.5-1.8c1.72-1.17,4-6.3,6.1-6.16a34.49,34.49,0,0,0-.09,4.09c-.07.86,4.45,1.91,9.05,1.84s11.71-3.28,10.46,2c-.84,3.55-1.82,6.11-4.89,7.8-5.57,3.05-11.48,2.25-17.23,2.72s-21.43,3-31,3C158.9,269.62,152.32,269.68,151,263.34Z" style="fill:#ffa8a7"></path><path d="M169.53,208.52c-7.71,4-14.78,7.58-17.54,10.69-2.21,2.48-4.93,5.09-4.93,13.85,0,5.57.32,26.81,2.47,35.37.52,2.07,1.91,2.74,4,3.34-.08,4.73-2.08,5.67-1.84,19.62.28,17.08-.82,21,.7,23.09a5.6,5.6,0,0,0,4.18,2.12l-.53-5.25c1.17-4.28,5.82-9.33,24.06-10.38,8.85-.5,14.32.31,15.33-.46,3.53-2.71.13-33.59.13-33.59a14.62,14.62,0,0,1-2.41-2.64c-2.3-3.46-3.29-8.26-1.65-9.27l1.13-.13a41.77,41.77,0,0,0-7.51-20C178.24,225.36,169.54,220.43,169.53,208.52Z" style="fill:#FFC727"></path><path d="M166.55,271.46l29.5.07c-.28-3.14-.45-4.6-.45-4.6h0Z" style="opacity:0.1"></path><path d="M174.45,220.11c-3.7-4.83-4.85-11.67-4.85-11.67l-.09-1.75a22.75,22.75,0,0,0-5.94,3.28c-2.5,2.07-2,4.08.1,9.3,2.07,5,10.32,13.63,15.9,18.22s12.54,13.34,13.1,17.39c.5-.07,1-.14,1.45-.24C192.21,234,178.16,224.94,174.45,220.11Z" style="fill:#ebebeb"></path><path d="M191.54,255s-21.78.21-22.69.35-2.76-16.46-2.76-16.46,3.33,12.52,4.26,13.78S191.54,255,191.54,255Z" style="opacity:0.1"></path><path d="M160.46,202.14a6.43,6.43,0,0,0-.24,2.35,6.59,6.59,0,0,0,.41,2.18,2.31,2.31,0,0,0-1.28.74,4.82,4.82,0,0,0-.55,5.61,4.73,4.73,0,0,0-1.67,3.45,5.38,5.38,0,0,0,2.46,4.5,4.6,4.6,0,0,0,2,6.78,2.27,2.27,0,0,1,1,.58c.42.54.13,1.31.11,2a4,4,0,0,0,1.75,3,17.08,17.08,0,0,1,2.79,2.27,2.74,2.74,0,0,1,.34,3.31A6.43,6.43,0,0,0,165,228a9.34,9.34,0,0,0,.72-3.7,3.21,3.21,0,0,0-2.05-2.92c1.18-.54,2-2.29,2.18-3.48a6,6,0,0,0-.49-3.81,3.51,3.51,0,0,0,1.54-4.66c2-1.91,2.34-5.73.35-7.65-.36-.35-.68-.92-1-1.27a6.47,6.47,0,0,0-1.59-1.42,2.27,2.27,0,0,0-1.4-.34c-.55.09-1.51,1.18-1.84,1.62A5.82,5.82,0,0,0,160.46,202.14Z" style="fill:#37474f"></path></g></g></g><g id="freepik--Medicine--inject-56"><g id="freepik--pill-bottle--inject-56"><path d="M119,314c0-5.16-3.41-10.31-10.22-14.24-13.63-7.87-35.71-7.87-49.34,0-6.81,3.93-10.22,9.08-10.22,14.24h0v79.3h0c0,5.15,3.41,10.31,10.22,14.24,13.63,7.87,35.71,7.87,49.34,0,6.81-3.93,10.22-9.09,10.22-14.24h0Z" style="fill:#FFC727"></path><path d="M105.57,298.14v111a33,33,0,0,0,3.2-1.61,26.48,26.48,0,0,0,5.54-4.21V304a26.45,26.45,0,0,0-5.54-4.2A35.47,35.47,0,0,0,105.57,298.14Z" style="fill:#fff;opacity:0.4"></path><path d="M96.43,412.12a46.81,46.81,0,0,0,5-1.37V296.55a49.28,49.28,0,0,0-5-1.38Z" style="fill:#fff;opacity:0.4"></path><path d="M118.38,310.28a25,25,0,0,0-8.12-7c-13.44-7.76-34.65-8.29-49.18-1.61V298.9c-.55.28-1.12.55-1.65.86-6.81,3.93-10.22,9.08-10.22,14.24v13.63h0V377.5h0v15.8c0,5.15,3.41,10.31,10.22,14.24,13.63,7.87,35.71,7.87,49.34,0a25.88,25.88,0,0,0,6.22-4.87c-6.49,6.06-22.64,9.4-34.64,7s-19.27-10-19.27-15.46v-14c6.73,3.65,15.53,5.38,24.13,5.38v-36.2c-8.6,0-17.4-1.33-24.13-4.95v-9.42c14.53,6.68,35.74,6.15,49.18-1.61a23.89,23.89,0,0,0,8.73-8.05V314A12,12,0,0,0,118.38,310.28Z" style="opacity:0.1"></path><path d="M55.11,395.8v-93c-3.92,3.38-5.9,7.29-5.9,11.2v79.3c0,5.15,3.41,10.31,10.22,14.24a43.92,43.92,0,0,0,13.25,4.77C59.57,408.76,55.11,399.8,55.11,395.8Z" style="opacity:0.1"></path><path d="M121.1,298.07c0-5.47-3.61-10.94-10.84-15.11-14.45-8.34-37.87-8.34-52.32,0-7.23,4.17-10.84,9.64-10.84,15.11h0v16.4h0c0,5.46,3.61,10.93,10.84,15.1,14.45,8.34,37.87,8.34,52.32,0,7.23-4.17,10.84-9.64,10.84-15.1h0v-16.4Z" style="fill:#e0e0e0"></path><g style="clip-path:url(#freepik--clip-path--inject-56)"><g style="opacity:0.2"><rect x="120.21" y="296.55" width="1.78" height="25.51"></rect><rect x="116.13" y="303.44" width="1.78" height="25.65"></rect><rect x="109.95" y="308.17" width="1.78" height="25.79"></rect><rect x="102.91" y="311.12" width="1.78" height="25.92"></rect><rect x="95.16" y="313.09" width="1.78" height="26.06"></rect><rect x="86.96" y="314.08" width="1.78" height="26.2"></rect><rect x="78.64" y="314.05" width="1.78" height="26.34"></rect><rect x="70.51" y="312.96" width="1.78" height="26.48"></rect><rect x="62.9" y="310.77" width="1.78" height="26.61"></rect><rect x="56.01" y="307.38" width="1.78" height="26.75"></rect><rect x="50.53" y="302.66" width="1.78" height="26.89"></rect><rect x="46.21" y="295.03" width="1.78" height="27.03"></rect></g><path d="M93,335.19c-18.32.09-28-5.85-30.91-10.7-2.23-3.69-2.62-10.5-2.62-17.25,0,0-2.06-15.38-1.66-15.43.25,0-4.39-1-8-1.79a13.92,13.92,0,0,0-2.72,8.05h0v16.4h0c0,5.46,3.61,10.93,10.84,15.1C67.43,335.05,80.8,336.91,93,335.19Z" style="opacity:0.1"></path></g><ellipse cx="84.1" cy="298.07" rx="37" ry="21.36" style="fill:#ebebeb"></ellipse><path d="M112.25,311.9c12.4-8.39,11.76-21-2-28.94-7-4.07-16.22-6.14-25.45-6.24a41.34,41.34,0,0,0-13.5,4.6c-12.49,7.14-12.49,21.4,0,28.54C82.46,316.24,99.77,316.9,112.25,311.9Z" style="fill:#f5f5f5"></path><path d="M61.44,406c12.51,6.29,32.81,6.29,45.32,0s12.51-16.48,0-22.77-32.81-6.29-45.32,0S48.93,399.66,61.44,406Z" style="opacity:0.1"></path><path d="M49.21,331c0,5.15,3.41,10.31,10.22,14.24s15.74,5.9,24.67,5.9v35.5c-8.93,0-17.86-2-24.67-5.9s-10.22-9.09-10.22-14.24Z" style="fill:#fff"></path><path d="M49.93,306.27s12,12.11,35.28,11.48,32.55-13.33,33.78-17.27a14.55,14.55,0,0,0-3.14-13.39,15.41,15.41,0,0,1,5.25,11v16.4c0,1.38.71,6.15-6.79,12.33,0,0,4.4-5,4.4-9.81V305.65s-8.23,13.77-33.5,13.77S51.2,308.33,49.93,306.27Z" style="fill:#fff"></path></g><g id="freepik--Capsule--inject-56"><path d="M157.89,416.74a3.64,3.64,0,0,1-1.53-3.37,11.5,11.5,0,0,1,5.2-9,3.64,3.64,0,0,1,3.68-.36l6.69,3.87a7.37,7.37,0,0,1-7.37,12.76Z" style="fill:#f5f5f5"></path><path d="M148.67,411.41A7.37,7.37,0,1,1,156,398.65l9.21,5.35a3.64,3.64,0,0,0-3.68.36,11.5,11.5,0,0,0-5.2,9,3.64,3.64,0,0,0,1.53,3.37Z" style="fill:#FFC727"></path><path d="M150.32,400.6a2.81,2.81,0,0,0,1,3.85l11.13,6.46a10.56,10.56,0,0,0,1.53-5.14c0-.17,0-.34,0-.5l-9.82-5.7A2.81,2.81,0,0,0,150.32,400.6Z" style="fill:#fff;opacity:0.4"></path><path d="M157.89,416.74a3.64,3.64,0,0,1-1.53-3.37,11.5,11.5,0,0,1,5.2-9,3.64,3.64,0,0,1,3.68-.36l6.69,3.87a7.37,7.37,0,0,1-7.37,12.76Z" style="fill:#f5f5f5"></path><path d="M161.56,404.36a11.5,11.5,0,0,0-5.2,9,3.64,3.64,0,0,0,1.53,3.37l-.53-.3-.4-.23a3.67,3.67,0,0,1-1.52-3.37,11.5,11.5,0,0,1,5.2-9,3.67,3.67,0,0,1,3.68-.37l.92.54A3.64,3.64,0,0,0,161.56,404.36Z" style="opacity:0.1"></path><path d="M175.56,413.47h0a7.36,7.36,0,0,1-11,7.16l-6.67-3.89a3.64,3.64,0,0,1-1.53-3.37,8.92,8.92,0,0,1,.32-2.25l11.17,6.46C171.52,419.7,175.52,415.88,175.56,413.47Z" style="fill:#ebebeb"></path><path d="M173,413.75a2.81,2.81,0,0,1-3.85,1l-11.29-6.53a10.63,10.63,0,0,1,3.68-3.89l.45-.23,10,5.77A2.81,2.81,0,0,1,173,413.75Z" style="fill:#fff"></path><path d="M146.49,400.58a2.91,2.91,0,0,1,.26-.33c.07-.08.13-.16.2-.23l.24-.24.25-.24.13-.11a7.15,7.15,0,0,1,1.27-.87l0,0c.17-.09.33-.17.5-.24h0c-2.07,1.24-3.38,6.61.29,8.73,1.26.73,3.14,1.85,7,4.09a8.92,8.92,0,0,0-.32,2.25,3.64,3.64,0,0,0,1.53,3.37l-9.22-5.33a7.37,7.37,0,0,1-2.7-10.07c.12-.2.24-.39.37-.57Z" style="opacity:0.1"></path></g><g id="freepik--capsule--inject-56"><path d="M126.7,434.28a3.67,3.67,0,0,0,1.53-3.37,11.49,11.49,0,0,0-5.21-9,3.62,3.62,0,0,0-3.67-.36l-6.69,3.87A7.37,7.37,0,0,0,120,438.17Z" style="fill:#f5f5f5"></path><path d="M135.92,428.94a7.37,7.37,0,1,0-7.37-12.76l-9.2,5.36a3.62,3.62,0,0,1,3.67.36,11.49,11.49,0,0,1,5.21,9,3.67,3.67,0,0,1-1.53,3.37Z" style="fill:#FFC727"></path><path d="M134.27,418.14a2.83,2.83,0,0,1-1,3.85l-11.14,6.46a10.68,10.68,0,0,1-1.52-5.14c0-.17,0-.34,0-.5l9.82-5.71A2.83,2.83,0,0,1,134.27,418.14Z" style="fill:#fff;opacity:0.4"></path><path d="M126.7,434.28a3.67,3.67,0,0,0,1.53-3.37,11.49,11.49,0,0,0-5.21-9,3.62,3.62,0,0,0-3.67-.36l-6.69,3.87A7.37,7.37,0,0,0,120,438.17Z" style="fill:#f5f5f5"></path><path d="M123,421.9a11.49,11.49,0,0,1,5.21,9,3.67,3.67,0,0,1-1.53,3.37l.53-.31.4-.23a3.65,3.65,0,0,0,1.52-3.36,11.49,11.49,0,0,0-5.2-9,3.67,3.67,0,0,0-3.68-.37l-.92.54A3.62,3.62,0,0,1,123,421.9Z" style="opacity:0.1"></path><path d="M109,431h0a7.25,7.25,0,0,0,.94,4.46,7.37,7.37,0,0,0,10.06,2.7l6.67-3.89a3.67,3.67,0,0,0,1.53-3.37,8.51,8.51,0,0,0-.33-2.25l-11.16,6.46C113.07,437.23,109.07,433.42,109,431Z" style="fill:#ebebeb"></path><path d="M111.57,431.29a2.81,2.81,0,0,0,3.85,1l11.29-6.53A10.65,10.65,0,0,0,123,421.9a4.78,4.78,0,0,0-.45-.23l-10,5.77A2.81,2.81,0,0,0,111.57,431.29Z" style="fill:#fff"></path><path d="M138.1,418.11l-.26-.33-.2-.22-.24-.24-.25-.24L137,417a6.74,6.74,0,0,0-1.26-.87l0,0a4.44,4.44,0,0,0-.49-.24h0c2.07,1.24,3.37,6.61-.3,8.73-1.26.73-3.13,1.84-7,4.09a8.51,8.51,0,0,1,.33,2.25,3.67,3.67,0,0,1-1.53,3.37l9.22-5.34a7.37,7.37,0,0,0,2.7-10.06,5.65,5.65,0,0,0-.38-.57A2.43,2.43,0,0,0,138.1,418.11Z" style="opacity:0.1"></path></g></g><g id="freepik--Food--inject-56"><g id="freepik--Mint--inject-56"><path d="M424.25,348.69c-.16-3.51,1.67-7.62,5.82-8.68s14.83-3.42,16.08-11.93c0,0-.56-1.06-3.87.34,0,0,4.27-4.71,3.6-9.18a11.72,11.72,0,0,0-3.67,1.14s3-4.37,2-8.58a9.69,9.69,0,0,0-3.16,1.67,10.09,10.09,0,0,0,.63-8,16.31,16.31,0,0,0-2.49,1.87,9.91,9.91,0,0,0-.05-6.71,9.75,9.75,0,0,0-2.36,2.14s1.33-2.1-.31-6.51a4.6,4.6,0,0,0-2.26,2,6.62,6.62,0,0,0-.48-4.83s-2.7.86-3.41,3.14a6.28,6.28,0,0,0-1.65-1.9s-1.49,1.14-2.12,4.7a3.84,3.84,0,0,0-1.87-2.07s-2.25,3.54-1.79,6.56a8.25,8.25,0,0,0-1.74-2.68,11.43,11.43,0,0,0-2.52,7.39,5.73,5.73,0,0,0-2.27-2.63s-2.43,3.08-1.83,8.71a6.37,6.37,0,0,0-2.63-2.88,14.73,14.73,0,0,0-.42,10.1,11.82,11.82,0,0,0-3.73-2,15.6,15.6,0,0,0,.82,7.32c1.4,3.3,5,6.79,7.2,8.79S421.58,340,424.25,348.69Z" style="fill:#FFC727"></path><g style="opacity:0.2"><path d="M424.25,348.69c-.16-3.51,1.67-7.62,5.82-8.68s14.83-3.42,16.08-11.93c0,0-.56-1.06-3.87.34,0,0,4.27-4.71,3.6-9.18a11.72,11.72,0,0,0-3.67,1.14s3-4.37,2-8.58a9.69,9.69,0,0,0-3.16,1.67,10.09,10.09,0,0,0,.63-8,16.31,16.31,0,0,0-2.49,1.87,9.91,9.91,0,0,0-.05-6.71,9.75,9.75,0,0,0-2.36,2.14s1.33-2.1-.31-6.51a4.6,4.6,0,0,0-2.26,2,6.62,6.62,0,0,0-.48-4.83s-2.7.86-3.41,3.14a6.28,6.28,0,0,0-1.65-1.9s-1.49,1.14-2.12,4.7a3.84,3.84,0,0,0-1.87-2.07s-2.25,3.54-1.79,6.56a8.25,8.25,0,0,0-1.74-2.68,11.43,11.43,0,0,0-2.52,7.39,5.73,5.73,0,0,0-2.27-2.63s-2.43,3.08-1.83,8.71a6.37,6.37,0,0,0-2.63-2.88,14.73,14.73,0,0,0-.42,10.1,11.82,11.82,0,0,0-3.73-2,15.6,15.6,0,0,0,.82,7.32c1.4,3.3,5,6.79,7.2,8.79S421.58,340,424.25,348.69Z"></path></g><path d="M431.32,297.93a122.52,122.52,0,0,0-4.62,12.2l-.9,3.12L425,316.4c-.46,2.11-.88,4.23-1.16,6.37a81,81,0,0,0-.79,12.93,103.62,103.62,0,0,0,1.17,13,62.05,62.05,0,0,1-2.32-12.94,63.14,63.14,0,0,1,3.69-26A68.28,68.28,0,0,1,431.32,297.93Z" style="fill:#fafafa"></path><path d="M424.25,348.69c-1.56-1.89-5.38-.39-7.48,2.34s-4.54,8.26-11.23,7.8c0,0-.72-.59.9-2.88,0,0-4.3,2.47-7.6,1.21a9.3,9.3,0,0,1,1.48-2.6s-3.82,1.54-6.86.11a7.46,7.46,0,0,1,1.79-2.14,7.87,7.87,0,0,1-6.18-.84,13.26,13.26,0,0,1,1.84-1.59,7.69,7.69,0,0,1-5.1-1.15,7.42,7.42,0,0,1,2-1.44s-1.81.67-4.9-1.32a3.62,3.62,0,0,1,1.93-1.38,5.14,5.14,0,0,1-3.6-1.16,4.35,4.35,0,0,1,3-2.08A4.78,4.78,0,0,1,383,340s1.12-.95,3.93-.84a3,3,0,0,1-1.26-1.77s3.07-1.13,5.29-.27a6.47,6.47,0,0,1-1.75-1.78,8.88,8.88,0,0,1,6-.69,4.46,4.46,0,0,1-1.62-2.17s2.74-1.34,6.94.06a5,5,0,0,1-1.76-2.49,11.51,11.51,0,0,1,7.76,1.35,9.14,9.14,0,0,1-.88-3.16,14.89,14.89,0,0,1,6.65,1.79,20,20,0,0,1,7.34,6.76A59,59,0,0,1,424.25,348.69Z" style="fill:#FFC727"></path><path d="M404.71,340.64c16.27.43,19.54,8.05,19.54,8.05-1.56-1.89-5.38-.39-7.48,2.34s-4.54,8.26-11.23,7.8h0a.52.52,0,0,1-.14-.31,1.34,1.34,0,0,1,0-.45,5.39,5.39,0,0,1,1-2.12h0s-.15.09-.42.22l-.3.15a16.63,16.63,0,0,1-1.57.62l-.55.17a5.84,5.84,0,0,1-.6.15l-.3.07c-.31.06-.63.11-.95.15l-.33,0c-.21,0-.43,0-.65,0a6.33,6.33,0,0,1-1.3-.16,5.1,5.1,0,0,1-.63-.2,9.3,9.3,0,0,1,1.48-2.6h0A9.78,9.78,0,0,1,399,355h0a9.16,9.16,0,0,1-.91.18,10,10,0,0,1-2.22.11,6.67,6.67,0,0,1-2.35-.59l.14-.24a2.29,2.29,0,0,1,.17-.27l.2-.28a2.43,2.43,0,0,1,.14-.2l.14-.17c.09-.12.2-.24.3-.36a4.51,4.51,0,0,1,.7-.62,2.29,2.29,0,0,1-.32.08,7.77,7.77,0,0,1-5.86-.92l.24-.24.1-.09a11.73,11.73,0,0,1,1.5-1.26,5.46,5.46,0,0,1-1,.06,8.38,8.38,0,0,1-1.05-.07,7.18,7.18,0,0,1-3.07-1.14s.17-.17.45-.41.34-.28.55-.43a7.48,7.48,0,0,1,1-.6h0a3.48,3.48,0,0,1-1.62,0,2.66,2.66,0,0,1-.37-.07,8.88,8.88,0,0,1-2.91-1.29,2.72,2.72,0,0,1,.35-.42,3.71,3.71,0,0,1,.28-.26c.1-.08.21-.17.33-.25a3.48,3.48,0,0,1,1-.45,4.44,4.44,0,0,1-1.18-.06,4.95,4.95,0,0,1-2.42-1.1A80.31,80.31,0,0,1,404.71,340.64Z" style="opacity:0.15"></path><path d="M385,342.54c1.66-.58,3.35-1,5.06-1.48s3.45-.73,5.2-1a50.53,50.53,0,0,1,10.58-.37A34.56,34.56,0,0,1,416.23,342a19.72,19.72,0,0,1,4.65,2.62,15.27,15.27,0,0,1,1.93,1.84,10.69,10.69,0,0,1,1.44,2.22,13.44,13.44,0,0,0-1.66-2,14.16,14.16,0,0,0-2-1.59,21.58,21.58,0,0,0-4.64-2.24,39.63,39.63,0,0,0-10.14-2,63.26,63.26,0,0,0-10.39.12A91.54,91.54,0,0,0,385,342.54Z" style="fill:#fafafa"></path></g><g id="freepik--lemon-slice--inject-56"><path d="M367,380.94s-1.36,7.37-1.73,10.4c-1.18,9.58,14.89,25.23,39.35,25.23,0,0-12-1.22-20-9.19s-11.93-24.92-11.93-24.92Z" style="fill:#FFC727"></path><path d="M367,380.94s-1.36,7.37-1.73,10.4c-1.18,9.58,14.89,25.23,39.35,25.23,0,0-12-1.22-20-9.19s-11.93-24.92-11.93-24.92Z" style="opacity:0.2"></path><g id="freepik--orange--inject-56"><path d="M449.62,333.26l4.18,2.4a86,86,0,0,1-2.73,29c-8.44,32-32.2,53.49-53.09,48l-.41-.11c-12.06-3.39-20.46-15.18-23.64-30.75l-4-2.49Z" style="fill:#FFC727"></path><path d="M373.93,381.77c3.18,15.57,11.58,27.36,23.64,30.75l.41.11c20.89,5.51,44.65-16,53.09-48a86,86,0,0,0,2.73-29Z" style="fill:#fff;opacity:0.9"></path><polygon points="373.93 381.77 369.91 379.28 449.62 333.26 453.8 335.66 373.93 381.77" style="fill:#fff;opacity:0.9500000000000001"></polygon><path d="M371.2,383.35c3.57,17.41,12.69,28.52,25.54,32.13l.47.13a29.56,29.56,0,0,0,7.45,1c20.8,0,41.56-21.51,49.39-51.13a97.26,97.26,0,0,0,2.48-31.36l-2.73,1.58a86,86,0,0,1-2.73,29c-8.44,32-32.2,53.49-53.09,48l-.41-.11c-12.06-3.39-20.46-15.18-23.64-30.75Z" style="fill:#FFC727"></path><path d="M371.2,383.35c3.57,17.41,12.69,28.52,25.54,32.13l.47.13a29.56,29.56,0,0,0,7.45,1c20.8,0,41.56-21.51,49.39-51.13a97.26,97.26,0,0,0,2.48-31.36l-2.73,1.58a86,86,0,0,1-2.73,29c-8.44,32-32.2,53.49-53.09,48l-.41-.11c-12.06-3.39-20.46-15.18-23.64-30.75Z" style="opacity:0.1"></path><path d="M442.18,359.86c2.76.73,6.11-3.72,6.77-9,.13-1.06.25-1.86.34-3.18.26-3.79-.41-6.65-4.38-4.68l-17.32,9.9c-.91.74-1.1,2.84-.28,3.06Z" style="fill:#FFC727"></path><path id="freepik--mascara--inject-56" d="M432.06,386c1.37,3.6,4.88,2.84,7.21-1.6q1.19-2.27,2.28-4.68t2.12-5.05c1.88-4.85,1.07-10.06-1.59-10.77l-17.91-4.72c-.82-.22-1.69,1.7-1.27,2.8Z" style="fill:#FFC727"></path><path d="M417.7,397.37c-.47,5.25,2.05,8.24,5.12,6,.62-.45,1.24-.93,1.85-1.43s1.22-1,1.83-1.61c3-2.8,4.56-9.16,3.15-12.85l-7.6-20c-.42-1.09-1.64-.09-1.78,1.47Z" style="fill:#FFC727"></path><path id="freepik--mascara--inject-56" d="M398.29,395.22c-2.35,4.57-1.52,10.33,1.79,11.77a27,27,0,0,0,3.61,1.25,26.73,26.73,0,0,0,3.76.69c3.59.39,7.15-4.21,7.36-9.35l2.61-34.87c.07-1.58-1.37-2-2.09-.55Z" style="fill:#FFC727"></path><path d="M408.94,364.11l-22.84,13c-4.23,2.4-6.18,9.07-3.92,13.48.46.88.93,1.75,1.44,2.59s1,1.66,1.56,2.45c2.71,3.93,8,2.86,10.69-2.13l14.53-27C411.2,365.06,410.2,363.39,408.94,364.11Z" style="fill:#FFC727"></path><g style="opacity:0.45"><path d="M442.18,359.86c2.76.73,6.11-3.72,6.77-9,.13-1.06.25-1.86.34-3.18.26-3.79-.41-6.65-4.38-4.68l-17.32,9.9c-.91.74-1.1,2.84-.28,3.06Z" style="fill:#fff"></path><path id="freepik--mascara--inject-56" d="M432.06,386c1.37,3.6,4.88,2.84,7.21-1.6q1.19-2.27,2.28-4.68t2.12-5.05c1.88-4.85,1.07-10.06-1.59-10.77l-17.91-4.72c-.82-.22-1.69,1.7-1.27,2.8Z" style="fill:#fff"></path><path d="M417.7,397.37c-.47,5.25,2.05,8.24,5.12,6,.62-.45,1.24-.93,1.85-1.43s1.22-1,1.83-1.61c3-2.8,4.56-9.16,3.15-12.85l-7.6-20c-.42-1.09-1.64-.09-1.78,1.47Z" style="fill:#fff"></path><path id="freepik--mascara--inject-56" d="M398.29,395.22c-2.35,4.57-1.52,10.33,1.79,11.77a27,27,0,0,0,3.61,1.25,26.73,26.73,0,0,0,3.76.69c3.59.39,7.15-4.21,7.36-9.35l2.61-34.87c.07-1.58-1.37-2-2.09-.55Z" style="fill:#fff"></path><path d="M408.94,364.11l-22.84,13c-4.23,2.4-6.18,9.07-3.92,13.48.46.88.93,1.75,1.44,2.59s1,1.66,1.56,2.45c2.71,3.93,8,2.86,10.69-2.13l14.53-27C411.2,365.06,410.2,363.39,408.94,364.11Z" style="fill:#fff"></path></g></g><polygon points="456.53 334.08 452.25 331.74 369.91 379.28 367.04 380.94 371.2 383.34 456.53 334.08" style="fill:#FFC727"></polygon><polygon points="373.93 381.77 369.91 379.28 449.62 333.26 453.8 335.66 373.93 381.77" style="fill:#fff;opacity:0.9500000000000001"></polygon><g style="opacity:0.30000000000000004"><path d="M400.65,394.15l16.61-30.29a1.68,1.68,0,0,1,.16.85l-2.61,34.87a11.23,11.23,0,0,1-3.91,8.24,4,4,0,0,1-1.09,0,26.73,26.73,0,0,1-3.76-.69,27,27,0,0,1-3.61-1.25C399.13,404.48,398.3,398.72,400.65,394.15Z" style="fill:#fff"></path><path d="M388.46,376,409.67,364c.86.12,1.36,1.4.73,2.57l-14.53,27a9.42,9.42,0,0,1-2.87,3.31,5.09,5.09,0,0,1-5.46-2.25c-.54-.79-1.06-1.61-1.57-2.45s-1-1.71-1.43-2.59C382.28,385.11,384.23,378.44,388.46,376Z" style="fill:#fff"></path><path d="M420.06,396.3l2.49-27.45,7.1,18.65c1.41,3.69-.14,10.05-3.15,12.85-.61.56-1.22,1.1-1.83,1.61s-.94.73-1.41,1.08C421.15,403.1,419.69,400.4,420.06,396.3Z" style="fill:#fff"></path><path d="M425.26,360.86a2.36,2.36,0,0,1,0-1.44l16.81,4.43c2.66.71,3.47,5.92,1.59,10.77q-1,2.56-2.12,5.05t-2.28,4.68a9.65,9.65,0,0,1-2.13,2.81c-1.13,0-2.13-.72-2.73-2.28Z" style="fill:#fff"></path><path d="M444.54,358.79l-14.87-3.92c-.82-.22-.63-2.32.28-3.06l16.38-9.36c2.71-.65,3.18,1.93,3,5.21-.09,1.32-.21,2.12-.34,3.18a13.23,13.23,0,0,1-3.75,8A2.47,2.47,0,0,1,444.54,358.79Z" style="fill:#fff"></path></g></g><g id="freepik--mint--inject-56"><path d="M424.25,348.69c1.16-2.38,5.51-2.11,8.41.25s6.83,7.58,13.78,5.43c0,0,.6-.81-1.67-2.82,0,0,5.14,1.54,8.3-.6a9.81,9.81,0,0,0-2.2-2.38s4.42.67,7.26-1.6a8.34,8.34,0,0,0-2.42-1.81,8.55,8.55,0,0,0,6.31-2.41,14.08,14.08,0,0,0-2.34-1.22,8.37,8.37,0,0,0,5.1-2.48,8.11,8.11,0,0,0-2.49-1s2.08.25,4.84-2.61a3.87,3.87,0,0,0-2.37-1,5.61,5.61,0,0,0,3.5-2.13,4.73,4.73,0,0,0-3.64-1.46,5.4,5.4,0,0,0,.86-1.94s-1.42-.72-4.36.09a3.19,3.19,0,0,0,.89-2.18s-3.51-.42-5.64,1a7,7,0,0,0,1.4-2.3,9.6,9.6,0,0,0-6.54.77,4.84,4.84,0,0,0,1.17-2.69s-3.23-.73-7.3,1.78a5.36,5.36,0,0,0,1.24-3.06,12.49,12.49,0,0,0-7.85,3.36,9.91,9.91,0,0,0,.14-3.56,24.14,24.14,0,0,0-6.33,3.39c-2.41,1.83-4.57,4.38-6.47,8.88C424.86,336.73,423.76,342.85,424.25,348.69Z" style="fill:#FFC727"></path><path d="M442.78,335c-17,4.5-18.53,13.7-18.53,13.7,1.16-2.38,5.51-2.11,8.41.25s6.83,7.58,13.78,5.43h0a.6.6,0,0,0,.07-.36,1.59,1.59,0,0,0-.12-.48,6,6,0,0,0-1.62-2h0s.18.06.49.13l.36.08a16.78,16.78,0,0,0,1.8.27l.63,0c.22,0,.44,0,.66,0h.34c.35,0,.69,0,1-.08l.35-.06c.23,0,.46-.08.69-.14a6.27,6.27,0,0,0,1.33-.5,4.59,4.59,0,0,0,.61-.35,9.81,9.81,0,0,0-2.2-2.38h0a11.92,11.92,0,0,0,1.55.09h0c.3,0,.64,0,1,0a10.77,10.77,0,0,0,2.37-.44,7.21,7.21,0,0,0,2.33-1.21s-.07-.08-.21-.21a3,3,0,0,0-.25-.24,3.32,3.32,0,0,0-.27-.25l-.2-.17L457,346l-.41-.3a5.54,5.54,0,0,0-.89-.49,2.55,2.55,0,0,0,.35,0,8.58,8.58,0,0,0,6-2.43l-.32-.2-.12-.07a12.87,12.87,0,0,0-1.9-1,7.26,7.26,0,0,0,1.05-.18,10.07,10.07,0,0,0,1.09-.34,7.93,7.93,0,0,0,3-2l-.58-.33-.69-.31a7,7,0,0,0-1.22-.38h0a3.82,3.82,0,0,0,1.73-.36c.11-.05.24-.1.37-.17a9.75,9.75,0,0,0,2.74-2.08,3.45,3.45,0,0,0-.48-.36,3.63,3.63,0,0,0-.35-.2,2.65,2.65,0,0,0-.42-.18,3.48,3.48,0,0,0-1.12-.23,4.85,4.85,0,0,0,1.22-.36,5.59,5.59,0,0,0,1.73-1.14,6.89,6.89,0,0,0,.55-.63A87,87,0,0,0,442.78,335Z" style="opacity:0.15"></path><path d="M464,332.1a92.91,92.91,0,0,0-11.33,1,66.34,66.34,0,0,0-11,2.57,42.56,42.56,0,0,0-10.15,4.75,23.79,23.79,0,0,0-4.31,3.57,15.44,15.44,0,0,0-1.74,2.2,14.27,14.27,0,0,0-1.25,2.54,11.44,11.44,0,0,1,1-2.7,16.89,16.89,0,0,1,1.57-2.44,22,22,0,0,1,4.21-4,37.58,37.58,0,0,1,10.32-5.13,53.62,53.62,0,0,1,11.25-2.35c1.91-.2,3.82-.29,5.73-.3S462.11,331.89,464,332.1Z" style="fill:#fafafa"></path></g></g><g id="freepik--speech-bubble--inject-56"><g id="freepik--speech-bubble--inject-56"><g id="freepik--speech-bubble--inject-56"><path d="M394.73,89.82l-9.15-8.59a.63.63,0,0,1,.52-1l8.63.75Z" style="fill:#FFC727"></path><path d="M402.09,76.7l-7.36,4.23-8.63-.75a.59.59,0,0,0-.3,0c.69-.41,7-4,7.31-4.2a.55.55,0,0,1,.36-.07Z" style="fill:#FFC727"></path><path d="M402.09,76.7l-7.36,4.23-8.63-.75a.59.59,0,0,0-.3,0c.69-.41,7-4,7.31-4.2a.55.55,0,0,1,.36-.07Z" style="fill:#fff;opacity:0.5"></path><path d="M401.37,62.29,427,77.06a2.27,2.27,0,0,1,1,1.78v32.93a2.23,2.23,0,0,1-1,1.77l-3.67,2.06a2.31,2.31,0,0,1-2,0l-25.65-14.78a2.28,2.28,0,0,1-1-1.77V66.1a2.23,2.23,0,0,1,1-1.76l3.67-2.06A2.28,2.28,0,0,1,401.37,62.29Z" style="fill:#FFC727"></path><path d="M422.31,115V82.06a2.3,2.3,0,0,0-1-1.78L395.64,65.51c-.56-.33-1-.06-1,.59V99a2.28,2.28,0,0,0,1,1.77l25.65,14.78C421.85,115.91,422.31,115.65,422.31,115Z" style="fill:#FFC727"></path><path d="M421.29,115.59a2.4,2.4,0,0,0,2.06,0l3.66-2.06a2.23,2.23,0,0,0,1-1.76V78.84a2.1,2.1,0,0,0-.32-1L422,81.05a2,2,0,0,1,.3,1V115C422.31,115.59,421.89,115.93,421.29,115.59Z" style="opacity:0.2"></path><path d="M394.63,65.91c.08-.51.5-.7,1-.4l25.65,14.77a2.14,2.14,0,0,1,.72.77l5.71-3.26a2,2,0,0,0-.7-.73L401.37,62.29a2.28,2.28,0,0,0-2.05,0l-3.67,2A2.26,2.26,0,0,0,394.63,65.91Z" style="fill:#fff;opacity:0.4"></path></g><g id="freepik--Ok--inject-56"><path d="M418.16,100.17a1.07,1.07,0,0,1-1.54,1,6.36,6.36,0,0,1,.22,1.59c0,1-.83,1.53-2,.83s-9.19-5.29-9.19-5.29v-12a35.06,35.06,0,0,0,2.76-3.4,25.73,25.73,0,0,0,0-4.3c0-.45,1.51.2,2.46,1.77a4.85,4.85,0,0,1,.54,1.22,15,15,0,0,1,.56,2.55,8.36,8.36,0,0,1-.19,3.19l5.55,3.21a3,3,0,0,1,1.07,1.09,3.88,3.88,0,0,1,.58,1.87c0,1.08-.59,1.33-.89,1.36a3.45,3.45,0,0,1,1.1,2.43c0,.84-.51,1.45-1.35,1.16A4.13,4.13,0,0,1,418.16,100.17Z" style="fill:#fafafa"></path><path d="M400.29,83.39l0,12.94a1,1,0,0,0,.45.78l3.09,1.78c.25.15.45,0,.45-.26V85.72a1,1,0,0,0-.45-.78l-3.11-1.81C400.49,83,400.29,83.1,400.29,83.39Z" style="fill:#fafafa"></path></g></g></g></svg>